<?xml version="1.0" standalone="no"?>
<!DOCTYPE svg PUBLIC "-//W3C//DTD SVG 1.1//EN" "http://www.w3.org/Graphics/SVG/1.1/DTD/svg11.dtd" >
<svg xmlns="http://www.w3.org/2000/svg">
<metadata></metadata>
<defs>
<font id="umbrageregular" horiz-adv-x="1184" >
<font-face units-per-em="2048" ascent="1638" descent="-410" />
<missing-glyph horiz-adv-x="569" />
<glyph horiz-adv-x="0" />
<glyph unicode="&#xd;" horiz-adv-x="569" />
<glyph unicode=" "  horiz-adv-x="569" />
<glyph unicode="&#x09;" horiz-adv-x="569" />
<glyph unicode="&#xa0;" horiz-adv-x="569" />
<glyph unicode="!" horiz-adv-x="630" d="M138 89q0 96 47.5 144t141.5 45q74 0 157 -132q-44 -159 -156 -193q-150 10 -190 136zM138 492l19 192l19 38l-19 192l19 96h-19l19 20l-38 230l38 58l250 -20q33 -102 38 -211v-57h20l-20 -20l20 -249l-20 -58l20 -153q-5 -77 -39 -154l-288 19zM311 511l57 -57 q-12 41 -57 57zM349 607l19 -38v38h-19zM368 818l58 -38q-15 28 -58 38zM388 684l19 -58v58h-19zM388 1202l19 -38v38h-19z" />
<glyph unicode="&#x22;" horiz-adv-x="717" d="M103 1289l19 57l192 -19l-19 -173l19 -249l-19 -58l-173 -19l19 154l-19 57zM410 866l39 116l-20 307l39 57l153 -19l-19 -230l39 -77l-39 -192z" />
<glyph unicode="#" horiz-adv-x="1139" />
<glyph unicode="$" horiz-adv-x="975" d="M16 214l115 192l173 -96q103 -39 230 -39l135 96l19 -57h77l-115 96q-63 71 -154 134q-102 28 -192 96q-94 23 -192 77q-32 101 -38 230q23 117 76 231l192 115l103 2l-11 129l115 14q12 -62 11 -143l90 17q71 -17 153 -57l58 -58q-18 -62 -58 -134l-63 -77l-90 61 q-70 72 -96 4l-77 31q-71 -58 -115 -154q76 -60 192 -96l230 -96l115 -115l39 -230q-32 -107 -96 -212l-154 -134q-108 -10 -130 -78l-20 -148l-108 -2q-5 46 -11 152h58q-37 35 -96 38l-250 57q-60 67 -115 154zM189 732q17 -27 57 -38zM189 828l57 39l58 57h-96zM208 790 h38v38h-19zM208 1059l38 19l-19 38zM227 1020l19 -38v38h-19zM246 713q46 25 58 77zM285 867l57 -77q-16 44 -57 77zM285 1174q3 -39 38 -58q-7 37 -38 58zM323 175l39 -57q-7 38 -39 57zM362 1174q5 -25 38 -39q-4 26 -38 39zM496 675q3 -45 38 -77q-1 41 -38 77zM515 175 l19 -38v38h-19zM534 118l20 -39v39h-20zM592 694l19 -58v58h-19zM611 579l96 -77q-29 50 -96 77zM650 156l76 39q-16 27 -57 38zM669 694l38 19l-38 19v-38zM688 655q14 -40 58 -57q-18 33 -58 57zM688 675l19 -20l19 58zM746 214l38 19v38h-19zM765 579q5 -25 38 -39 q-4 26 -38 39zM861 425q8 -38 38 -58q-6 39 -38 58z" />
<glyph unicode="%" horiz-adv-x="1821" />
<glyph unicode="&#x26;" horiz-adv-x="1366" />
<glyph unicode="'" horiz-adv-x="393" d="M86 838l19 231l19 57l-38 154l19 57h192l-19 -230l38 -250l-57 -38zM182 1088l19 -39v39h-19z" />
<glyph unicode="(" horiz-adv-x="569" />
<glyph unicode=")" horiz-adv-x="682" />
<glyph unicode="*" horiz-adv-x="797" />
<glyph unicode="+" horiz-adv-x="1196" />
<glyph unicode="," horiz-adv-x="675" d="M46 -192l173 498l153 -19l39 19h57l77 -19q-30 -55 -57 -135l-116 -153l-76 -210q-102 -32 -212 -39z" />
<glyph unicode="-" horiz-adv-x="753" d="M64 607l19 19l-19 154l19 57l442 -38l96 38l57 -115l20 -96l-20 -38l20 -39h-20l-96 -19l-38 19h-96l-58 19q-61 -17 -153 -19l-154 -19z" />
<glyph unicode="." horiz-adv-x="573" d="M57 118q26 131 148 232q111 -17 210 -126l43 -106l-147 -147q-146 28 -254 147z" />
<glyph unicode="/" horiz-adv-x="632" d="M51 -67q0 27 46 176l60 168l6 45l126 407q25 61 59 121v71l125 393l21 54l51 -42l51 9q2 -1 2 -6q0 -32 -61 -213l-52 -171l-8 8q-22 -38 -19 -94l-33 -60q-16 -88 -46 -197l-33 -107q-6 45 -25 57l-8 -163l-59 -170l-13 -66l-57 -186l-28 -68l-29 -4l-37 27z" />
<glyph unicode="0" horiz-adv-x="1026" d="M26 548l58 461l134 154q75 73 173 134l211 -19l58 19l153 -134l115 -192l58 -212l-19 -57l19 -135v-57l-58 -250l-134 -173q-86 -55 -192 -94h-58v-20l-134 20l-58 18l-172 115l-116 192zM218 471q17 -27 58 -38q-16 28 -58 38zM218 951q8 -19 38 -38l20 19zM254 1027 q14 -46 57 -77q-8 44 -57 77zM276 414l19 -58v58h-19zM314 683l38 -288q80 -105 212 -173q64 37 96 96l19 288l38 173l-57 38q-20 133 -96 269q-112 -63 -212 -173zM410 1163h58l-39 76zM448 126l20 -39v39h-20zM583 126l77 19q-8 37 -39 58zM583 1163l19 -39v39h-19z M717 1105l19 -38v38h-19zM736 894l20 -39v39h-20z" />
<glyph unicode="1" horiz-adv-x="569" d="M32 1038l62 246l268 -2q114 -28 135 -153q-36 -79 -77 -135q41 -53 58 -134l19 -154q-19 -6 -39 -38l39 -230l-19 -58l10 -378l-77 -38l-230 38l-11 282l20 192l-20 173l20 115h-20l20 154q-88 52 -128 16zM247 380q15 -41 58 -58q-15 41 -58 58zM266 630l20 -39v39h-20z M286 226h57l-38 77zM305 841q8 -38 38 -58zM343 169q33 2 39 38zM362 495l20 -38v38h-20zM362 687l20 -38v38h-20zM382 399q14 -41 57 -57q-17 32 -57 57zM382 898q5 -54 38 -115q-2 53 -38 115z" />
<glyph unicode="2" horiz-adv-x="985" d="M21 932l38 154l135 115l173 77l249 -19l192 -58l115 -134l20 -192l-39 -192l-230 -269l-208 -167q139 14 227 -6l154 19l57 -19l39 -78l-20 -76q-28 -63 -96 -94h-153l-39 18l-19 -18h-249q-42 -7 -77 -7q-80 0 -118 40l-102 -33l-24 170q97 131 176 188l252 224 q91 124 142 204l15 149l-149 119q-59 -10 -115 -57l-77 -135l-58 -57l-57 38l-116 -38q-37 64 -38 134zM117 1009l19 -38v38h-19zM194 1143q17 -60 77 -96zM347 241q46 23 58 77zM367 49h19l57 58h-76v-58zM463 491q8 -38 38 -58zM463 1124l57 39l-57 19v-58zM559 433 l19 -38v38h-19zM597 1067l77 -116q-16 64 -77 116zM616 145q43 14 58 58zM635 759l20 -38v38h-20zM655 663q8 -55 38 -115q-6 58 -38 115zM674 836q8 -37 38 -57zM731 107q17 -35 58 -39zM770 1067q22 -50 77 -77q-22 51 -77 77z" />
<glyph unicode="3" horiz-adv-x="1026" d="M22 396q55 40 134 58l58 -38l154 19v-77l33 -98l21 -40l-112 4l154 -58q87 61 192 96l57 115l-38 58q-31 73 -96 134l-130 19l-11 169l151 29l67 71l19 96l-19 39q-62 63 -154 96q-82 -56 -134 -154l-154 19l-38 -19h-58q-34 8 -58 38l39 116l96 19l-58 57l77 58l192 77 h288l154 -115q54 -72 76 -173q-2 -103 -38 -211q-81 -92 -88 28l-42 -105l149 -77q47 -75 77 -173l19 -153l-38 -58q-45 -92 -115 -173q-86 -53 -192 -95l-173 -20l-269 96q-59 65 -115 154zM291 358l19 -38v38h-19zM444 1164q6 -24 39 -38q-4 26 -39 38zM464 1260l38 -38 l38 19zM496 58l77 -57q-7 67 -38 134zM617 147l19 -39v39h-19zM694 1068q8 -37 38 -57zM713 204l19 -38v38h-19zM771 454q17 -56 57 -115q-2 64 -57 115zM790 934q6 -25 38 -38q-6 19 -38 38zM848 588l19 -38v38h-19zM905 396l19 -76l20 38z" />
<glyph unicode="4" horiz-adv-x="1005" d="M26 287l19 214l175 254q69 136 195 272l137 253l344 -23l6 -210l19 -59l-19 -58l-2 -297q50 -38 -29 -105l73 -26l78 43l-38 -260l-76 10l14 -291l-58 -18l-117 -20l-39 38l-39 -38q-33 16 -39 58l-1 146l19 39l-38 47l78 20q59 6 -11 27q101 104 -20 41l-67 -57 l-428 -19l-98 -20q-4 20 -38 39zM162 462l19 -38v38h-19zM260 365l58 -58q-17 38 -58 58zM318 501l155 19l91 -41l84 61l-19 97l39 79l-39 58q71 36 8 131l-4 87l-197 -296l-46 -65q-60 -52 -72 -130zM493 1085q6 -25 39 -38q-4 25 -39 38zM532 384q8 -19 39 -39 q-4 27 -39 39zM688 618l58 -39q-16 29 -58 39zM688 755q17 -51 77 -79l-19 40h39zM688 1027q5 -40 39 -59l58 137l-78 78zM765 112h39v39h-19zM765 968l59 -38l39 19l-59 98zM824 228q15 -40 58 -58zM844 307l19 -39v39h-19zM863 424l19 -59v59h-19z" />
<glyph unicode="5" horiz-adv-x="983" d="M23 89l19 176l-19 60l58 58l135 -98l138 -58l139 -1q80 51 138 138q42 55 50 123q-37 46 -72 112l-144 60l-129 -22l-133 -30l-98 37l-4 151q27 61 79 118l-39 157q18 103 78 215l216 -19l215 19l119 -19l39 19h58v20l39 -59l-19 -176l-157 -59l-196 20l-157 -20 l-19 -138q4 -19 39 -39l176 20l255 -98l98 -177q9 -82 40 -176l-60 -216q-64 -71 -156 -138l-177 -58l-215 -20l-40 20l-118 -20q-84 46 -176 118zM160 69h39v79h-19zM278 776l59 -39q-16 28 -59 39zM278 913q37 32 39 79zM415 1129l20 -40l39 20v59h-20zM454 737l20 -40v40 h-20zM513 187q17 -28 59 -39zM533 1188l20 -59l58 59h-78zM572 776q16 -39 59 -39zM670 128l59 -39q-16 28 -59 39zM670 325q34 -50 99 -80q-38 48 -99 80zM749 461l39 20l-39 20v-40z" />
<glyph unicode="6" horiz-adv-x="1013" d="M39 546q42 127 114 269q58 105 154 211l96 231q114 5 250 38l134 -19l-250 -327l-57 -134l77 -38l134 57l-19 -57l19 -20l96 58l96 -77q62 -123 96 -269l-38 -268l-192 -173l-288 -57l-269 95q-74 87 -134 211q-18 124 -19 269zM173 239q31 -32 76 -38zM211 661 q15 -36 58 -38zM230 815q70 1 115 58zM269 719q12 -42 57 -58q70 67 96 173q-65 -65 -153 -115zM288 431l10 -72l39 -62q50 -69 124 -58l57 -19l135 38q32 89 38 192q-23 84 -96 154q-45 61 -86 21q-64 19 -150 -46q-36 -50 -71 -148zM345 969h96l-76 115zM365 911l57 -38 q-15 28 -57 38zM461 1026q18 -26 57 -38q-15 28 -57 38zM480 796l19 -39v39h-19zM576 143l19 -38v38h-19zM576 738q6 -25 38 -38q-6 19 -38 38zM595 220l19 -39v39h-19zM614 681q16 -44 58 -77q-8 45 -58 77zM633 239l20 -58v58h-20zM729 316q17 -27 58 -39zM749 258l19 -77 l77 39zM749 412q14 -37 57 -39zM749 508q16 -27 57 -39q-15 28 -57 39z" />
<glyph unicode="7" horiz-adv-x="861" d="M30 1018l40 277l263 -20l39 -19l100 39l79 -79v59l305 -1q32 -63 40 -158q-52 -69 -84 -209l-103 -146l-79 -257q-65 -127 -198 -198l60 -59l-77 -259l-216 11l-79 -20l-40 20l194 466q40 135 118 296q76 108 139 237q-112 27 -169.5 4.5t-252.5 -23.5zM215 1197 q5 -27 39 -40q-4 26 -39 40zM254 247l20 -39v39h-20zM412 1177h40v39h-20zM452 702q8 -67 59 -119q-10 69 -59 119zM531 761q27 -43 79 -59q-34 40 -79 59zM551 900l20 -40v40h-20zM551 959l59 39l-59 20v-59zM571 1077l59 40q-5 27 -40 40zM610 900l59 39l-39 20zM630 1018 q66 23 98 79q-60 -24 -98 -79zM669 821l20 -60l20 60h-40z" />
<glyph unicode="8" horiz-adv-x="1005" d="M34 430l38 77l20 57q102 56 190 145q-90 71 -150.5 141t34.5 316l233 128l115 -19l38 19h116l57 -39q131 -64 211 -211q-7 -127 -57 -269l-121 -77l-38 -19q100 -88 178 -57l51 -136l39 -77l-39 -173q-67 -123 -166 -190l-250 -77l-288 58q-97 88 -192 211zM149 987 l19 -39v39h-19zM188 948q36 32 38 77zM226 123q6 -25 38 -39q-4 26 -38 39zM226 1140l38 -19v58h-19zM303 123h19v38h-19v-38zM318 323l25 -79l171 -45q94 19 192 58l-19 192q-58 85 -154 134q-89 28 -152 -24l-59 -129zM322 871l19 -38v38h-19zM360 814l154 -58 q111 35 173 154q-19 163 -211 192q-112 -119 -116 -288zM572 1236q16 -37 57 -57q-16 38 -57 57zM707 545.5q-14 -5.5 18 -19.5q-4 25 -18 19.5zM744 1102q6 -25 39 -39q-7 20 -39 39zM764 353q12 -41 57 -77q-9 43 -57 77zM802 1044q8 -44 38 -77q-4 43 -38 77zM860 910 l19 -39v39h-19z" />
<glyph unicode="9" horiz-adv-x="1026" d="M37 799v13q0 257 128 396q102 83 278 99l318 -40l178 -198l60 -140l-20 -158l-59 -238l-258 -437q-74 -105 -122 -153l-315 14l132 159l66 138q70 86 133 176l-7 42l-187 -31q-98 18 -262 159zM146 810l118 -79q-42 51 -118 79zM146 949q44 -62 118 -99q-48 55 -118 99z M185 1009l20 -60v60h-20zM245 1129q4 -28 39 -40q-6 20 -39 40zM304 830l40 -137l93 -51q82 -40 126 10l54 -16l45 36l59 158l-19 60q-13 143 -179 179q-159 -58 -219 -239zM324 1089q39 19 40 59zM443 1208l20 -40v40h-20zM602 1228q21 -32 60 -40q-18 28 -60 40zM721 731 q11 -61 60 -99q-18 50 -60 99zM801 989q29 -39 79 -40zM840 810l20 -39v39h-20z" />
<glyph unicode=":" horiz-adv-x="560" d="M87 723l38 116l192 96q108 -88 116 -250q-18 -45 -58 -96q-64 -8 -134 -38l-39 38q-56 57 -115 134zM89 113q24 120 135 212q101 -16 192 -116l38 -96l-134 -134q-132 26 -231 134zM202 723q6 -24 39 -38q-4 26 -39 38z" />
<glyph unicode=";" horiz-adv-x="645" d="M-28 -192l173 498l153 -19l39 19h57l77 -19q-29 -55 -57 -135l-116 -153l-76 -210q-101 -32 -212 -39zM135 681q-24 124 53 217q86 27 98 27q107 0 149 -38q47 -42 55 -117q-34 -131 -172 -211q-130 34 -183 122zM279 847q6 -25 39 -38q-7 19 -39 38zM356 751l19 -38v38 h-19z" />
<glyph unicode="&#x3c;" horiz-adv-x="1196" />
<glyph unicode="=" horiz-adv-x="1196" />
<glyph unicode="&#x3e;" horiz-adv-x="1196" />
<glyph unicode="?" horiz-adv-x="933" d="M26 977l134 250l231 96q80 -18 147 1l83 -21l135 -57l115 -192l19 -154l-38 -57q-24 -108 -96 -212q-52 -44 -173 -54l-11 -187l-103 1l-89 7l-66 22l19 154l-19 134q30 31 77 39l211 57l38 192l-38 58l-154 19l-57 -19q-95 -58 -169 -205l-128 58zM122 996l77 39l-39 19 zM276 132q69 93 172 173l80 -9l102 -101l10 -128q-36 -49 -172 -126q-128 43 -192 191zM276 1150l19 -58l19 58h-38zM448 727l20 -38v38h-20zM468 497h38v77h-19zM468 651l57 -58q-13 42 -57 58zM660 1035q59 10 76 76q-40 -25 -76 -76zM698 804l19 -57l19 57h-38z" />
<glyph unicode="@" horiz-adv-x="2079" />
<glyph unicode="A" d="M-48 10l18 38q23 131 58 180l58 204l132 320q47 104 79 237q34 147 79 223t146 107l216 -42l107 -14l28 -178l115 -269q36 -141 115 -307l77 -326q46 -60 46 -162v-13l-101 -5q-109 0 -208 1l-29 123l-50 97l-179 2l-324 -5q-24 -120 -46 -185q3 -55 -67 -55 q-36 0 -90 14l-142 -3zM105 125h77l38 96l-58 19zM201 490l38 19l-38 19v-38zM220 336q14 -40 58 -57zM239 375l115 57q17 -27 58 -38l-8 81l8 72l-58 20l-19 -116q-12 41 -57 58zM354 1027q14 -36 58 -38zM438 482l117 45l58 -62l46 20l67 -1l70 7l-27 113l-69 193 q-10 89 -43 144l-27 67l-39 23l-71 -274l-69 -6zM470 931h38v58h-19zM489 375q39 -41 96 -58q-39 42 -96 58zM719 989q6 -25 39 -38q-4 25 -39 38zM738 855q34 -64 116 -116q-37 64 -116 116zM738 1200h39v39h-19zM777 1104l19 -38v38h-19zM830 577q70 -66 116 -173l38 77 q-69 59 -154 96zM892 413l19 -38v38h-19zM911 759q8 -38 39 -58q-8 38 -39 58zM930 267q96 -4 196 -73q-53 119 -147 219z" />
<glyph unicode="B" horiz-adv-x="1072" d="M34 665l19 288l-19 39l10 286l96 39q152 -7 346 -39l250 19l104 -64q88 -100 153 -231q-3 -148 -115 -269q-59 12 -115 58l42 -134l47 -16l-27 72q135 -125 207 -210l19 -211l-77 -115q-98 -109 -269 -154l-158 6q-167 -56 -365 -58l-77 20l-53 -6zM148 157h39l-19 58z M148 253h116q-33 64 -96 116zM206 445l19 -57l19 57h-38zM244 1175l20 -58l19 58h-39zM264 561l38 19l-19 19zM264 791l19 -38v38h-19zM264 868l19 -58v58h-19zM283 1117q21 -30 57 -38zM308 1002v-12q0 -144 24 -210l162 -47l173 96l57 -38l39 58l-39 19l-57 77l77 -20 q-28 126 -117 153l-152 20q-62 -49 -136 -64zM324 293l16 -97l24 60l34 -3l173 -19l153 115l20 154l-20 38l-153 20l-58 -20l-118 51q-57 -11 -57 -69q0 -10 2 -20l20 -192zM398 196q15 -46 58 -77q-18 46 -58 77zM552 196l19 -58l19 58h-38zM705 657l19 -39v39h-19z M724 196l39 19l-39 19v-38zM763 292l57 -19l20 57l-58 19zM801 829q15 -40 58 -57q-14 41 -58 57zM840 177q27 -36 76 -39zM840 426q16 -37 57 -57q-14 40 -57 57z" />
<glyph unicode="C" horiz-adv-x="1049" d="M16 678l58 192q32 91 96 172l134 135l115 57q22 -7 39 -38q64 53 153 96l211 -19q76 -27 154 -77l38 -173q-8 -77 -57 -153l-135 115l-96 19l-38 -19h-38q-84 -26 -173 -77l-115 -134l-58 -39l38 -96l39 -173l115 -153q89 -41 192 -58l-7 -77q39 7 57 39q120 57 180 96 q35 45 96 77l-19 -77l19 -154l-19 -57q-39 -61 -115 -114l-192 -20q-88 17 -192 57l-77 -57l-19 76l19 19q-84 12 -173 58l-134 134l-38 115l96 20l57 38q-9 44 -38 96l-19 -77l-77 -57l-58 38zM93 716l57 -38q-16 28 -57 38zM189 793q8 -38 38 -58q-7 39 -38 58zM246 486 l77 19l-38 19zM285 332q42 27 57 77zM342 274l20 -38v38h-20zM381 198l19 -39v39h-19zM400 332q17 -27 58 -38zM496 1177q5 -36 38 -58zM515 140q6 -25 39 -38q-5 25 -39 38zM592 25l19 -37v37h-19zM611 121q15 -46 58 -77zM611 1215l58 -38q-16 28 -58 38z" />
<glyph unicode="D" horiz-adv-x="1250" d="M54 98l19 19l-1 276l1 684l-19 154l38 58l212 -20l57 20l91 15l148 -14q124 -16 184 -78q119 -22 230 -96l154 -192l57 -192l-38 -58l19 -249l-134 -212l-192 -153l-288 -58h-346l-96 -19l-38 19h-39zM131 463l19 -77l19 58zM131 521l38 -39l-19 77zM131 751l19 -38v38 h-19zM188 597q15 -40 58 -57q-16 38 -58 57zM188 943h39v38h-19zM208 1020l76 -19l39 57l57 -38l20 38l-77 77q-63 -38 -115 -115zM227 233q4 -27 38 -39q-6 19 -38 39zM227 425l96 -58q-35 44 -96 58zM227 828q34 -58 96 -96zM284 578l39 -19v58h-19zM284 905l20 -39v39 h-20zM304 674l19 -38v38h-19zM342 271q6 -53 38 -58zM361 693q15 -52 58 -96q-5 -112 -39 -230l77 -96l192 19l154 77l77 192l57 38l-57 20v192l38 76l77 -57q45 16 77 57l-173 39l-39 -58l-134 77q-52 60 -134 115l-77 -57l-39 38l-115 -96l58 -211zM419 1116h38v57h-19z M496 194l19 -38v38h-19zM764 271q8 -38 39 -58zM880 1135l19 -38v38h-19zM899 290l19 -38v38h-19zM918 463q34 -49 96 -77q-38 51 -96 77zM976 309q7 -19 38 -38l19 19zM976 789q7 -19 38 -38l19 19zM995 597q57 -47 134 -57zM1033 693l19 -38v38h-19zM1129 751 q6 -26 39 -38q-7 19 -39 38z" />
<glyph unicode="E" horiz-adv-x="886" d="M36 112l14 156l5 189l2 141l-2 90l19 192l-32 371q20 5 39 38l211 -19h58v19q65 -13 153 -19l154 -19l38 19l151 -2l-4 -158l-19 -58q7 -10 7 -20q0 -18 -20 -37l-275 19l-149 -21l-4 -113q13 -76 20 -118q30 -2 58 -2q103 0 171 24l192 -17l15 -71l4 -162l-111 -42 l-61 23l-116 -4l-108 15l-84 -11q-28 -12 -28 -34q0 -10 6 -21l-17 -34q-17 -26 -17 -36q0 -6 6 -6t19 7q23 -24 31 -87l135 -39l57 19l116 -19l38 19h58l57 20l39 -20l-39 -306l-134 38l-58 -19l-134 19l-39 -19h-307q-63 12 -96 57v58h-19zM113 246h19v38h-19v-38z M113 361q7 -19 38 -38q-5 25 -38 38zM113 496q7 -47 38 -96q-6 47 -38 96zM113 764q2 -38 38 -57zM151 1187l19 -58v58h-19zM170 380q35 -43 96 -57zM190 265h19v39h-19v-39zM190 457q32 8 57 39l77 38l-77 58zM190 822l76 38q-7 39 -38 58zM209 188l57 39q-4 25 -38 38z M234 1212q11 -33 52 -44q-10 34 -52 44zM286 246l57 19q-5 26 -38 39zM305 995l41 23l36 34h-58zM324 572l38 -19l20 58h-39zM407 1212q37 -57 109 -83q-43 48 -109 83zM439 1110l19 -77l20 39zM497 92q50 22 57 77zM497 726l19 -38v38h-19zM746 649q6 -25 39 -38 q-7 19 -39 38z" />
<glyph unicode="F" horiz-adv-x="872" d="M36 25l6 335l-2 369l19 211l-19 58l19 57q-2 8 -2 21q0 25 7 70q-18 54 -18 96q0 35 13 63q131 -3 263 -21l121 2l39 -39l57 19h154l19 20l38 -20l73 8l11 -264l-180 7l-172 -19l-58 19l-82 12l-14 -166l38 -57l-30 -5l50 -34l38 -19l96 19h38l212 19l38 -96l2 -181 l-175 9l-192 -20l-57 20l-20 -58l20 -460l-288 -20zM98 191l76 39q-4 25 -38 38zM117 998q16 -46 57 -77q-8 43 -57 77zM155 479l19 -57v57h-19zM155 863q8 -56 39 -115l115 38zM174 1017h96q0 67 -38 134q-18 -65 -58 -134zM194 210h76l-38 135zM232 364l77 -19l-39 77z M251 940q17 -38 58 -58q-13 41 -58 58zM309 671l57 -19l20 58l-20 38l-38 19zM443 594q38 14 39 58zM462 1170q17 -27 58 -38zM539 614h19l77 19l-96 19v-38zM558 1228l20 -58l19 58h-39z" />
<glyph unicode="G" horiz-adv-x="1282" d="M17 655q0 101 20 213l83 178q82 77 142 136l185 107l115 6q35 4 72 4q151 0 350 -61q99 -65 192 -154q-18 -49 -105 -108l-95 -84l-57 38q-70 63 -204 116q-128 -24 -249 -77q-67 -64 -99 -171q-36 -75 -36 -235v-17l27 -44q21 -166 129 -204q46 -46 141 -46q43 0 97 10 q166 38 191 206l-37 7l-156 -9l-96 20l-19 134l10 51l-10 83l164 -5l239 5l241 -33l-19 -231q2 -24 2 -49q0 -68 -12 -147l-154 -173l-230 -115q-104 -17 -193 -17q-162 0 -276 58l-173 115q-68 91 -134 212q-46 127 -46 281zM159 431q6 -33 38 -57zM159 585l57 -58 q-13 41 -57 58zM159 969q8 -38 38 -58q-6 39 -38 58zM216 796l39 -58l19 58h-58zM216 892l19 -38v38h-19zM274 297h38v57h-19zM312 892q3 -27 39 -38q-4 25 -39 38zM331 258q16 -38 58 -57zM389 297q17 -27 58 -39zM466 1199l57 -38q-15 27 -57 38zM677 1238l19 -39v39h-19z M743 601l19 -39v39h-19zM811 1026h39v58h-19zM839 601l57 19q-6 38 -38 58zM858 198l96 -20l38 20q-17 33 -57 57zM869 1142l19 -39v39h-19zM935 543l96 -77l19 -76q33 17 38 57q-2 91 -38 173v-115l-58 96zM984 988l39 19l-20 39zM1127 505q6 -25 38 -39q-6 20 -38 39z M1127 601l19 -39v39h-19z" />
<glyph unicode="H" horiz-adv-x="1261" d="M37 -9l18 115v327l20 211l-20 77l20 57l-31 483l77 39l250 -18l21 -57q-2 -67 -13 -108l22 -300l-38 -96l134 38l230 19q52 -26 126 -26q29 0 61 4l-14 41l-19 58l19 19l-16 84l-18 194l1 109l148 -3l58 19h77l61 -12l-3 -213l-1 -235l-45 -201l45 47l20 -96l-20 -38 l9 -264l11 -178q-13 -40 -13 -74q0 -8 1 -16l-161 13l-163 -15l-9 74q14 7 14 48q0 27 -6 68l10 56l-19 211l2 68l-208 -3q-15 3 -29 3q-28 0 -53 -11l-173 20q-33 -15 -33 -80v-11l14 -178l-2 -92l-1 -136q-5 -26 -39 -37l-169 15zM113 317l19 -57v57h-19zM113 721h38v38 h-19zM113 893l19 -38v38h-19zM151 356l20 -58l19 58h-39zM171 778q34 -43 96 -57l19 57l-96 -19zM267 433l57 -135q-10 74 -57 135zM286 874q20 -61 77 -96zM324 260q6 -25 39 -39q-4 26 -39 39zM324 644l77 -58q-26 43 -77 58zM459 625q8 -38 38 -58q-7 38 -38 58zM459 701 q2 -39 38 -57zM785 625l77 -58q-26 42 -77 58zM939 509l19 -38l115 77q-16 22 -39 22q-38 0 -95 -61zM996 298l96 -57q-33 37 -96 57zM1015 164q20 -31 58 -39zM1015 1162l20 -57v57h-20zM1035 375l19 -58v58h-19zM1073 1105q13 -80 58 -154zM1092 356q6 -35 39 -58 q-8 39 -39 58zM1092 817q8 -20 39 -39l19 19zM1111 433l20 -39v39h-20zM1150 164l19 -39v39h-19z" />
<glyph unicode="I" horiz-adv-x="533" d="M97 141v11l19 153l-19 39v365q18 56 58 115l-58 57l10 354l14 50l168 -20l129 22q28 -2 28 -111q0 -36 -3 -83v-154l-29 4q-9 -12 -9 -24q0 -26 38 -57l-39 -57q29 -76 39 -173v-96q-54 34 -116 38l116 -134l-20 -154l20 -57l1 -168l-21 -62l-72 -12l-120 12l-112 -3 q-22 21 -22 145zM155 382l19 -38l77 77l-58 19zM155 958l38 -19l38 58l-57 38zM174 555q13 -41 57 -58zM193 862q12 -61 58 -115q-7 66 -58 115zM231 94q7 -25 39 -38q-4 25 -39 38zM251 344q4 -57 57 -96q-11 55 -57 96zM270 593l96 39q-15 28 -58 38z" />
<glyph unicode="J" horiz-adv-x="816" d="M17 187l192 154q29 -98 141 -108q73 13 85 125l-20 220l24 166l-26 141l26 109l-20 62l19 58q-15 65 -19 153l59 15l269 -39l-20 -249l20 -192l-20 -58l20 -288q-12 -137 -58 -288l-115 -134q-91 -61 -209 -61q-98 0 -214 41q-80 76 -134 173zM324 149q30 -33 77 -39z M401 149h38l20 38l-39 19zM459 226q56 -31 134 -39zM497 475q14 -41 58 -57q-17 38 -58 57zM497 1051l115 -19q-18 65 -77 96zM535 629l58 19q-2 42 -38 77zM535 878q3 -40 39 -76q-8 44 -39 76zM574 302q25 4 38 39l58 77l-58 19zM574 898q53 43 57 115q-51 -53 -57 -115z M651 264q5 -25 38 -38q-6 19 -38 38zM651 514l57 38l-38 19z" />
<glyph unicode="K" horiz-adv-x="1144" d="M46 -2l14 225l-12 229l19 152l-19 58l19 154q-10 98 -9.5 175t9.5 132l-15 140q32 12 122 12q78 0 200 -9q27 -20 27 -91q0 -38 -8 -91l-16 -217q-8 -40 -8 -81q0 -24 3 -49l116 117l136 115l73 110l2 59l76 118q49 21 148 21l165 -9q6 -15 6 -34q0 -41 -28 -101 q-42 -95 -156 -205l-116 -160q-71 -64 -83 -96q15 -60 95 -130l134 -112q4 -103 120 -217l103 -153l-62 -74l-170 23l-39 -19l-95 2l-108 164l-20 135l-25 -72l-64 102q-50 71 -115 146l-73 81l-32 -25l-5 -111l21 -221l-2 -201l-134 19l-58 -19h-58zM105 681q4 -50 39 -96z M144 240q16 -28 57 -39q-15 28 -57 39zM144 412q34 60 38 135zM163 912l57 57q-4 24 -38 39zM182 1180l19 -38v38h-19zM201 681h77l58 135l-58 38q-54 -72 -77 -173zM259 912q5 -27 38 -39q-6 19 -38 39zM297 220l39 20v38h-20zM297 585q51 9 58 58zM297 1046l39 -19v57h-20 zM547 777l19 -38v38h-19zM566 873q6 -25 38 -38q-6 19 -38 38zM585 796q34 3 39 39zM662 412q54 21 58 77zM662 816q20 -48 34 -48q2 0 4 1q3 2 3 5q0 11 -41 42zM720 950q6 -25 38 -38q-4 25 -38 38zM725 222q14 -101 71 -117q-4 26 -71 117zM758 297l19 -38v38h-19z M758 892q8 -37 38 -57l20 57h-58zM758 1027l19 -58l19 58h-38zM758 1084l19 -38v38h-19zM777 1180q7 -24 39 -38l19 19zM816 182q14 -41 57 -58q-15 41 -57 58zM816 278q38 -31 57 -38l19 76q-38 32 -57 39zM854 1008q6 -25 38 -39q-4 26 -38 39zM931 201q8 -37 38 -57 q-6 38 -38 57zM931 1180q6 -24 38 -38q-4 26 -38 38zM950 124l19 -57v57h-19z" />
<glyph unicode="L" horiz-adv-x="856" d="M21 1213l18 58l152 -29l120 28l74 1v-154l-19 -115l-14 -181q-40 -54 -68 -54q-8 0 -14 4l-58 -153l39 -58l57 154l77 -154l-19 -153l19 -58v-58l24 -28l73 58l232 -18l109 -8l-22 -136l15 -144l-181 -30l-257 42l-304 -42l-36 39l1 191l20 76l-12 70l-3 230l54 74l-43 2 l-12 155zM78 291h38l19 58h-38zM167 80q4 -26 39 -38q-7 19 -39 38zM212 1059q7 -90 77 -153q-14 78 -77 153zM244 119l77 -58l-19 77l19 19l-38 19zM270 1194l19 -39v39h-19zM379 138q53 -55 102 -58zM519 176l20 -38v38h-20zM558 119l57 57l-57 19v-76z" />
<glyph unicode="M" horiz-adv-x="1455" d="M-54 1l20 39q39 134 57 307l134 921h58v20l288 -39q49 -123 96 -307l77 -326q32 -128 63 -171l129 538l96 247l288 58q69 -88 96 -212l134 -940q14 -65 19 -154l-211 19l-96 19q0 91 -9 208q-31 104 -49 272q-8 158 -57 346l-77 77l19 -135l39 20v-39q-45 -113 -58 -249 l-112 -473q-17 -47 -247 -47h-19q-32 -1 -51 174l-75 261l-50 225l-64 119q-4 4 -7 4q-22 0 -28 -167l-19 -288q-13 -140 -77 -308l-268 -38zM100 500q26 -41 76 -57zM157 232q8 -38 39 -58zM157 654q6 -25 39 -38q-7 19 -39 38zM253 520q5 -37 39 -58l19 58h-58zM253 1134 q33 2 39 38zM292 1230l19 -38v38h-19zM368 1153h39v39h-19zM407 1115l19 -39v39h-19zM445 884q22 -40 77 -76q-22 43 -77 76zM541 481q15 -37 32 -38l63 49l-18 47zM541 788q6 -24 39 -38q-4 26 -39 38zM599 654h38v38h-19zM612 443q4 -37 38 -58q-7 39 -38 58zM752 270 l77 -134q-17 72 -77 134zM829 635q33 2 39 38zM848 443l20 -58v58h-20zM848 500l20 -38l20 57q7 7 7 16q0 18 -27 42zM849 233l15 -109l37 69zM1002 1153l19 -57l19 57h-38zM1098 1096l19 -39v39h-19zM1117 865l39 -57l-20 -39l39 -77q41 46 57 116l20 115l-20 38 q-6 19 -38 39zM1117 1019l19 -39v39h-19zM1156 616q5 -25 38 -39q-6 19 -38 39zM1194 539l38 -77l20 77l-39 -19zM1271 673q20 -45 77 -77q-16 50 -77 77zM1290 193l77 -19l-39 211zM1348 558l19 -38v38h-19z" />
<glyph unicode="N" horiz-adv-x="1349" d="M28 34l38 288l-19 288l19 38l-19 211l19 77l-38 288l38 58l346 -11v-26q0 -101 29 -116l67 -20l230 -365q103 -113 173 -269l116 -116q-9 55 -9 89q0 21 4 33q-5 43 -34 129l-19 76l19 212l-24 380q55 8 133 8q55 0 121 -4l58 -39l38 19l-38 -134l19 -38l-19 -154l19 -38 l-19 -442l19 -77l-19 -77l19 -192l19 -38q-132 -73 -307 -96q-73 94 -138 143q-74 139 -169 241l-83 97l-93 153q-27 211 -143 227l12 -247l-1 -306l29 -292l-316 4zM105 782l19 -57l19 38zM105 859q8 -37 38 -57zM143 187q35 23 39 58zM143 648q33 2 39 38zM143 1013 q55 -38 135 -58q-4 80 -58 154zM162 514h39l19 38l-38 19zM201 110h38v58h-19zM220 706l38 -96q10 15 10 30q0 33 -48 66zM239 360q21 -46 77 -58zM278 418q5 -25 38 -39q-4 26 -38 39zM431 1032l19 -38l58 19zM623 571l39 -57q-8 38 -39 57zM777 590h38v58h-19zM911 264 q8 -44 39 -77q-2 42 -39 77zM988 1032l19 -38v38h-19zM1026 840q33 33 39 77zM1046 629q14 -41 57 -58zM1161 245q-7 49 -58 77q-37 35 -37 -8q0 -45 95 -69zM1142 168q23 -50 76 -58zM1142 878q54 44 57 116q-45 -43 -57 -116zM1161 610l38 19l-19 38zM1199 667l39 -19 l19 38l-39 39z" />
<glyph unicode="O" horiz-adv-x="1391" d="M19 540l19 192l19 58q32 122 135 230q70 103 192 192l288 77q148 -26 307 -77q110 -61 230 -153l135 -231l38 -192l-38 -57q-10 -140 -58 -288q-73 -97 -173 -192l-249 -134q-52 5 -88 5q-60 0 -74 -13l-88 8q-137 37 -269 114q-105 72 -192 173l-115 211zM115 636 q6 -25 38 -38l20 19zM192 310q65 43 77 115zM192 790q40 25 77 77l19 -77l38 57q-6 58 -57 96zM230 655q-5 -1 -5 -2q0 -5 91 -20l-28 -35q80 -41 80 -94q0 -10 -3 -21l147 -173q51 -65 101 -65h3l103 -8l38 19l119 44q89 55 141 144l20 192q0 75 -39 154l-57 173l-112 40 q-42 21 -84 21q-34 0 -68 -14l-107 -38q-97 -64 -148 -144q-41 -74 -57 -173l-77 20zM269 233q36 32 38 77zM269 502l76 -58q-25 43 -76 58zM307 214q8 -38 38 -58zM365 1097q8 -38 38 -58zM518 1135l39 20l-39 19v-39zM576 1078l19 -39v39h-19zM633 1193q24 -54 77 -96 q-18 62 -77 96zM710 79l58 -19l38 96h-57zM710 1251q7 -20 39 -39q-5 26 -39 39zM768 1231l19 -38v38h-19zM979 1039q34 -42 96 -76l38 57zM1037 406l19 -96q49 5 96 38zM1075 521q6 -25 38 -38q-6 19 -38 38zM1094 636q9 -48 58 -77q-15 47 -58 77zM1094 905q28 -52 96 -77 q-33 49 -96 77zM1152 540l19 -38l77 38l-58 39q-7 -22 -38 -39z" />
<glyph unicode="P" horiz-adv-x="1019" d="M33 1223l19 57l263 -1q68 9 124 9q95 0 151 -27h57q135 -35 250 -153q64 -114 96 -250l-19 -230l-39 -39q-88 -108 -249 -153l-115 19l-39 -39l-170 20l12 -232l-11 -205l-196 -5h-4q-61 0 -113 25l5 157l-3 144v404q11 88 18 142l-18 50zM110 1050q37 16 38 58zM129 954 l19 -38v38h-19zM187 1069q12 -88 57 -192v96l39 -57q-35 85 -96 153zM206 800l57 -38q-3 55 -38 96zM244 148l19 -39v39h-19zM340 1088l96 -19l39 19q-18 28 -58 39zM359 704l105 -43q111 18 222 139l16 60l-38 78q-110 56 -285 74zM475 589q25 -37 76 -38zM513 1184 q16 -55 77 -76zM667 628l57 38q-6 19 -38 38zM743 685l20 -38v38h-20zM782 685l19 -38v38h-19zM820 589l58 -19l-19 77zM878 781q49 21 57 77z" />
<glyph unicode="Q" horiz-adv-x="1347" d="M25 654q0 130 47 283q83 121 230 230q108 79 329 130l247 -34q137 -54 288 -173q49 -105 122 -256l38 -96l-19 -211q-45 -152 -141 -301q32 -105 58 -105q2 0 5 1l113 -155l-272 -108q2 24 -96 156q-108 -42 -183 -42q-25 0 -47 5q-375 18 -442 133l-192 134 q-59 135 -81 331q-4 38 -4 78zM91 821l39 -57l19 57h-58zM149 898q6 -25 38 -38q-6 19 -38 38zM168 821l19 -38v38h-19zM226 917q59 13 76 77q-34 -25 -76 -77zM322 457l19 -39v39h-19zM322 629l76 -249l34 -87l173 -38q64 7 134 38l-105 141l217 120l136 -145l26 182l19 58 q-16 64 -58 134l39 19q-25 49 -77 96l-134 115l-192 20l-154 -77l-96 -173zM475 188l19 -39v39h-19zM490 255l43 -86l-24 86h-19zM552 1071h38l20 58h-39zM667 1129l19 -58v58h-19zM802 399q8 -44 38 -77q-6 41 -38 77zM802 1167q35 23 38 58zM859 188q31 -64 96 -96 q-36 53 -96 96zM898 1148q32 -31 76 -39zM1032 380q8 -38 38 -58q-6 39 -38 58zM1051 668l19 -58v58h-19zM1070 533l20 -57l19 38zM1090 361l38 -58q-7 37 -38 58zM1090 437q41 -47 96 -57zM1090 937h57q-4 43 -38 76zM1128 898q26 -72 96 -115q-34 62 -96 115zM1224 -22 l19 -58v58h-19z" />
<glyph unicode="R" horiz-adv-x="1015" d="M30 1243l115 38l140 -24l206 24q165 -25 345 -96l116 -134q31 -79 31 -162q0 -73 -24 -149l-35 -70q-35 -70 -107 -99q-59 -53 -77 -135l235 -391l-30 -39l-63 9l-57 -26l-69 18l-92 -12l-135 288q-50 63 -89 96l-38 74l-64 29l-4 -52l-16 -90q30 -61 38 -134l10 -213 l-258 21l-60 -16l1 400v134l19 77l-19 192l19 134l-19 39zM126 302q14 -41 58 -58q-16 39 -58 58zM164 148q46 15 77 58l-38 38zM164 532q15 -41 58 -57zM203 590l77 -39l19 77l-58 19zM203 1031h57l20 58l-58 19zM241 1204l19 -38v38h-19zM299 916l42 -38l-4 -135 q36 -71 115 -96q88 15 173 77l96 173l-210 144h-135q-60 -34 -77 -125zM568 302l57 -19l19 19q-1 90 -38 192zM606 628l38 19v39h-19zM702 340q32 -69 96 -134q-22 76 -96 134zM721 839q23 -64 77 -115l58 58zM836 839h39l-19 39z" />
<glyph unicode="S" horiz-adv-x="933" d="M15 196l96 173q68 -23 134 -77q62 -49 154 -76l192 38l77 -19v38l-77 19l58 39l-39 115l-115 58q-27 54 -77 96l-57 -39l-192 77l-116 154l-19 115l19 38q16 90 58 173l115 115l173 77l250 -19l134 -58l58 -38q-9 -68 -39 -135l-38 -96q-51 12 -96 58l-211 38l-116 58 l58 -115l-58 -39q42 -85 116 -153l172 -39q92 -37 173 -96q51 -63 96 -153l19 -154l-19 -38l-57 -173l-135 -96l-192 -96l-192 20q-101 26 -211 76q-68 51 -96 134zM130 945l19 -19l58 38l-58 20zM149 830l77 38l39 77l-39 19zM188 811l57 -58q-13 42 -57 58zM188 1060 l19 -38v38h-19zM207 196l19 -38v38h-19zM284 926l38 19l-38 19v-38zM322 81l58 39l-39 76zM341 62l20 -38v38h-20zM341 792q6 -25 39 -39q-5 26 -39 39zM380 1214q5 -37 38 -58zM399 120l38 -58q-7 38 -38 58zM476 1156q5 -24 38 -38q-5 26 -38 38zM476 1272q14 -38 57 -39z M533 734l20 -58l19 39zM591 1176l58 -20l19 39l-39 38zM629 139l58 19q-7 38 -38 58zM668 619q17 -71 77 -135zM725 331l39 -58q-7 39 -39 58zM745 235q7 -19 38 -39l19 20z" />
<glyph unicode="T" horiz-adv-x="946" d="M8 1194q0 69 11 90l321 -10l38 -58l20 39l191 5h57v19l20 -19l57 -20v39l135 -19h57l19 -96l-19 -192l-96 -20l-57 39q-84 -7 -173 -58l19 115l-58 -134q43 -3 77 -38l-19 -77l19 -634l7 -155l-180 -16l-116 19l-38 -19l-19 154l38 57l-18 152l-19 192l38 115l-38 20 l38 192q3 22 3 38q0 35 -13 46l-35 23l-253 -9q-14 141 -14 220zM70 1144l20 -38v38h-20zM282 1125l19 -38v38h-19zM320 703l58 -58q-13 42 -58 58zM320 1068q28 -15 77 -20l57 77l-57 19q-45 -20 -77 -76zM358 607l20 -58v58h-20zM397 876q6 -32 38 -58l19 58h-57zM415 167 l58 -96q-8 59 -58 96zM416 511q51 -44 134 -58zM493 780q16 -35 57 -39zM550 319l20 -58v58h-20zM550 415l20 -39v39h-20zM742 1106l20 -38v38h-20z" />
<glyph unicode="U" horiz-adv-x="1203" d="M29 1296q111 -19 250 -19q83 -11 115 -116v-268l-19 -135l19 -38l-19 -192l19 -77l-77 -192l58 -19l-20 -39l20 -19l57 39q-2 26 -38 38l19 77l-19 38l96 -96l57 -38l173 38q71 42 115 135q8 75 39 153l-39 39l39 192l-39 115l39 38l-19 192l-39 135l96 19l19 -19l154 19 l58 -19l38 -250q-9 -98 -58 -211l58 -154q-2 -126 -38 -269l-39 -230l-173 -134l-403 -58l-57 20q-109 26 -231 76l-134 173q-49 212 -49 295q0 15 1 25q9 64 9 175v23zM106 758l38 -57l77 57h-115zM125 854q35 43 38 96zM183 1046q14 -41 57 -57q-15 40 -57 57zM202 893 l77 -20l-20 96zM240 201q8 -37 39 -57zM298 893l57 -58q-16 38 -57 58zM317 1104h38v57h-19zM432 144q8 -44 39 -77l19 58zM567 182q7 -19 38 -38l19 19zM701 201h58q-8 39 -39 58zM778 86l19 -38v38h-19zM855 48h38v57h-19zM855 317q28 -68 115 -116q-32 72 -115 116z M874 374h38v39h-19zM893 585q8 -37 38 -57zM970 393q5 -19 38 -38l19 115q-6 19 -38 39zM970 681l38 -57q-7 38 -38 57zM1008 1142l58 58l-58 19v-77zM1027 931h96l20 58h-58zM1066 605l38 19v38h-19z" />
<glyph unicode="V" horiz-adv-x="1108" d="M-47 1270v2l101 12l205 3l16 -58q33 -103 66 -198l38 -192q40 -67 77 -154q24 -90 49 -185l23 -48l20 -44l207 611q27 101 81 225l135 19l57 -19l132 36l-18 -98l-59 -168q-103 -273 -175 -360q-7 -92 -38 -192l-154 -346q-32 -81 -119 -122l-154 -20l-38 20l-74 203 q-56 23 -208 550q-88 279 -130 378q-40 79 -40 145zM44 1134q8 -38 39 -58zM102 1134q8 -19 38 -38q-4 25 -38 38zM179 1096l38 -20l19 58h-38zM379 647l20 -39v39h-20zM390 232q7 -48 38 -96q-5 46 -38 96zM467 289q8 -93 57 -173q28 50 77 96l-19 -76l38 -20 q-7 82 -57 154l-58 -77q-2 51 -38 96zM524 366q8 -38 39 -58q-7 39 -39 58zM601 385l38 -115l58 115q-6 19 -38 39zM620 520q7 -25 39 -39q-4 26 -39 39zM793 980l96 -38l19 58l-38 38zM889 1153l58 -38q-16 28 -58 38zM966 1153q13 -38 57 -38zM1023 1076l39 -19l19 58h-38 z" />
<glyph unicode="W" horiz-adv-x="1654" d="M-44 1270l77 40l95 15l113 -17h10q60 0 90 -23q19 -175 56 -270l-19 -60l38 -137q-54 -45 -115 -59l96 -59l77 -98q-18 -27 -58 -39l77 -80l77 119l139 625q20 66 83 66q13 0 27 -3l154 -20l57 -157l20 -138l76 -176l20 -138q-39 16 -58 58q10 -68 58 -137 q-30 -18 -39 -59l135 -118l-20 -59h39l77 40q-20 53 -77 78q-14 67 -19 157l19 59l38 217l77 177l-19 58l38 138l85 20l69 -20l153 20l39 -20l-58 -177q-29 -62 -38 -138q-31 -8 -58 -39h58l-19 -19l-58 -98l19 -119l-19 -39l-58 -20l20 -98l-77 -177l-39 -216 q-16 -77 -57 -157l-39 -20l-96 20l-38 -20v20q-87 23 -117 42l-34 56l-3 118q-43 67 -57 157l-96 373l-135 -19q-56 -41 -115 -118l211 98l-171 -692q-6 4 -18 4q-26 0 -79 -19h-154l-38 -20l-20 20l-134 373l-19 137l77 -19q28 77 38 177l-77 39l-19 -39l19 -20l39 -98 l-77 -20l-96 296l19 58l-76 118q-14 88 -57 197zM147 1172l19 -20l58 39l-58 20zM301 405l19 -59v59h-19zM454 111l58 -60l38 60l-57 -20zM550 248q16 -47 58 -79q-7 50 -58 79zM589 386l38 -59l19 59h-57zM819 1054l19 -99l58 99h-77zM1069 307q67 25 115 79l-96 19z M1146 248l19 -118q50 34 115 39l-96 118zM1261 307q9 -45 38 -79l19 59zM1280 150l19 -39v39h-19zM1357 189q8 -20 38 -39l19 19zM1587 1074l19 -39v39h-19z" />
<glyph unicode="X" horiz-adv-x="1163" d="M-10 36l116 179l264 426l-241 445l-125 175l44 23l240 -15q25 4 46 4q62 0 90 -33l58 -173q37 -56 38 -134l31 -76l62 -81l37 69q1 7 1 14q0 27 -15 55l134 307l68 45l124 13h173q-3 -60 -39 -116q-27 -72 -76 -153l-212 -288q-56 -32 -96 -96l77 38l19 -57l96 -135 q40 -65 105 -137l107 -132q44 -71 44 -164v-12q-8 -28 -102 -34l-154 -20l-38 20q-42 80 -78 156l-95 150l-38 173l-192 183l-19 -2q14 -42 76 -142l96 -39l-96 -153q-55 -88 -134 -173l-86 -154l-68 1l-192 -4zM194 88l19 -57v57h-19zM232 280l39 -57q-7 38 -39 57z M232 1048q49 11 58 58zM309 184l19 -38v38h-19zM328 376l77 -19l58 58l-77 57zM348 933l19 -38v38h-19zM367 1048q15 -42 57 -77q-14 46 -57 77zM732 837l134 96l-58 19q-48 -41 -76 -115zM751 991l57 19l39 77l-39 19zM866 280q10 -48 58 -77q-8 44 -58 77z" />
<glyph unicode="Y" horiz-adv-x="960" d="M-61 1293l55 -10l38 4l201 8l125 -277q51 -90 77 -192l96 96q46 143 154 269l19 96l193 12l137 -15q-12 -101 -81 -209l-192 -268l-134 -269l19 -58l-19 -173q-41 41 -96 58q62 -96 115 -230l-38 -154q-103 9 -211 38l-116 -19l39 135l-19 115l38 230q-44 146 -154 288 q-72 113 -134 288q-46 21 -112 237zM205 883q16 -27 57 -38zM243 1095l38 -20v58h-19zM320 711l77 19q0 49 -39 77zM358 615q35 -44 96 -58zM397 365q16 -27 57 -38q-16 28 -57 38zM397 672q43 -49 96 -77q-32 50 -96 77zM397 711l57 -20l39 116zM512 192l38 -19l19 58h-38z M569 845l20 -38v38h-20zM627 903l38 -20l58 39l-58 19zM665 1095q16 -56 58 -96q-7 54 -58 96zM819 1114q10 -43 58 -77q-15 46 -58 77z" />
<glyph unicode="Z" horiz-adv-x="1057" d="M15 93v9l7 78q127 130 186 222l96 172l153 154l77 173l154 57l-77 58l-192 -19l-58 19l-230 -19l-77 19l-4 250l196 19l211 -19q133 12 222 12q112 0 154 -19l80 16q66 -1 70 -35l21 -197l-79 -112l-103 -145l-35 -72q-53 -9 -53 -36q0 -12 11 -27q-58 -73 -115 -173 q-53 -45 -153 -211l19 -19l156 26q246 0 349 15l26 -95q6 -52 6 -92q0 -81 -24 -108l-316 20l-64 -17l-325 2l-132 -12q-22 -2 -41 -2q-116 0 -116 108zM150 210q26 -55 96 -77zM246 267l96 19l-38 77zM285 1112l19 -38v38h-19zM361 171l58 -96q-8 60 -58 96zM381 478 l19 -38v38h-19zM400 248q37 -50 96 -96q-31 62 -96 96zM400 421q17 -51 77 -77q-20 48 -77 77zM438 651q19 -26 58 -38q-15 28 -58 38zM477 1208q89 -85 211 -154q-86 90 -211 154zM515 632l19 -38v38h-19zM534 94l19 -38v38h-19zM649 94h39l19 58h-38zM707 1074l19 -39 l77 19zM745 171q7 -25 39 -38q-4 25 -39 38zM745 882l135 96l-77 19q-52 -51 -58 -115z" />
<glyph unicode="[" horiz-adv-x="569" />
<glyph unicode="\" horiz-adv-x="569" />
<glyph unicode="]" horiz-adv-x="569" />
<glyph unicode="^" horiz-adv-x="961" />
<glyph unicode="_" horiz-adv-x="1139" />
<glyph unicode="`" horiz-adv-x="650" d="M105 1763l51 19l41 5l28 -10l105 25l160 -333l-22 -43q-17 -1 -34 -1q-59 0 -116 11l-70 140l-93 98q-25 53 -50 89z" />
<glyph unicode="a" d="M-48 10l18 38q23 131 58 180l58 204l132 320q47 104 79 237q34 147 79 223t146 107l216 -42l107 -14l28 -178l115 -269q36 -141 115 -307l77 -326q46 -60 46 -162v-13l-101 -5q-109 0 -208 1l-29 123l-50 97l-179 2l-324 -5q-24 -120 -46 -185q3 -55 -67 -55 q-36 0 -90 14l-142 -3zM105 125h77l38 96l-58 19zM201 490l38 19l-38 19v-38zM220 336q14 -40 58 -57zM239 375l115 57q17 -27 58 -38l-8 81l8 72l-58 20l-19 -116q-12 41 -57 58zM354 1027q14 -36 58 -38zM438 482l117 45l58 -62l46 20l67 -1l70 7l-27 113l-69 193 q-10 89 -43 144l-27 67l-39 23l-71 -274l-69 -6zM470 931h38v58h-19zM489 375q39 -41 96 -58q-39 42 -96 58zM719 989q6 -25 39 -38q-4 25 -39 38zM738 855q34 -64 116 -116q-37 64 -116 116zM738 1200h39v39h-19zM777 1104l19 -38v38h-19zM830 577q70 -66 116 -173l38 77 q-69 59 -154 96zM892 413l19 -38v38h-19zM911 759q8 -38 39 -58q-8 38 -39 58zM930 267q96 -4 196 -73q-53 119 -147 219z" />
<glyph unicode="b" horiz-adv-x="1072" d="M34 665l19 288l-19 39l10 286l96 39q152 -7 346 -39l250 19l104 -64q88 -100 153 -231q-3 -148 -115 -269q-59 12 -115 58l42 -134l47 -16l-27 72q135 -125 207 -210l19 -211l-77 -115q-98 -109 -269 -154l-158 6q-167 -56 -365 -58l-77 20l-53 -6zM148 157h39l-19 58z M148 253h116q-33 64 -96 116zM206 445l19 -57l19 57h-38zM244 1175l20 -58l19 58h-39zM264 561l38 19l-19 19zM264 791l19 -38v38h-19zM264 868l19 -58v58h-19zM283 1117q21 -30 57 -38zM308 1002v-12q0 -144 24 -210l162 -47l173 96l57 -38l39 58l-39 19l-57 77l77 -20 q-28 126 -117 153l-152 20q-62 -49 -136 -64zM324 293l16 -97l24 60l34 -3l173 -19l153 115l20 154l-20 38l-153 20l-58 -20l-118 51q-57 -11 -57 -69q0 -10 2 -20l20 -192zM398 196q15 -46 58 -77q-18 46 -58 77zM552 196l19 -58l19 58h-38zM705 657l19 -39v39h-19z M724 196l39 19l-39 19v-38zM763 292l57 -19l20 57l-58 19zM801 829q15 -40 58 -57q-14 41 -58 57zM840 177q27 -36 76 -39zM840 426q16 -37 57 -57q-14 40 -57 57z" />
<glyph unicode="c" horiz-adv-x="1049" d="M16 678l58 192q32 91 96 172l134 135l115 57q22 -7 39 -38q64 53 153 96l211 -19q76 -27 154 -77l38 -173q-8 -77 -57 -153l-135 115l-96 19l-38 -19h-38q-84 -26 -173 -77l-115 -134l-58 -39l38 -96l39 -173l115 -153q89 -41 192 -58l-7 -77q39 7 57 39q120 57 180 96 q35 45 96 77l-19 -77l19 -154l-19 -57q-39 -61 -115 -114l-192 -20q-88 17 -192 57l-77 -57l-19 76l19 19q-84 12 -173 58l-134 134l-38 115l96 20l57 38q-9 44 -38 96l-19 -77l-77 -57l-58 38zM93 716l57 -38q-16 28 -57 38zM189 793q8 -38 38 -58q-7 39 -38 58zM246 486 l77 19l-38 19zM285 332q42 27 57 77zM342 274l20 -38v38h-20zM381 198l19 -39v39h-19zM400 332q17 -27 58 -38zM496 1177q5 -36 38 -58zM515 140q6 -25 39 -38q-5 25 -39 38zM592 25l19 -37v37h-19zM611 121q15 -46 58 -77zM611 1215l58 -38q-16 28 -58 38z" />
<glyph unicode="d" horiz-adv-x="1250" d="M54 98l19 19l-1 276l1 684l-19 154l38 58l212 -20l57 20l91 15l148 -14q124 -16 184 -78q119 -22 230 -96l154 -192l57 -192l-38 -58l19 -249l-134 -212l-192 -153l-288 -58h-346l-96 -19l-38 19h-39zM131 463l19 -77l19 58zM131 521l38 -39l-19 77zM131 751l19 -38v38 h-19zM188 597q15 -40 58 -57q-16 38 -58 57zM188 943h39v38h-19zM208 1020l76 -19l39 57l57 -38l20 38l-77 77q-63 -38 -115 -115zM227 233q4 -27 38 -39q-6 19 -38 39zM227 425l96 -58q-35 44 -96 58zM227 828q34 -58 96 -96zM284 578l39 -19v58h-19zM284 905l20 -39v39 h-20zM304 674l19 -38v38h-19zM342 271q6 -53 38 -58zM361 693q15 -52 58 -96q-5 -112 -39 -230l77 -96l192 19l154 77l77 192l57 38l-57 20v192l38 76l77 -57q45 16 77 57l-173 39l-39 -58l-134 77q-52 60 -134 115l-77 -57l-39 38l-115 -96l58 -211zM419 1116h38v57h-19z M496 194l19 -38v38h-19zM764 271q8 -38 39 -58zM880 1135l19 -38v38h-19zM899 290l19 -38v38h-19zM918 463q34 -49 96 -77q-38 51 -96 77zM976 309q7 -19 38 -38l19 19zM976 789q7 -19 38 -38l19 19zM995 597q57 -47 134 -57zM1033 693l19 -38v38h-19zM1129 751 q6 -26 39 -38q-7 19 -39 38z" />
<glyph unicode="e" horiz-adv-x="886" d="M36 112l14 156l5 189l2 141l-2 90l19 192l-32 371q20 5 39 38l211 -19h58v19q65 -13 153 -19l154 -19l38 19l151 -2l-4 -158l-19 -58q7 -10 7 -20q0 -18 -20 -37l-275 19l-149 -21l-4 -113q13 -76 20 -118q30 -2 58 -2q103 0 171 24l192 -17l15 -71l4 -162l-111 -42 l-61 23l-116 -4l-108 15l-84 -11q-28 -12 -28 -34q0 -10 6 -21l-17 -34q-17 -26 -17 -36q0 -6 6 -6t19 7q23 -24 31 -87l135 -39l57 19l116 -19l38 19h58l57 20l39 -20l-39 -306l-134 38l-58 -19l-134 19l-39 -19h-307q-63 12 -96 57v58h-19zM113 246h19v38h-19v-38z M113 361q7 -19 38 -38q-5 25 -38 38zM113 496q7 -47 38 -96q-6 47 -38 96zM113 764q2 -38 38 -57zM151 1187l19 -58v58h-19zM170 380q35 -43 96 -57zM190 265h19v39h-19v-39zM190 457q32 8 57 39l77 38l-77 58zM190 822l76 38q-7 39 -38 58zM209 188l57 39q-4 25 -38 38z M234 1212q11 -33 52 -44q-10 34 -52 44zM286 246l57 19q-5 26 -38 39zM305 995l41 23l36 34h-58zM324 572l38 -19l20 58h-39zM407 1212q37 -57 109 -83q-43 48 -109 83zM439 1110l19 -77l20 39zM497 92q50 22 57 77zM497 726l19 -38v38h-19zM746 649q6 -25 39 -38 q-7 19 -39 38z" />
<glyph unicode="f" horiz-adv-x="872" d="M36 25l6 335l-2 369l19 211l-19 58l19 57q-2 8 -2 21q0 25 7 70q-18 54 -18 96q0 35 13 63q131 -3 263 -21l121 2l39 -39l57 19h154l19 20l38 -20l73 8l11 -264l-180 7l-172 -19l-58 19l-82 12l-14 -166l38 -57l-30 -5l50 -34l38 -19l96 19h38l212 19l38 -96l2 -181 l-175 9l-192 -20l-57 20l-20 -58l20 -460l-288 -20zM98 191l76 39q-4 25 -38 38zM117 998q16 -46 57 -77q-8 43 -57 77zM155 479l19 -57v57h-19zM155 863q8 -56 39 -115l115 38zM174 1017h96q0 67 -38 134q-18 -65 -58 -134zM194 210h76l-38 135zM232 364l77 -19l-39 77z M251 940q17 -38 58 -58q-13 41 -58 58zM309 671l57 -19l20 58l-20 38l-38 19zM443 594q38 14 39 58zM462 1170q17 -27 58 -38zM539 614h19l77 19l-96 19v-38zM558 1228l20 -58l19 58h-39z" />
<glyph unicode="g" horiz-adv-x="1282" d="M17 655q0 101 20 213l83 178q82 77 142 136l185 107l115 6q35 4 72 4q151 0 350 -61q99 -65 192 -154q-18 -49 -105 -108l-95 -84l-57 38q-70 63 -204 116q-128 -24 -249 -77q-67 -64 -99 -171q-36 -75 -36 -235v-17l27 -44q21 -166 129 -204q46 -46 141 -46q43 0 97 10 q166 38 191 206l-37 7l-156 -9l-96 20l-19 134l10 51l-10 83l164 -5l239 5l241 -33l-19 -231q2 -24 2 -49q0 -68 -12 -147l-154 -173l-230 -115q-104 -17 -193 -17q-162 0 -276 58l-173 115q-68 91 -134 212q-46 127 -46 281zM159 431q6 -33 38 -57zM159 585l57 -58 q-13 41 -57 58zM159 969q8 -38 38 -58q-6 39 -38 58zM216 796l39 -58l19 58h-58zM216 892l19 -38v38h-19zM274 297h38v57h-19zM312 892q3 -27 39 -38q-4 25 -39 38zM331 258q16 -38 58 -57zM389 297q17 -27 58 -39zM466 1199l57 -38q-15 27 -57 38zM677 1238l19 -39v39h-19z M743 601l19 -39v39h-19zM811 1026h39v58h-19zM839 601l57 19q-6 38 -38 58zM858 198l96 -20l38 20q-17 33 -57 57zM869 1142l19 -39v39h-19zM935 543l96 -77l19 -76q33 17 38 57q-2 91 -38 173v-115l-58 96zM984 988l39 19l-20 39zM1127 505q6 -25 38 -39q-6 20 -38 39z M1127 601l19 -39v39h-19z" />
<glyph unicode="h" horiz-adv-x="1261" d="M37 -9l18 115v327l20 211l-20 77l20 57l-31 483l77 39l250 -18l21 -57q-2 -67 -13 -108l22 -300l-38 -96l134 38l230 19q52 -26 126 -26q29 0 61 4l-14 41l-19 58l19 19l-16 84l-18 194l1 109l148 -3l58 19h77l61 -12l-3 -213l-1 -235l-45 -201l45 47l20 -96l-20 -38 l9 -264l11 -178q-13 -40 -13 -74q0 -8 1 -16l-161 13l-163 -15l-9 74q14 7 14 48q0 27 -6 68l10 56l-19 211l2 68l-208 -3q-15 3 -29 3q-28 0 -53 -11l-173 20q-33 -15 -33 -80v-11l14 -178l-2 -92l-1 -136q-5 -26 -39 -37l-169 15zM113 317l19 -57v57h-19zM113 721h38v38 h-19zM113 893l19 -38v38h-19zM151 356l20 -58l19 58h-39zM171 778q34 -43 96 -57l19 57l-96 -19zM267 433l57 -135q-10 74 -57 135zM286 874q20 -61 77 -96zM324 260q6 -25 39 -39q-4 26 -39 39zM324 644l77 -58q-26 43 -77 58zM459 625q8 -38 38 -58q-7 38 -38 58zM459 701 q2 -39 38 -57zM785 625l77 -58q-26 42 -77 58zM939 509l19 -38l115 77q-16 22 -39 22q-38 0 -95 -61zM996 298l96 -57q-33 37 -96 57zM1015 164q20 -31 58 -39zM1015 1162l20 -57v57h-20zM1035 375l19 -58v58h-19zM1073 1105q13 -80 58 -154zM1092 356q6 -35 39 -58 q-8 39 -39 58zM1092 817q8 -20 39 -39l19 19zM1111 433l20 -39v39h-20zM1150 164l19 -39v39h-19z" />
<glyph unicode="i" horiz-adv-x="533" d="M97 141v11l19 153l-19 39v365q18 56 58 115l-58 57l10 354l14 50l168 -20l129 22q28 -2 28 -111q0 -36 -3 -83v-154l-29 4q-9 -12 -9 -24q0 -26 38 -57l-39 -57q29 -76 39 -173v-96q-54 34 -116 38l116 -134l-20 -154l20 -57l1 -168l-21 -62l-72 -12l-120 12l-112 -3 q-22 21 -22 145zM155 382l19 -38l77 77l-58 19zM155 958l38 -19l38 58l-57 38zM174 555q13 -41 57 -58zM193 862q12 -61 58 -115q-7 66 -58 115zM231 94q7 -25 39 -38q-4 25 -39 38zM251 344q4 -57 57 -96q-11 55 -57 96zM270 593l96 39q-15 28 -58 38z" />
<glyph unicode="j" horiz-adv-x="816" d="M17 187l192 154q29 -98 141 -108q73 13 85 125l-20 220l24 166l-26 141l26 109l-20 62l19 58q-15 65 -19 153l59 15l269 -39l-20 -249l20 -192l-20 -58l20 -288q-12 -137 -58 -288l-115 -134q-91 -61 -209 -61q-98 0 -214 41q-80 76 -134 173zM324 149q30 -33 77 -39z M401 149h38l20 38l-39 19zM459 226q56 -31 134 -39zM497 475q14 -41 58 -57q-17 38 -58 57zM497 1051l115 -19q-18 65 -77 96zM535 629l58 19q-2 42 -38 77zM535 878q3 -40 39 -76q-8 44 -39 76zM574 302q25 4 38 39l58 77l-58 19zM574 898q53 43 57 115q-51 -53 -57 -115z M651 264q5 -25 38 -38q-6 19 -38 38zM651 514l57 38l-38 19z" />
<glyph unicode="k" horiz-adv-x="1144" d="M46 -2l14 225l-12 229l19 152l-19 58l19 154q-10 98 -9.5 175t9.5 132l-15 140q32 12 122 12q78 0 200 -9q27 -20 27 -91q0 -38 -8 -91l-16 -217q-8 -40 -8 -81q0 -24 3 -49l116 117l136 115l73 110l2 59l76 118q49 21 148 21l165 -9q6 -15 6 -34q0 -41 -28 -101 q-42 -95 -156 -205l-116 -160q-71 -64 -83 -96q15 -60 95 -130l134 -112q4 -103 120 -217l103 -153l-62 -74l-170 23l-39 -19l-95 2l-108 164l-20 135l-25 -72l-64 102q-50 71 -115 146l-73 81l-32 -25l-5 -111l21 -221l-2 -201l-134 19l-58 -19h-58zM105 681q4 -50 39 -96z M144 240q16 -28 57 -39q-15 28 -57 39zM144 412q34 60 38 135zM163 912l57 57q-4 24 -38 39zM182 1180l19 -38v38h-19zM201 681h77l58 135l-58 38q-54 -72 -77 -173zM259 912q5 -27 38 -39q-6 19 -38 39zM297 220l39 20v38h-20zM297 585q51 9 58 58zM297 1046l39 -19v57h-20 zM547 777l19 -38v38h-19zM566 873q6 -25 38 -38q-6 19 -38 38zM585 796q34 3 39 39zM662 412q54 21 58 77zM662 816q20 -48 34 -48q2 0 4 1q3 2 3 5q0 11 -41 42zM720 950q6 -25 38 -38q-4 25 -38 38zM725 222q14 -101 71 -117q-4 26 -71 117zM758 297l19 -38v38h-19z M758 892q8 -37 38 -57l20 57h-58zM758 1027l19 -58l19 58h-38zM758 1084l19 -38v38h-19zM777 1180q7 -24 39 -38l19 19zM816 182q14 -41 57 -58q-15 41 -57 58zM816 278q38 -31 57 -38l19 76q-38 32 -57 39zM854 1008q6 -25 38 -39q-4 26 -38 39zM931 201q8 -37 38 -57 q-6 38 -38 57zM931 1180q6 -24 38 -38q-4 26 -38 38zM950 124l19 -57v57h-19z" />
<glyph unicode="l" horiz-adv-x="856" d="M21 1213l18 58l152 -29l120 28l74 1v-154l-19 -115l-14 -181q-40 -54 -68 -54q-8 0 -14 4l-58 -153l39 -58l57 154l77 -154l-19 -153l19 -58v-58l24 -28l73 58l232 -18l109 -8l-22 -136l15 -144l-181 -30l-257 42l-304 -42l-36 39l1 191l20 76l-12 70l-3 230l54 74l-43 2 l-12 155zM78 291h38l19 58h-38zM167 80q4 -26 39 -38q-7 19 -39 38zM212 1059q7 -90 77 -153q-14 78 -77 153zM244 119l77 -58l-19 77l19 19l-38 19zM270 1194l19 -39v39h-19zM379 138q53 -55 102 -58zM519 176l20 -38v38h-20zM558 119l57 57l-57 19v-76z" />
<glyph unicode="m" horiz-adv-x="1455" d="M-54 1l20 39q39 134 57 307l134 921h58v20l288 -39q49 -123 96 -307l77 -326q32 -128 63 -171l129 538l96 247l288 58q69 -88 96 -212l134 -940q14 -65 19 -154l-211 19l-96 19q0 91 -9 208q-31 104 -49 272q-8 158 -57 346l-77 77l19 -135l39 20v-39q-45 -113 -58 -249 l-112 -473q-17 -47 -247 -47h-19q-32 -1 -51 174l-75 261l-50 225l-64 119q-4 4 -7 4q-22 0 -28 -167l-19 -288q-13 -140 -77 -308l-268 -38zM100 500q26 -41 76 -57zM157 232q8 -38 39 -58zM157 654q6 -25 39 -38q-7 19 -39 38zM253 520q5 -37 39 -58l19 58h-58zM253 1134 q33 2 39 38zM292 1230l19 -38v38h-19zM368 1153h39v39h-19zM407 1115l19 -39v39h-19zM445 884q22 -40 77 -76q-22 43 -77 76zM541 481q15 -37 32 -38l63 49l-18 47zM541 788q6 -24 39 -38q-4 26 -39 38zM599 654h38v38h-19zM612 443q4 -37 38 -58q-7 39 -38 58zM752 270 l77 -134q-17 72 -77 134zM829 635q33 2 39 38zM848 443l20 -58v58h-20zM848 500l20 -38l20 57q7 7 7 16q0 18 -27 42zM849 233l15 -109l37 69zM1002 1153l19 -57l19 57h-38zM1098 1096l19 -39v39h-19zM1117 865l39 -57l-20 -39l39 -77q41 46 57 116l20 115l-20 38 q-6 19 -38 39zM1117 1019l19 -39v39h-19zM1156 616q5 -25 38 -39q-6 19 -38 39zM1194 539l38 -77l20 77l-39 -19zM1271 673q20 -45 77 -77q-16 50 -77 77zM1290 193l77 -19l-39 211zM1348 558l19 -38v38h-19z" />
<glyph unicode="n" horiz-adv-x="1349" d="M28 34l38 288l-19 288l19 38l-19 211l19 77l-38 288l38 58l346 -11v-26q0 -101 29 -116l67 -20l230 -365q103 -113 173 -269l116 -116q-9 55 -9 89q0 21 4 33q-5 43 -34 129l-19 76l19 212l-24 380q55 8 133 8q55 0 121 -4l58 -39l38 19l-38 -134l19 -38l-19 -154l19 -38 l-19 -442l19 -77l-19 -77l19 -192l19 -38q-132 -73 -307 -96q-73 94 -138 143q-74 139 -169 241l-83 97l-93 153q-27 211 -143 227l12 -247l-1 -306l29 -292l-316 4zM105 782l19 -57l19 38zM105 859q8 -37 38 -57zM143 187q35 23 39 58zM143 648q33 2 39 38zM143 1013 q55 -38 135 -58q-4 80 -58 154zM162 514h39l19 38l-38 19zM201 110h38v58h-19zM220 706l38 -96q10 15 10 30q0 33 -48 66zM239 360q21 -46 77 -58zM278 418q5 -25 38 -39q-4 26 -38 39zM431 1032l19 -38l58 19zM623 571l39 -57q-8 38 -39 57zM777 590h38v58h-19zM911 264 q8 -44 39 -77q-2 42 -39 77zM988 1032l19 -38v38h-19zM1026 840q33 33 39 77zM1046 629q14 -41 57 -58zM1161 245q-7 49 -58 77q-37 35 -37 -8q0 -45 95 -69zM1142 168q23 -50 76 -58zM1142 878q54 44 57 116q-45 -43 -57 -116zM1161 610l38 19l-19 38zM1199 667l39 -19 l19 38l-39 39z" />
<glyph unicode="o" horiz-adv-x="1391" d="M19 540l19 192l19 58q32 122 135 230q70 103 192 192l288 77q148 -26 307 -77q110 -61 230 -153l135 -231l38 -192l-38 -57q-10 -140 -58 -288q-73 -97 -173 -192l-249 -134q-52 5 -88 5q-60 0 -74 -13l-88 8q-137 37 -269 114q-105 72 -192 173l-115 211zM115 636 q6 -25 38 -38l20 19zM192 310q65 43 77 115zM192 790q40 25 77 77l19 -77l38 57q-6 58 -57 96zM230 655q-5 -1 -5 -2q0 -5 91 -20l-28 -35q80 -41 80 -94q0 -10 -3 -21l147 -173q51 -65 101 -65h3l103 -8l38 19l119 44q89 55 141 144l20 192q0 75 -39 154l-57 173l-112 40 q-42 21 -84 21q-34 0 -68 -14l-107 -38q-97 -64 -148 -144q-41 -74 -57 -173l-77 20zM269 233q36 32 38 77zM269 502l76 -58q-25 43 -76 58zM307 214q8 -38 38 -58zM365 1097q8 -38 38 -58zM518 1135l39 20l-39 19v-39zM576 1078l19 -39v39h-19zM633 1193q24 -54 77 -96 q-18 62 -77 96zM710 79l58 -19l38 96h-57zM710 1251q7 -20 39 -39q-5 26 -39 39zM768 1231l19 -38v38h-19zM979 1039q34 -42 96 -76l38 57zM1037 406l19 -96q49 5 96 38zM1075 521q6 -25 38 -38q-6 19 -38 38zM1094 636q9 -48 58 -77q-15 47 -58 77zM1094 905q28 -52 96 -77 q-33 49 -96 77zM1152 540l19 -38l77 38l-58 39q-7 -22 -38 -39z" />
<glyph unicode="p" horiz-adv-x="1019" d="M33 1223l19 57l263 -1q68 9 124 9q95 0 151 -27h57q135 -35 250 -153q64 -114 96 -250l-19 -230l-39 -39q-88 -108 -249 -153l-115 19l-39 -39l-170 20l12 -232l-11 -205l-196 -5h-4q-61 0 -113 25l5 157l-3 144v404q11 88 18 142l-18 50zM110 1050q37 16 38 58zM129 954 l19 -38v38h-19zM187 1069q12 -88 57 -192v96l39 -57q-35 85 -96 153zM206 800l57 -38q-3 55 -38 96zM244 148l19 -39v39h-19zM340 1088l96 -19l39 19q-18 28 -58 39zM359 704l105 -43q111 18 222 139l16 60l-38 78q-110 56 -285 74zM475 589q25 -37 76 -38zM513 1184 q16 -55 77 -76zM667 628l57 38q-6 19 -38 38zM743 685l20 -38v38h-20zM782 685l19 -38v38h-19zM820 589l58 -19l-19 77zM878 781q49 21 57 77z" />
<glyph unicode="q" horiz-adv-x="1347" d="M25 654q0 130 47 283q83 121 230 230q108 79 329 130l247 -34q137 -54 288 -173q49 -105 122 -256l38 -96l-19 -211q-45 -152 -141 -301q32 -105 58 -105q2 0 5 1l113 -155l-272 -108q2 24 -96 156q-108 -42 -183 -42q-25 0 -47 5q-375 18 -442 133l-192 134 q-59 135 -81 331q-4 38 -4 78zM91 821l39 -57l19 57h-58zM149 898q6 -25 38 -38q-6 19 -38 38zM168 821l19 -38v38h-19zM226 917q59 13 76 77q-34 -25 -76 -77zM322 457l19 -39v39h-19zM322 629l76 -249l34 -87l173 -38q64 7 134 38l-105 141l217 120l136 -145l26 182l19 58 q-16 64 -58 134l39 19q-25 49 -77 96l-134 115l-192 20l-154 -77l-96 -173zM475 188l19 -39v39h-19zM490 255l43 -86l-24 86h-19zM552 1071h38l20 58h-39zM667 1129l19 -58v58h-19zM802 399q8 -44 38 -77q-6 41 -38 77zM802 1167q35 23 38 58zM859 188q31 -64 96 -96 q-36 53 -96 96zM898 1148q32 -31 76 -39zM1032 380q8 -38 38 -58q-6 39 -38 58zM1051 668l19 -58v58h-19zM1070 533l20 -57l19 38zM1090 361l38 -58q-7 37 -38 58zM1090 437q41 -47 96 -57zM1090 937h57q-4 43 -38 76zM1128 898q26 -72 96 -115q-34 62 -96 115zM1224 -22 l19 -58v58h-19z" />
<glyph unicode="r" horiz-adv-x="1015" d="M30 1243l115 38l140 -24l206 24q165 -25 345 -96l116 -134q31 -79 31 -162q0 -73 -24 -149l-35 -70q-35 -70 -107 -99q-59 -53 -77 -135l235 -391l-30 -39l-63 9l-57 -26l-69 18l-92 -12l-135 288q-50 63 -89 96l-38 74l-64 29l-4 -52l-16 -90q30 -61 38 -134l10 -213 l-258 21l-60 -16l1 400v134l19 77l-19 192l19 134l-19 39zM126 302q14 -41 58 -58q-16 39 -58 58zM164 148q46 15 77 58l-38 38zM164 532q15 -41 58 -57zM203 590l77 -39l19 77l-58 19zM203 1031h57l20 58l-58 19zM241 1204l19 -38v38h-19zM299 916l42 -38l-4 -135 q36 -71 115 -96q88 15 173 77l96 173l-210 144h-135q-60 -34 -77 -125zM568 302l57 -19l19 19q-1 90 -38 192zM606 628l38 19v39h-19zM702 340q32 -69 96 -134q-22 76 -96 134zM721 839q23 -64 77 -115l58 58zM836 839h39l-19 39z" />
<glyph unicode="s" horiz-adv-x="933" d="M15 196l96 173q68 -23 134 -77q62 -49 154 -76l192 38l77 -19v38l-77 19l58 39l-39 115l-115 58q-27 54 -77 96l-57 -39l-192 77l-116 154l-19 115l19 38q16 90 58 173l115 115l173 77l250 -19l134 -58l58 -38q-9 -68 -39 -135l-38 -96q-51 12 -96 58l-211 38l-116 58 l58 -115l-58 -39q42 -85 116 -153l172 -39q92 -37 173 -96q51 -63 96 -153l19 -154l-19 -38l-57 -173l-135 -96l-192 -96l-192 20q-101 26 -211 76q-68 51 -96 134zM130 945l19 -19l58 38l-58 20zM149 830l77 38l39 77l-39 19zM188 811l57 -58q-13 42 -57 58zM188 1060 l19 -38v38h-19zM207 196l19 -38v38h-19zM284 926l38 19l-38 19v-38zM322 81l58 39l-39 76zM341 62l20 -38v38h-20zM341 792q6 -25 39 -39q-5 26 -39 39zM380 1214q5 -37 38 -58zM399 120l38 -58q-7 38 -38 58zM476 1156q5 -24 38 -38q-5 26 -38 38zM476 1272q14 -38 57 -39z M533 734l20 -58l19 39zM591 1176l58 -20l19 39l-39 38zM629 139l58 19q-7 38 -38 58zM668 619q17 -71 77 -135zM725 331l39 -58q-7 39 -39 58zM745 235q7 -19 38 -39l19 20z" />
<glyph unicode="t" horiz-adv-x="946" d="M8 1194q0 69 11 90l321 -10l38 -58l20 39l191 5h57v19l20 -19l57 -20v39l135 -19h57l19 -96l-19 -192l-96 -20l-57 39q-84 -7 -173 -58l19 115l-58 -134q43 -3 77 -38l-19 -77l19 -634l7 -155l-180 -16l-116 19l-38 -19l-19 154l38 57l-18 152l-19 192l38 115l-38 20 l38 192q3 22 3 38q0 35 -13 46l-35 23l-253 -9q-14 141 -14 220zM70 1144l20 -38v38h-20zM282 1125l19 -38v38h-19zM320 703l58 -58q-13 42 -58 58zM320 1068q28 -15 77 -20l57 77l-57 19q-45 -20 -77 -76zM358 607l20 -58v58h-20zM397 876q6 -32 38 -58l19 58h-57zM415 167 l58 -96q-8 59 -58 96zM416 511q51 -44 134 -58zM493 780q16 -35 57 -39zM550 319l20 -58v58h-20zM550 415l20 -39v39h-20zM742 1106l20 -38v38h-20z" />
<glyph unicode="u" horiz-adv-x="1203" d="M29 1296q111 -19 250 -19q83 -11 115 -116v-268l-19 -135l19 -38l-19 -192l19 -77l-77 -192l58 -19l-20 -39l20 -19l57 39q-2 26 -38 38l19 77l-19 38l96 -96l57 -38l173 38q71 42 115 135q8 75 39 153l-39 39l39 192l-39 115l39 38l-19 192l-39 135l96 19l19 -19l154 19 l58 -19l38 -250q-9 -98 -58 -211l58 -154q-2 -126 -38 -269l-39 -230l-173 -134l-403 -58l-57 20q-109 26 -231 76l-134 173q-49 212 -49 295q0 15 1 25q9 64 9 175v23zM106 758l38 -57l77 57h-115zM125 854q35 43 38 96zM183 1046q14 -41 57 -57q-15 40 -57 57zM202 893 l77 -20l-20 96zM240 201q8 -37 39 -57zM298 893l57 -58q-16 38 -57 58zM317 1104h38v57h-19zM432 144q8 -44 39 -77l19 58zM567 182q7 -19 38 -38l19 19zM701 201h58q-8 39 -39 58zM778 86l19 -38v38h-19zM855 48h38v57h-19zM855 317q28 -68 115 -116q-32 72 -115 116z M874 374h38v39h-19zM893 585q8 -37 38 -57zM970 393q5 -19 38 -38l19 115q-6 19 -38 39zM970 681l38 -57q-7 38 -38 57zM1008 1142l58 58l-58 19v-77zM1027 931h96l20 58h-58zM1066 605l38 19v38h-19z" />
<glyph unicode="v" horiz-adv-x="1108" d="M-47 1270v2l101 12l205 3l16 -58q33 -103 66 -198l38 -192q40 -67 77 -154q24 -90 49 -185l23 -48l20 -44l207 611q27 101 81 225l135 19l57 -19l132 36l-18 -98l-59 -168q-103 -273 -175 -360q-7 -92 -38 -192l-154 -346q-32 -81 -119 -122l-154 -20l-38 20l-74 203 q-56 23 -208 550q-88 279 -130 378q-40 79 -40 145zM44 1134q8 -38 39 -58zM102 1134q8 -19 38 -38q-4 25 -38 38zM179 1096l38 -20l19 58h-38zM379 647l20 -39v39h-20zM390 232q7 -48 38 -96q-5 46 -38 96zM467 289q8 -93 57 -173q28 50 77 96l-19 -76l38 -20 q-7 82 -57 154l-58 -77q-2 51 -38 96zM524 366q8 -38 39 -58q-7 39 -39 58zM601 385l38 -115l58 115q-6 19 -38 39zM620 520q7 -25 39 -39q-4 26 -39 39zM793 980l96 -38l19 58l-38 38zM889 1153l58 -38q-16 28 -58 38zM966 1153q13 -38 57 -38zM1023 1076l39 -19l19 58h-38 z" />
<glyph unicode="w" horiz-adv-x="1654" d="M-44 1270l77 40l95 15l113 -17h10q60 0 90 -23q19 -175 56 -270l-19 -60l38 -137q-54 -45 -115 -59l96 -59l77 -98q-18 -27 -58 -39l77 -80l77 119l139 625q20 66 83 66q13 0 27 -3l154 -20l57 -157l20 -138l76 -176l20 -138q-39 16 -58 58q10 -68 58 -137 q-30 -18 -39 -59l135 -118l-20 -59h39l77 40q-20 53 -77 78q-14 67 -19 157l19 59l38 217l77 177l-19 58l38 138l85 20l69 -20l153 20l39 -20l-58 -177q-29 -62 -38 -138q-31 -8 -58 -39h58l-19 -19l-58 -98l19 -119l-19 -39l-58 -20l20 -98l-77 -177l-39 -216 q-16 -77 -57 -157l-39 -20l-96 20l-38 -20v20q-87 23 -117 42l-34 56l-3 118q-43 67 -57 157l-96 373l-135 -19q-56 -41 -115 -118l211 98l-171 -692q-6 4 -18 4q-26 0 -79 -19h-154l-38 -20l-20 20l-134 373l-19 137l77 -19q28 77 38 177l-77 39l-19 -39l19 -20l39 -98 l-77 -20l-96 296l19 58l-76 118q-14 88 -57 197zM147 1172l19 -20l58 39l-58 20zM301 405l19 -59v59h-19zM454 111l58 -60l38 60l-57 -20zM550 248q16 -47 58 -79q-7 50 -58 79zM589 386l38 -59l19 59h-57zM819 1054l19 -99l58 99h-77zM1069 307q67 25 115 79l-96 19z M1146 248l19 -118q50 34 115 39l-96 118zM1261 307q9 -45 38 -79l19 59zM1280 150l19 -39v39h-19zM1357 189q8 -20 38 -39l19 19zM1587 1074l19 -39v39h-19z" />
<glyph unicode="x" horiz-adv-x="1163" d="M-10 36l116 179l264 426l-241 445l-125 175l44 23l240 -15q25 4 46 4q62 0 90 -33l58 -173q37 -56 38 -134l31 -76l62 -81l37 69q1 7 1 14q0 27 -15 55l134 307l68 45l124 13h173q-3 -60 -39 -116q-27 -72 -76 -153l-212 -288q-56 -32 -96 -96l77 38l19 -57l96 -135 q40 -65 105 -137l107 -132q44 -71 44 -164v-12q-8 -28 -102 -34l-154 -20l-38 20q-42 80 -78 156l-95 150l-38 173l-192 183l-19 -2q14 -42 76 -142l96 -39l-96 -153q-55 -88 -134 -173l-86 -154l-68 1l-192 -4zM194 88l19 -57v57h-19zM232 280l39 -57q-7 38 -39 57z M232 1048q49 11 58 58zM309 184l19 -38v38h-19zM328 376l77 -19l58 58l-77 57zM348 933l19 -38v38h-19zM367 1048q15 -42 57 -77q-14 46 -57 77zM732 837l134 96l-58 19q-48 -41 -76 -115zM751 991l57 19l39 77l-39 19zM866 280q10 -48 58 -77q-8 44 -58 77z" />
<glyph unicode="y" horiz-adv-x="960" d="M-61 1293l55 -10l38 4l201 8l125 -277q51 -90 77 -192l96 96q46 143 154 269l19 96l193 12l137 -15q-12 -101 -81 -209l-192 -268l-134 -269l19 -58l-19 -173q-41 41 -96 58q62 -96 115 -230l-38 -154q-103 9 -211 38l-116 -19l39 135l-19 115l38 230q-44 146 -154 288 q-72 113 -134 288q-46 21 -112 237zM205 883q16 -27 57 -38zM243 1095l38 -20v58h-19zM320 711l77 19q0 49 -39 77zM358 615q35 -44 96 -58zM397 365q16 -27 57 -38q-16 28 -57 38zM397 672q43 -49 96 -77q-32 50 -96 77zM397 711l57 -20l39 116zM512 192l38 -19l19 58h-38z M569 845l20 -38v38h-20zM627 903l38 -20l58 39l-58 19zM665 1095q16 -56 58 -96q-7 54 -58 96zM819 1114q10 -43 58 -77q-15 46 -58 77z" />
<glyph unicode="z" horiz-adv-x="1057" d="M15 93v9l7 78q127 130 186 222l96 172l153 154l77 173l154 57l-77 58l-192 -19l-58 19l-230 -19l-77 19l-4 250l196 19l211 -19q133 12 222 12q112 0 154 -19l80 16q66 -1 70 -35l21 -197l-79 -112l-103 -145l-35 -72q-53 -9 -53 -36q0 -12 11 -27q-58 -73 -115 -173 q-53 -45 -153 -211l19 -19l156 26q246 0 349 15l26 -95q6 -52 6 -92q0 -81 -24 -108l-316 20l-64 -17l-325 2l-132 -12q-22 -2 -41 -2q-116 0 -116 108zM150 210q26 -55 96 -77zM246 267l96 19l-38 77zM285 1112l19 -38v38h-19zM361 171l58 -96q-8 60 -58 96zM381 478 l19 -38v38h-19zM400 248q37 -50 96 -96q-31 62 -96 96zM400 421q17 -51 77 -77q-20 48 -77 77zM438 651q19 -26 58 -38q-15 28 -58 38zM477 1208q89 -85 211 -154q-86 90 -211 154zM515 632l19 -38v38h-19zM534 94l19 -38v38h-19zM649 94h39l19 58h-38zM707 1074l19 -39 l77 19zM745 171q7 -25 39 -38q-4 25 -39 38zM745 882l135 96l-77 19q-52 -51 -58 -115z" />
<glyph unicode="{" horiz-adv-x="684" />
<glyph unicode="|" horiz-adv-x="532" />
<glyph unicode="}" horiz-adv-x="684" />
<glyph unicode="~" horiz-adv-x="1196" />
<glyph unicode="&#xa1;" horiz-adv-x="630" d="M138 241l19 19l-19 250l19 57l-19 154q5 77 38 154l288 -20l20 -76l-20 -192l-19 -39l19 -192l-19 -96h19l-19 -19l39 -230l-39 -58l-249 20q-33 102 -39 210v58h-19zM138 1124q43 160 155 194q151 -10 191 -136q-1 -96 -48 -144.5t-142 -44.5q-74 -1 -156 131zM196 491 q15 -28 57 -39zM215 68h19l-19 39v-39zM215 587h19l-19 57v-57zM253 663h19l-19 39v-39zM253 817q13 -42 58 -58z" />
<glyph unicode="&#xa2;" horiz-adv-x="1139" />
<glyph unicode="&#xa3;" horiz-adv-x="1139" />
<glyph unicode="&#xa5;" horiz-adv-x="1139" />
<glyph unicode="&#xa6;" horiz-adv-x="532" />
<glyph unicode="&#xa7;" horiz-adv-x="1139" />
<glyph unicode="&#xa8;" horiz-adv-x="799" d="M78 1612q70 86 200 92q36 -14 76 -46q7 -51 31 -107l-31 -31q-45 -45 -107 -92l-92 31zM247 1520q20 5 31 31q-21 -3 -31 -31zM464 1534q13 81 93 154l76 30l108 -107q-21 -106 -108 -184q-95 19 -169 107z" />
<glyph unicode="&#xa9;" horiz-adv-x="1509" />
<glyph unicode="&#xaa;" horiz-adv-x="758" />
<glyph unicode="&#xab;" horiz-adv-x="1139" />
<glyph unicode="&#xac;" horiz-adv-x="1196" />
<glyph unicode="&#xad;" horiz-adv-x="753" d="M64 607l19 19l-19 154l19 57l442 -38l96 38l57 -115l20 -96l-20 -38l20 -39h-20l-96 -19l-38 19h-96l-58 19q-61 -17 -153 -19l-154 -19z" />
<glyph unicode="&#xae;" horiz-adv-x="1509" />
<glyph unicode="&#xb0;" horiz-adv-x="819" />
<glyph unicode="&#xb1;" horiz-adv-x="1124" />
<glyph unicode="&#xb2;" horiz-adv-x="682" />
<glyph unicode="&#xb3;" horiz-adv-x="682" />
<glyph unicode="&#xb4;" horiz-adv-x="650" d="M215 1469l160 333l105 -25l28 10l41 -5l51 -19q-25 -36 -50 -89l-93 -98l-70 -140q-57 -11 -116 -11q-17 0 -34 1z" />
<glyph unicode="&#xb5;" horiz-adv-x="1180" />
<glyph unicode="&#xb6;" horiz-adv-x="1100" />
<glyph unicode="&#xb7;" horiz-adv-x="569" />
<glyph unicode="&#xb8;" horiz-adv-x="648" d="M122 -287l120 40l45 -62l31 59l34 13q38 43 -3 106l-100 10l-27 61q25 34 20 80l73 9l44 -37q4 -28 20 -52l34 13l77 -54l28 -82l-11 -56l-16 -16q-23 -41 -58 -76q-68 -56 -143 -56q-20 0 -41 5q-84 19 -127 95z" />
<glyph unicode="&#xb9;" horiz-adv-x="682" />
<glyph unicode="&#xba;" horiz-adv-x="748" />
<glyph unicode="&#xbb;" horiz-adv-x="1139" />
<glyph unicode="&#xbc;" horiz-adv-x="1708" />
<glyph unicode="&#xbd;" horiz-adv-x="1708" />
<glyph unicode="&#xbe;" horiz-adv-x="1708" />
<glyph unicode="&#xbf;" horiz-adv-x="933" d="M26 365l38 58q24 108 96 211q52 45 173 54l11 187l103 -1l89 -7l66 -22l-19 -154l19 -134q-30 -31 -77 -38l-211 -58l-38 -192l38 -58l154 -19l57 19q95 58 169 205l128 -58l68 -70l-134 -249l-231 -96q-80 18 -147 -2l-83 21l-135 57l-115 192zM180 154q40 25 76 77 q-59 -11 -76 -77zM180 461h38l-19 58zM276 1198q36 49 172 126q128 -42 192 -191q-69 -93 -172 -173l-80 9l-102 102zM391 672q13 -41 57 -57zM410 691h19l19 77h-38v-77zM448 538h20l-20 38v-38zM602 115h38l-19 58zM717 231l39 -20l38 58z" />
<glyph unicode="&#xc0;" d="M-45 10l18 38q23 131 58 180l58 204l132 320q47 104 79 237q34 147 79 223t146 107l216 -42l107 -14l28 -178l115 -269q36 -141 115 -307l77 -326q46 -60 46 -162v-13l-101 -5q-109 0 -208 1l-29 123l-50 97l-179 2l-324 -5q-24 -120 -46 -185q3 -55 -67 -55 q-36 0 -90 14l-142 -3zM108 125h77l38 96l-58 19zM204 490l38 19l-38 19v-38zM223 336q14 -40 58 -57zM242 375l115 57q17 -27 58 -38l-8 81l8 72l-58 20l-19 -116q-12 41 -57 58zM328 1763l51 19l41 5l28 -10l105 25l160 -333l-22 -43q-17 -1 -34 -1q-59 0 -116 11l-70 140 l-93 98q-25 53 -50 89zM357 1027q14 -36 58 -38zM441 482l117 45l58 -62l46 20l67 -1l70 7l-27 113l-69 193q-10 89 -43 144l-27 67l-39 23l-71 -274l-69 -6zM473 931h38v58h-19zM492 375q39 -41 96 -58q-39 42 -96 58zM722 989q6 -25 39 -38q-4 25 -39 38zM741 855 q34 -64 116 -116q-37 64 -116 116zM741 1200h39v39h-19zM780 1104l19 -38v38h-19zM833 577q70 -66 116 -173l38 77q-69 59 -154 96zM895 413l19 -38v38h-19zM914 759q8 -38 39 -58q-8 38 -39 58zM933 267q96 -4 196 -73q-53 119 -147 219z" />
<glyph unicode="&#xc1;" d="M-48 10l18 38q23 131 58 180l58 204l132 320q47 104 79 237q34 147 79 223t146 107l216 -42l107 -14l28 -178l115 -269q36 -141 115 -307l77 -326q46 -60 46 -162v-13l-101 -5q-109 0 -208 1l-29 123l-50 97l-179 2l-324 -5q-24 -120 -46 -185q3 -55 -67 -55 q-36 0 -90 14l-142 -3zM105 125h77l38 96l-58 19zM201 490l38 19l-38 19v-38zM220 336q14 -40 58 -57zM239 375l115 57q17 -27 58 -38l-8 81l8 72l-58 20l-19 -116q-12 41 -57 58zM354 1027q14 -36 58 -38zM438 482l117 45l58 -62l46 20l67 -1l70 7l-27 113l-69 193 q-10 89 -43 144l-27 67l-39 23l-71 -274l-69 -6zM470 931h38v58h-19zM489 375q39 -41 96 -58q-39 42 -96 58zM539 1469l160 333l105 -25l28 10l41 -5l51 -19q-25 -36 -50 -89l-93 -98l-70 -140q-57 -11 -116 -11q-17 0 -34 1zM719 989q6 -25 39 -38q-4 25 -39 38zM738 855 q34 -64 116 -116q-37 64 -116 116zM738 1200h39v39h-19zM777 1104l19 -38v38h-19zM830 577q70 -66 116 -173l38 77q-69 59 -154 96zM892 413l19 -38v38h-19zM911 759q8 -38 39 -58q-8 38 -39 58zM930 267q96 -4 196 -73q-53 119 -147 219z" />
<glyph unicode="&#xc2;" d="M-48 10l18 38q23 131 58 180l58 204l132 320q47 104 79 237q34 147 79 223t146 107l216 -42l107 -14l28 -178l115 -269q36 -141 115 -307l77 -326q46 -60 46 -162v-13l-101 -5q-109 0 -208 1l-29 123l-50 97l-179 2l-324 -5q-24 -120 -46 -185q3 -55 -67 -55 q-36 0 -90 14l-142 -3zM105 125h77l38 96l-58 19zM201 490l38 19l-38 19v-38zM220 336q14 -40 58 -57zM239 375l115 57q17 -27 58 -38l-8 81l8 72l-58 20l-19 -116q-12 41 -57 58zM354 1027q14 -36 58 -38zM416 1438l33 78l16 58l66 115l49 88l9 15l100 -5l64 -121l26 -51 l69 -180l-112 -30l-24 59l-79 96l-55 -99l-40 -50zM438 482l117 45l58 -62l46 20l67 -1l70 7l-27 113l-69 193q-10 89 -43 144l-27 67l-39 23l-71 -274l-69 -6zM470 931h38v58h-19zM489 375q39 -41 96 -58q-39 42 -96 58zM719 989q6 -25 39 -38q-4 25 -39 38zM738 855 q34 -64 116 -116q-37 64 -116 116zM738 1200h39v39h-19zM777 1104l19 -38v38h-19zM830 577q70 -66 116 -173l38 77q-69 59 -154 96zM892 413l19 -38v38h-19zM911 759q8 -38 39 -58q-8 38 -39 58zM930 267q96 -4 196 -73q-53 119 -147 219z" />
<glyph unicode="&#xc3;" d="M-48 10l18 38q23 131 58 180l58 204l132 320q47 104 79 237q34 147 79 223t146 107l216 -42l107 -14l28 -178l115 -269q36 -141 115 -307l77 -326q46 -60 46 -162v-13l-101 -5q-109 0 -208 1l-29 123l-50 97l-179 2l-324 -5q-24 -120 -46 -185q3 -55 -67 -55 q-36 0 -90 14l-142 -3zM105 125h77l38 96l-58 19zM201 490l38 19l-38 19v-38zM220 336q14 -40 58 -57zM235 1460l17 111l14 22l83 71l17 18l87 32q57 3 100 -4q47 -21 84 -53l52 -67q51 -16 104 -13l11 37l72 3l-52 37l27 66l79 -19l29 -55l1 -51l-41 -81q-37 -41 -83 -71 l-17 -19l-66 -21l-104 13l-77 66l10 36q-31 11 -65 9l-53 37l-80 -48l-20 -10l10 -65l-120 -15zM239 375l115 57q17 -27 58 -38l-8 81l8 72l-58 20l-19 -116q-12 41 -57 58zM354 1027q14 -36 58 -38zM438 482l117 45l58 -62l46 20l67 -1l70 7l-27 113l-69 193 q-10 89 -43 144l-27 67l-39 23l-71 -274l-69 -6zM470 931h38v58h-19zM489 375q39 -41 96 -58q-39 42 -96 58zM719 989q6 -25 39 -38q-4 25 -39 38zM738 855q34 -64 116 -116q-37 64 -116 116zM738 1200h39v39h-19zM777 1104l19 -38v38h-19zM830 577q70 -66 116 -173l38 77 q-69 59 -154 96zM892 413l19 -38v38h-19zM911 759q8 -38 39 -58q-8 38 -39 58zM930 267q96 -4 196 -73q-53 119 -147 219z" />
<glyph unicode="&#xc4;" d="M-48 10l18 38q23 131 58 180l58 204l132 320q47 104 79 237q34 147 79 223t146 107l216 -42l107 -14l28 -178l115 -269q36 -141 115 -307l77 -326q46 -60 46 -162v-13l-101 -5q-109 0 -208 1l-29 123l-50 97l-179 2l-324 -5q-24 -120 -46 -185q3 -55 -67 -55 q-36 0 -90 14l-142 -3zM105 125h77l38 96l-58 19zM201 490l38 19l-38 19v-38zM220 336q14 -40 58 -57zM239 375l115 57q17 -27 58 -38l-8 81l8 72l-58 20l-19 -116q-12 41 -57 58zM261 1612q70 86 200 92q36 -14 76 -46q7 -51 31 -107l-31 -31q-45 -45 -107 -92l-92 30z M354 1027q14 -36 58 -38zM430 1520q20 4 31 31q-21 -4 -31 -31zM438 482l117 45l58 -62l46 20l67 -1l70 7l-27 113l-69 193q-10 89 -43 144l-27 67l-39 23l-71 -274l-69 -6zM470 931h38v58h-19zM489 375q39 -41 96 -58q-39 42 -96 58zM647 1534q13 81 93 153l76 31l108 -107 q-21 -106 -108 -185q-95 20 -169 108zM719 989q6 -25 39 -38q-4 25 -39 38zM738 855q34 -64 116 -116q-37 64 -116 116zM738 1200h39v39h-19zM777 1104l19 -38v38h-19zM830 577q70 -66 116 -173l38 77q-69 59 -154 96zM892 413l19 -38v38h-19zM911 759q8 -38 39 -58 q-8 38 -39 58zM930 267q96 -4 196 -73q-53 119 -147 219z" />
<glyph unicode="&#xc5;" horiz-adv-x="1366" />
<glyph unicode="&#xc6;" horiz-adv-x="2048" />
<glyph unicode="&#xc7;" horiz-adv-x="1049" d="M16 678l58 192q32 91 96 172l134 135l115 57q22 -7 39 -38q64 53 153 96l211 -19q76 -27 154 -77l38 -173q-8 -77 -57 -153l-135 115l-96 19l-38 -19h-38q-84 -26 -173 -77l-115 -134l-58 -39l38 -96l39 -173l115 -153q89 -41 192 -58l-7 -77q39 7 57 39q120 57 180 96 q35 45 96 77l-19 -77l19 -154l-19 -57q-39 -61 -115 -114l-192 -20q-88 17 -192 57l-77 -57l-19 76l19 19q-84 12 -173 58l-134 134l-38 115l96 20l57 38q-9 44 -38 96l-19 -77l-77 -57l-58 38zM93 716l57 -38q-16 28 -57 38zM189 793q8 -38 38 -58q-7 39 -38 58zM246 486 l77 19l-38 19zM285 332q42 27 57 77zM342 274l20 -38v38h-20zM381 198l19 -39v39h-19zM383 -288l120 40l45 -62l31 59l34 13q38 43 -3 106l-100 11l-27 60q25 34 20 80l73 9l44 -37q4 -27 20 -52l34 13l77 -54l28 -82l-11 -56l-16 -16q-23 -41 -58 -76q-68 -55 -143 -55 q-20 0 -41 4q-84 19 -127 95zM400 332q17 -27 58 -38zM496 1177q5 -36 38 -58zM515 140q6 -25 39 -38q-5 25 -39 38zM592 25l19 -37v37h-19zM611 121q15 -46 58 -77zM611 1215l58 -38q-16 28 -58 38z" />
<glyph unicode="&#xc8;" horiz-adv-x="886" d="M36 112l14 156l5 189l2 141l-2 90l19 192l-32 371q20 5 39 38l211 -19h58v19q65 -13 153 -19l154 -19l38 19l151 -2l-4 -158l-19 -58q18 -26 -13 -57l-275 19l-149 -21l-4 -113q13 -76 20 -118q143 -8 229 22l192 -17l15 -71l4 -162l-111 -42l-61 23l-116 -4l-108 15 l-84 -11q-40 -18 -22 -55l-17 -34q-37 -58 8 -35q23 -24 31 -87l135 -39l57 19l116 -19l38 19h58l57 20l39 -20l-39 -306l-134 38l-58 -19l-134 19l-39 -19h-307q-63 12 -96 57v58h-19zM113 246h19v38h-19v-38zM113 361q7 -19 38 -38q-5 25 -38 38zM113 496q7 -47 38 -96 q-6 47 -38 96zM113 764q2 -38 38 -57zM151 1187l19 -58v58h-19zM170 380q35 -43 96 -57zM190 265h19v39h-19v-39zM190 457q32 8 57 39l77 38l-77 58zM190 822l76 38q-7 39 -38 58zM200 1763l51 19l41 5l28 -10l105 25l160 -333l-22 -43q-17 -1 -34 -1q-59 0 -116 11l-70 140 l-93 98q-25 53 -50 89zM209 188l57 39q-4 25 -38 38zM234 1212q11 -33 52 -44q-10 34 -52 44zM286 246l57 19q-5 26 -38 39zM305 995l41 23l36 34h-58zM324 572l38 -19l20 58h-39zM407 1212q37 -57 109 -83q-43 48 -109 83zM439 1110l19 -77l20 39zM497 92q50 22 57 77z M497 726l19 -38v38h-19zM746 649q6 -25 39 -38q-7 19 -39 38z" />
<glyph unicode="&#xc9;" horiz-adv-x="886" d="M36 112l14 156l5 189l2 141l-2 90l19 192l-32 371q20 5 39 38l211 -19h58v19q65 -13 153 -19l154 -19l38 19l151 -2l-4 -158l-19 -58q18 -26 -13 -57l-275 19l-149 -21l-4 -113q13 -76 20 -118q143 -8 229 22l192 -17l15 -71l4 -162l-111 -42l-61 23l-116 -4l-108 15 l-84 -11q-40 -18 -22 -55l-17 -34q-37 -58 8 -35q23 -24 31 -87l135 -39l57 19l116 -19l38 19h58l57 20l39 -20l-39 -306l-134 38l-58 -19l-134 19l-39 -19h-307q-63 12 -96 57v58h-19zM113 246h19v38h-19v-38zM113 361q7 -19 38 -38q-5 25 -38 38zM113 496q7 -47 38 -96 q-6 47 -38 96zM113 764q2 -38 38 -57zM151 1187l19 -58v58h-19zM170 380q35 -43 96 -57zM190 265h19v39h-19v-39zM190 457q32 8 57 39l77 38l-77 58zM190 822l76 38q-7 39 -38 58zM209 188l57 39q-4 25 -38 38zM234 1212q11 -33 52 -44q-10 34 -52 44zM286 246l57 19 q-5 26 -38 39zM305 995l41 23l36 34h-58zM324 572l38 -19l20 58h-39zM369 1469l160 333l105 -25l28 10l41 -5l51 -19q-25 -36 -50 -89l-93 -98l-70 -140q-57 -11 -116 -11q-17 0 -34 1zM407 1212q37 -57 109 -83q-43 48 -109 83zM439 1110l19 -77l20 39zM497 92q50 22 57 77 zM497 726l19 -38v38h-19zM746 649q6 -25 39 -38q-7 19 -39 38z" />
<glyph unicode="&#xca;" horiz-adv-x="886" d="M36 112l14 156l5 189l2 141l-2 90l19 192l-32 371q20 5 39 38l211 -19h58v19q65 -13 153 -19l154 -19l38 19l151 -2l-4 -158l-19 -58q18 -26 -13 -57l-275 19l-149 -21l-4 -113q13 -76 20 -118q143 -8 229 22l192 -17l15 -71l4 -162l-111 -42l-61 23l-116 -4l-108 15 l-84 -11q-40 -18 -22 -55l-17 -34q-37 -58 8 -35q23 -24 31 -87l135 -39l57 19l116 -19l38 19h58l57 20l39 -20l-39 -306l-134 38l-58 -19l-134 19l-39 -19h-307q-63 12 -96 57v58h-19zM113 246h19v38h-19v-38zM113 361q7 -19 38 -38q-5 25 -38 38zM113 496q7 -47 38 -96 q-6 47 -38 96zM113 764q2 -38 38 -57zM151 1187l19 -58v58h-19zM170 380q35 -43 96 -57zM190 265h19v39h-19v-39zM190 457q32 8 57 39l77 38l-77 58zM190 822l76 38q-7 39 -38 58zM209 188l57 39q-4 25 -38 38zM234 1212q11 -33 52 -44q-10 34 -52 44zM253 1438l33 78l16 58 l65 114l50 88l9 16l99 -6l64 -121l27 -50l69 -180l-112 -30l-24 59l-79 95l-55 -98l-40 -50zM286 246l57 19q-5 26 -38 39zM305 995l41 23l36 34h-58zM324 572l38 -19l20 58h-39zM407 1212q37 -57 109 -83q-43 48 -109 83zM439 1110l19 -77l20 39zM497 92q50 22 57 77z M497 726l19 -38v38h-19zM746 649q6 -25 39 -38q-7 19 -39 38z" />
<glyph unicode="&#xcb;" horiz-adv-x="886" d="M36 112l14 156l5 189l2 141l-2 90l19 192l-32 371q20 5 39 38l211 -19h58v19q65 -13 153 -19l154 -19l38 19l151 -2l-4 -158l-19 -58q18 -26 -13 -57l-275 19l-149 -21l-4 -113q13 -76 20 -118q143 -8 229 22l192 -17l15 -71l4 -162l-111 -42l-61 23l-116 -4l-108 15 l-84 -11q-40 -18 -22 -55l-17 -34q-37 -58 8 -35q23 -24 31 -87l135 -39l57 19l116 -19l38 19h58l57 20l39 -20l-39 -306l-134 38l-58 -19l-134 19l-39 -19h-307q-63 12 -96 57v58h-19zM113 246h19v38h-19v-38zM113 361q7 -19 38 -38q-5 25 -38 38zM113 496q7 -47 38 -96 q-6 47 -38 96zM113 764q2 -38 38 -57zM118 1612q70 86 200 92q36 -14 77 -46q6 -51 30 -108l-30 -30q-46 -45 -108 -93l-92 31zM151 1187l19 -58v58h-19zM170 380q35 -43 96 -57zM190 265h19v39h-19v-39zM190 457q32 8 57 39l77 38l-77 58zM190 822l76 38q-7 39 -38 58z M209 188l57 39q-4 25 -38 38zM234 1212q11 -33 52 -44q-10 34 -52 44zM286 246l57 19q-5 26 -38 39zM287 1520q20 4 31 30q-21 -3 -31 -30zM305 995l41 23l36 34h-58zM324 572l38 -19l20 58h-39zM407 1212q37 -57 109 -83q-43 48 -109 83zM439 1110l19 -77l20 39zM497 92 q50 22 57 77zM497 726l19 -38v38h-19zM505 1534q12 81 92 153l77 31l107 -108q-20 -105 -107 -184q-96 19 -169 108zM746 649q6 -25 39 -38q-7 19 -39 38z" />
<glyph unicode="&#xcc;" horiz-adv-x="533" d="M-2 1763l51 19l41 5l28 -10l105 25l160 -333l-22 -43q-17 -1 -34 -1q-59 0 -116 11l-70 140l-93 98q-25 53 -50 89zM97 141v11l19 153l-19 39v365q18 56 58 115l-58 57l10 354l14 50l168 -20l129 22q28 -2 28 -111q0 -36 -3 -83v-154l-29 4q-27 -36 29 -81l-39 -57 q29 -76 39 -173v-96q-54 34 -116 38l116 -134l-20 -154l20 -57l1 -168l-21 -62l-72 -12l-120 12l-112 -3q-22 21 -22 145zM155 382l19 -38l77 77l-58 19zM155 958l38 -19l38 58l-57 38zM174 555q13 -41 57 -58zM193 862q12 -61 58 -115q-7 66 -58 115zM231 94q7 -25 39 -38 q-4 25 -39 38zM251 344q4 -57 57 -96q-11 55 -57 96zM270 593l96 39q-15 28 -58 38z" />
<glyph unicode="&#xcd;" horiz-adv-x="533" d="M97 141v11l19 153l-19 39v365q18 56 58 115l-58 57l10 354l14 50l168 -20l129 22q28 -2 28 -111q0 -36 -3 -83v-154l-29 4q-27 -36 29 -81l-39 -57q29 -76 39 -173v-96q-54 34 -116 38l116 -134l-20 -154l20 -57l1 -168l-21 -62l-72 -12l-120 12l-112 -3q-22 21 -22 145z M155 382l19 -38l77 77l-58 19zM155 958l38 -19l38 58l-57 38zM168 1470l160 333l105 -25l28 10l41 -5l51 -19q-25 -36 -50 -89l-93 -98l-70 -140q-57 -11 -116 -11q-17 0 -34 1zM174 555q13 -41 57 -58zM193 862q12 -61 58 -115q-7 66 -58 115zM231 94q7 -25 39 -38 q-4 25 -39 38zM251 344q4 -57 57 -96q-11 55 -57 96zM270 593l96 39q-15 28 -58 38z" />
<glyph unicode="&#xce;" horiz-adv-x="533" d="M97 141v11l19 153l-19 39v365q18 56 58 115l-58 57l10 354l14 50l168 -20l129 22q28 -2 28 -111q0 -36 -3 -83v-154l-29 4q-27 -36 29 -81l-39 -57q29 -76 39 -173v-96q-54 34 -116 38l116 -134l-20 -154l20 -57l1 -168l-21 -62l-72 -12l-120 12l-112 -3q-22 21 -22 145z M106 1438l26 78l13 58l52 114l40 88l7 16l80 -6l51 -121l21 -50l56 -180l-90 -30l-19 59l-63 95l-44 -98l-32 -50zM155 382l19 -38l77 77l-58 19zM155 958l38 -19l38 58l-57 38zM174 555q13 -41 57 -58zM193 862q12 -61 58 -115q-7 66 -58 115zM231 94q7 -25 39 -38 q-4 25 -39 38zM251 344q4 -57 57 -96q-11 55 -57 96zM270 593l96 39q-15 28 -58 38z" />
<glyph unicode="&#xcf;" horiz-adv-x="886" d="M36 112l14 156l5 189l2 141l-2 90l19 192l-32 371q20 5 39 38l211 -19h58v19q65 -13 153 -19l154 -19l38 19l151 -2l-4 -158l-19 -58q18 -26 -13 -57l-275 19l-149 -21l-4 -113q13 -76 20 -118q143 -8 229 22l192 -17l15 -71l4 -162l-111 -42l-61 23l-116 -4l-108 15 l-84 -11q-40 -18 -22 -55l-17 -34q-37 -58 8 -35q23 -24 31 -87l135 -39l57 19l116 -19l38 19h58l57 20l39 -20l-39 -306l-134 38l-58 -19l-134 19l-39 -19h-307q-63 12 -96 57v58h-19zM113 246h19v38h-19v-38zM113 361q7 -19 38 -38q-5 25 -38 38zM113 496q7 -47 38 -96 q-6 47 -38 96zM113 764q2 -38 38 -57zM118 1612q70 86 200 92q36 -14 77 -46q6 -51 30 -108l-30 -30q-46 -45 -108 -93l-92 31zM151 1187l19 -58v58h-19zM170 380q35 -43 96 -57zM190 265h19v39h-19v-39zM190 457q32 8 57 39l77 38l-77 58zM190 822l76 38q-7 39 -38 58z M209 188l57 39q-4 25 -38 38zM234 1212q11 -33 52 -44q-10 34 -52 44zM286 246l57 19q-5 26 -38 39zM287 1520q20 4 31 30q-21 -3 -31 -30zM305 995l41 23l36 34h-58zM324 572l38 -19l20 58h-39zM407 1212q37 -57 109 -83q-43 48 -109 83zM439 1110l19 -77l20 39zM497 92 q50 22 57 77zM497 726l19 -38v38h-19zM505 1534q12 81 92 153l77 31l107 -108q-20 -105 -107 -184q-96 19 -169 108zM746 649q6 -25 39 -38q-7 19 -39 38z" />
<glyph unicode="&#xd0;" horiz-adv-x="1479" />
<glyph unicode="&#xd1;" horiz-adv-x="1349" d="M28 34l38 288l-19 288l19 38l-19 211l19 77l-38 288l38 58l346 -11q-4 -125 29 -142l67 -20l230 -365q103 -113 173 -269l116 -116q-14 91 -5 122q-5 43 -34 129l-19 76l19 212l-24 380q55 8 133 8q55 0 121 -4l58 -39l38 19l-38 -134l19 -38l-19 -154l19 -38l-19 -442 l19 -77l-19 -77l19 -192l19 -38q-132 -73 -307 -96q-73 94 -138 143q-74 139 -169 241l-83 97l-93 153q-27 211 -143 227l12 -247l-1 -306l29 -292l-316 4zM105 782l19 -57l19 38zM105 859q8 -37 38 -57zM143 187q35 23 39 58zM143 648q33 2 39 38zM143 1013q55 -38 135 -58 q-4 80 -58 154zM162 514h39l19 38l-38 19zM201 110h38v58h-19zM220 706l38 -96q33 48 -38 96zM239 360q21 -46 77 -58zM278 418q5 -25 38 -39q-4 26 -38 39zM315 1459l17 112l14 22l83 71l17 18l87 32q57 3 100 -4q47 -21 84 -53l53 -67q50 -16 104 -13l10 36l73 4l-53 37 l27 66l79 -19l29 -55l1 -51l-41 -81q-37 -41 -83 -71l-17 -19l-66 -21l-104 12l-77 67l11 36q-32 11 -66 9l-53 37l-79 -48l-21 -10l10 -65l-119 -15zM431 1032l19 -38l58 19zM623 571l39 -57q-8 38 -39 57zM777 590h38v58h-19zM911 264q8 -44 39 -77q-2 42 -39 77z M988 1032l19 -38v38h-19zM1026 840q33 33 39 77zM1046 629q14 -41 57 -58zM1066.5 313q0.5 -44 94.5 -68q-7 49 -58 77q-37 35 -36.5 -9zM1142 168q23 -50 76 -58zM1142 878q54 44 57 116q-45 -43 -57 -116zM1161 610l38 19l-19 38zM1199 667l39 -19l19 38l-39 39z" />
<glyph unicode="&#xd2;" horiz-adv-x="1391" d="M19 540l19 192l19 58q32 122 135 230q70 103 192 192l288 77q148 -26 307 -77q110 -61 230 -153l135 -231l38 -192l-38 -57q-10 -140 -58 -288q-73 -97 -173 -192l-249 -134q-139 12 -162 -8l-88 8q-137 37 -269 114q-105 72 -192 173l-115 211zM115 636q6 -25 38 -38 l20 19zM192 310q65 43 77 115zM192 790q40 25 77 77l19 -77l38 57q-6 58 -57 96zM230 655q-25 -4 86 -22l-28 -35q96 -49 77 -115l147 -173q53 -67 104 -65l103 -8l38 19l119 44q89 55 141 144l20 192q0 75 -39 154l-57 173l-112 40q-77 39 -152 7l-107 -38 q-97 -64 -148 -144q-41 -74 -57 -173l-77 20zM269 233q36 32 38 77zM269 502l76 -58q-25 43 -76 58zM307 214q8 -38 38 -58zM365 1097q8 -38 38 -58zM417 1763l51 19l41 5l28 -10l105 25l160 -333l-22 -43q-17 -1 -34 -1q-59 0 -116 11l-70 140l-93 98q-25 53 -50 89z M518 1135l39 20l-39 19v-39zM576 1078l19 -39v39h-19zM633 1193q24 -54 77 -96q-18 62 -77 96zM710 79l58 -19l38 96h-57zM710 1251q7 -20 39 -39q-5 26 -39 39zM768 1231l19 -38v38h-19zM979 1039q34 -42 96 -76l38 57zM1037 406l19 -96q49 5 96 38zM1075 521q6 -25 38 -38 q-6 19 -38 38zM1094 636q9 -48 58 -77q-15 47 -58 77zM1094 905q28 -52 96 -77q-33 49 -96 77zM1152 540l19 -38l77 38l-58 39q-7 -22 -38 -39z" />
<glyph unicode="&#xd3;" horiz-adv-x="1391" d="M19 540l19 192l19 58q32 122 135 230q70 103 192 192l288 77q148 -26 307 -77q110 -61 230 -153l135 -231l38 -192l-38 -57q-10 -140 -58 -288q-73 -97 -173 -192l-249 -134q-139 12 -162 -8l-88 8q-137 37 -269 114q-105 72 -192 173l-115 211zM115 636q6 -25 38 -38 l20 19zM192 310q65 43 77 115zM192 790q40 25 77 77l19 -77l38 57q-6 58 -57 96zM230 655q-25 -4 86 -22l-28 -35q96 -49 77 -115l147 -173q53 -67 104 -65l103 -8l38 19l119 44q89 55 141 144l20 192q0 75 -39 154l-57 173l-112 40q-77 39 -152 7l-107 -38 q-97 -64 -148 -144q-41 -74 -57 -173l-77 20zM269 233q36 32 38 77zM269 502l76 -58q-25 43 -76 58zM307 214q8 -38 38 -58zM365 1097q8 -38 38 -58zM518 1135l39 20l-39 19v-39zM576 1078l19 -39v39h-19zM585 1469l160 333l105 -25l28 10l41 -5l51 -19q-25 -36 -50 -89 l-93 -98l-70 -140q-57 -11 -116 -11q-17 0 -34 1zM633 1193q24 -54 77 -96q-18 62 -77 96zM710 79l58 -19l38 96h-57zM710 1251q7 -20 39 -39q-5 26 -39 39zM768 1231l19 -38v38h-19zM979 1039q34 -42 96 -76l38 57zM1037 406l19 -96q49 5 96 38zM1075 521q6 -25 38 -38 q-6 19 -38 38zM1094 636q9 -48 58 -77q-15 47 -58 77zM1094 905q28 -52 96 -77q-33 49 -96 77zM1152 540l19 -38l77 38l-58 39q-7 -22 -38 -39z" />
<glyph unicode="&#xd4;" horiz-adv-x="1391" d="M19 540l19 192l19 58q32 122 135 230q70 103 192 192l288 77q148 -26 307 -77q110 -61 230 -153l135 -231l38 -192l-38 -57q-10 -140 -58 -288q-73 -97 -173 -192l-249 -134q-139 12 -162 -8l-88 8q-137 37 -269 114q-105 72 -192 173l-115 211zM115 636q6 -25 38 -38 l20 19zM192 310q65 43 77 115zM192 790q40 25 77 77l19 -77l38 57q-6 58 -57 96zM230 655q-25 -4 86 -22l-28 -35q96 -49 77 -115l147 -173q53 -67 104 -65l103 -8l38 19l119 44q89 55 141 144l20 192q0 75 -39 154l-57 173l-112 40q-77 39 -152 7l-107 -38 q-97 -64 -148 -144q-41 -74 -57 -173l-77 20zM269 233q36 32 38 77zM269 502l76 -58q-25 43 -76 58zM307 214q8 -38 38 -58zM365 1097q8 -38 38 -58zM491 1438l33 78l16 58l65 114l50 88l9 16l99 -6l64 -120l27 -51l69 -180l-112 -30l-24 59l-79 95l-55 -98l-40 -50z M518 1135l39 20l-39 19v-39zM576 1078l19 -39v39h-19zM633 1193q24 -54 77 -96q-18 62 -77 96zM710 79l58 -19l38 96h-57zM710 1251q7 -20 39 -39q-5 26 -39 39zM768 1231l19 -38v38h-19zM979 1039q34 -42 96 -76l38 57zM1037 406l19 -96q49 5 96 38zM1075 521q6 -25 38 -38 q-6 19 -38 38zM1094 636q9 -48 58 -77q-15 47 -58 77zM1094 905q28 -52 96 -77q-33 49 -96 77zM1152 540l19 -38l77 38l-58 39q-7 -22 -38 -39z" />
<glyph unicode="&#xd5;" horiz-adv-x="1391" d="M19 540l19 192l19 58q32 122 135 230q70 103 192 192l288 77q148 -26 307 -77q110 -61 230 -153l135 -231l38 -192l-38 -57q-10 -140 -58 -288q-73 -97 -173 -192l-249 -134q-139 12 -162 -8l-88 8q-137 37 -269 114q-105 72 -192 173l-115 211zM115 636q6 -25 38 -38 l20 19zM192 310q65 43 77 115zM192 790q40 25 77 77l19 -77l38 57q-6 58 -57 96zM230 655q-25 -4 86 -22l-28 -35q96 -49 77 -115l147 -173q53 -67 104 -65l103 -8l38 19l119 44q89 55 141 144l20 192q0 75 -39 154l-57 173l-112 40q-77 39 -152 7l-107 -38 q-97 -64 -148 -144q-41 -74 -57 -173l-77 20zM269 233q36 32 38 77zM269 502l76 -58q-25 43 -76 58zM307 214q8 -38 38 -58zM344 1459l17 112l14 22l83 71l17 18l87 31q57 3 100 -3q47 -21 84 -53l52 -67q51 -16 104 -13l11 36l72 4l-52 37l27 66l78 -19l29 -55l2 -51 l-41 -81q-38 -41 -83 -71l-17 -19l-66 -21l-104 12l-77 67l10 35q-31 12 -66 10l-52 37l-80 -48l-20 -10l10 -65l-120 -16zM365 1097q8 -38 38 -58zM518 1135l39 20l-39 19v-39zM576 1078l19 -39v39h-19zM633 1193q24 -54 77 -96q-18 62 -77 96zM710 79l58 -19l38 96h-57z M710 1251q7 -20 39 -39q-5 26 -39 39zM768 1231l19 -38v38h-19zM979 1039q34 -42 96 -76l38 57zM1037 406l19 -96q49 5 96 38zM1075 521q6 -25 38 -38q-6 19 -38 38zM1094 636q9 -48 58 -77q-15 47 -58 77zM1094 905q28 -52 96 -77q-33 49 -96 77zM1152 540l19 -38l77 38 l-58 39q-7 -22 -38 -39z" />
<glyph unicode="&#xd6;" horiz-adv-x="1391" d="M19 540l19 192l19 58q32 122 135 230q70 103 192 192l288 77q148 -26 307 -77q110 -61 230 -153l135 -231l38 -192l-38 -57q-10 -140 -58 -288q-73 -97 -173 -192l-249 -134q-139 12 -162 -8l-88 8q-137 37 -269 114q-105 72 -192 173l-115 211zM115 636q6 -25 38 -38 l20 19zM192 310q65 43 77 115zM192 790q40 25 77 77l19 -77l38 57q-6 58 -57 96zM230 655q-25 -4 86 -22l-28 -35q96 -49 77 -115l147 -173q53 -67 104 -65l103 -8l38 19l119 44q89 55 141 144l20 192q0 75 -39 154l-57 173l-112 40q-77 39 -152 7l-107 -38 q-97 -64 -148 -144q-41 -74 -57 -173l-77 20zM269 233q36 32 38 77zM269 502l76 -58q-25 43 -76 58zM307 214q8 -38 38 -58zM365 1097q8 -38 38 -58zM365 1612q70 86 200 92q36 -14 77 -46q6 -51 30 -107l-30 -31q-46 -45 -108 -92l-92 31zM518 1135l39 20l-39 19v-39z M534 1520q20 5 31 31q-21 -3 -31 -31zM576 1078l19 -39v39h-19zM633 1193q24 -54 77 -96q-18 62 -77 96zM710 79l58 -19l38 96h-57zM710 1251q7 -20 39 -39q-5 26 -39 39zM751 1534q13 81 93 154l76 30l108 -107q-21 -106 -108 -185q-95 20 -169 108zM768 1231l19 -38v38 h-19zM979 1039q34 -42 96 -76l38 57zM1037 406l19 -96q49 5 96 38zM1075 521q6 -25 38 -38q-6 19 -38 38zM1094 636q9 -48 58 -77q-15 47 -58 77zM1094 905q28 -52 96 -77q-33 49 -96 77zM1152 540l19 -38l77 38l-58 39q-7 -22 -38 -39z" />
<glyph unicode="&#xd7;" horiz-adv-x="1196" />
<glyph unicode="&#xd8;" horiz-adv-x="1593" />
<glyph unicode="&#xd9;" horiz-adv-x="1203" d="M29 1296q111 -19 250 -19q83 -11 115 -116v-268l-19 -135l19 -38l-19 -192l19 -77l-77 -192l58 -19l-20 -39l20 -19l57 39q-2 26 -38 38l19 77l-19 38l96 -96l57 -38l173 38q71 42 115 135q8 75 39 153l-39 39l39 192l-39 115l39 38l-19 192l-39 135l96 19l19 -19l154 19 l58 -19l38 -250q-9 -98 -58 -211l58 -154q-2 -126 -38 -269l-39 -230l-173 -134l-403 -58l-57 20q-109 26 -231 76l-134 173q-58 249 -48 319.5t9 198.5zM106 758l38 -57l77 57h-115zM125 854q35 43 38 96zM183 1046q14 -41 57 -57q-15 40 -57 57zM202 893l77 -20l-20 96z M240 201q8 -37 39 -57zM298 893l57 -58q-16 38 -57 58zM317 1104h38v57h-19zM336 1763l51 19l41 5l28 -10l105 25l160 -333l-22 -43q-17 -1 -34 -1q-59 0 -116 11l-70 140l-93 98q-25 53 -50 89zM432 144q8 -44 39 -77l19 58zM567 182q7 -19 38 -38l19 19zM701 201h58 q-8 39 -39 58zM778 86l19 -38v38h-19zM855 48h38v57h-19zM855 317q28 -68 115 -116q-32 72 -115 116zM874 374h38v39h-19zM893 585q8 -37 38 -57zM970 393q5 -19 38 -38l19 115q-6 19 -38 39zM970 681l38 -57q-7 38 -38 57zM1008 1142l58 58l-58 19v-77zM1027 931h96l20 58 h-58zM1066 605l38 19v38h-19z" />
<glyph unicode="&#xda;" horiz-adv-x="1203" d="M29 1296q111 -19 250 -19q83 -11 115 -116v-268l-19 -135l19 -38l-19 -192l19 -77l-77 -192l58 -19l-20 -39l20 -19l57 39q-2 26 -38 38l19 77l-19 38l96 -96l57 -38l173 38q71 42 115 135q8 75 39 153l-39 39l39 192l-39 115l39 38l-19 192l-39 135l96 19l19 -19l154 19 l58 -19l38 -250q-9 -98 -58 -211l58 -154q-2 -126 -38 -269l-39 -230l-173 -134l-403 -58l-57 20q-109 26 -231 76l-134 173q-58 249 -48 319.5t9 198.5zM106 758l38 -57l77 57h-115zM125 854q35 43 38 96zM183 1046q14 -41 57 -57q-15 40 -57 57zM202 893l77 -20l-20 96z M240 201q8 -37 39 -57zM298 893l57 -58q-16 38 -57 58zM317 1104h38v57h-19zM432 144q8 -44 39 -77l19 58zM500 1470l160 333l105 -25l28 10l41 -5l51 -19q-25 -36 -50 -89l-93 -98l-70 -140q-57 -11 -116 -11q-17 0 -34 1zM567 182q7 -19 38 -38l19 19zM701 201h58 q-8 39 -39 58zM778 86l19 -38v38h-19zM855 48h38v57h-19zM855 317q28 -68 115 -116q-32 72 -115 116zM874 374h38v39h-19zM893 585q8 -37 38 -57zM970 393q5 -19 38 -38l19 115q-6 19 -38 39zM970 681l38 -57q-7 38 -38 57zM1008 1142l58 58l-58 19v-77zM1027 931h96l20 58 h-58zM1066 605l38 19v38h-19z" />
<glyph unicode="&#xdb;" horiz-adv-x="1203" d="M29 1296q111 -19 250 -19q83 -11 115 -116v-268l-19 -135l19 -38l-19 -192l19 -77l-77 -192l58 -19l-20 -39l20 -19l57 39q-2 26 -38 38l19 77l-19 38l96 -96l57 -38l173 38q71 42 115 135q8 75 39 153l-39 39l39 192l-39 115l39 38l-19 192l-39 135l96 19l19 -19l154 19 l58 -19l38 -250q-9 -98 -58 -211l58 -154q-2 -126 -38 -269l-39 -230l-173 -134l-403 -58l-57 20q-109 26 -231 76l-134 173q-58 249 -48 319.5t9 198.5zM106 758l38 -57l77 57h-115zM125 854q35 43 38 96zM183 1046q14 -41 57 -57q-15 40 -57 57zM202 893l77 -20l-20 96z M240 201q8 -37 39 -57zM298 893l57 -58q-16 38 -57 58zM317 1104h38v57h-19zM386 1438l33 78l16 58l65 114l50 88l9 16l99 -6l64 -121l27 -50l69 -180l-112 -30l-24 59l-79 95l-55 -98l-40 -50zM432 144q8 -44 39 -77l19 58zM567 182q7 -19 38 -38l19 19zM701 201h58 q-8 39 -39 58zM778 86l19 -38v38h-19zM855 48h38v57h-19zM855 317q28 -68 115 -116q-32 72 -115 116zM874 374h38v39h-19zM893 585q8 -37 38 -57zM970 393q5 -19 38 -38l19 115q-6 19 -38 39zM970 681l38 -57q-7 38 -38 57zM1008 1142l58 58l-58 19v-77zM1027 931h96l20 58 h-58zM1066 605l38 19v38h-19z" />
<glyph unicode="&#xdc;" horiz-adv-x="1203" d="M29 1296q111 -19 250 -19q83 -11 115 -116v-268l-19 -135l19 -38l-19 -192l19 -77l-77 -192l58 -19l-20 -39l20 -19l57 39q-2 26 -38 38l19 77l-19 38l96 -96l57 -38l173 38q71 42 115 135q8 75 39 153l-39 39l39 192l-39 115l39 38l-19 192l-39 135l96 19l19 -19l154 19 l58 -19l38 -250q-9 -98 -58 -211l58 -154q-2 -126 -38 -269l-39 -230l-173 -134l-403 -58l-57 20q-109 26 -231 76l-134 173q-58 249 -48 319.5t9 198.5zM106 758l38 -57l77 57h-115zM125 854q35 43 38 96zM183 1046q14 -41 57 -57q-15 40 -57 57zM202 893l77 -20l-20 96z M240 201q8 -37 39 -57zM254 1612q70 86 200 92q36 -14 77 -46q6 -51 30 -107l-30 -31q-46 -45 -108 -92l-92 31zM298 893l57 -58q-16 38 -57 58zM317 1104h38v57h-19zM423 1520q20 5 31 31q-21 -3 -31 -31zM432 144q8 -44 39 -77l19 58zM567 182q7 -19 38 -38l19 19z M640 1534q13 81 93 154l76 30l108 -107q-21 -106 -108 -185q-95 20 -169 108zM701 201h58q-8 39 -39 58zM778 86l19 -38v38h-19zM855 48h38v57h-19zM855 317q28 -68 115 -116q-32 72 -115 116zM874 374h38v39h-19zM893 585q8 -37 38 -57zM970 393q5 -19 38 -38l19 115 q-6 19 -38 39zM970 681l38 -57q-7 38 -38 57zM1008 1142l58 58l-58 19v-77zM1027 931h96l20 58h-58zM1066 605l38 19v38h-19z" />
<glyph unicode="&#xdd;" horiz-adv-x="1366" />
<glyph unicode="&#xde;" horiz-adv-x="1366" />
<glyph unicode="&#xdf;" horiz-adv-x="1074" d="M45 323l17 22l-17 294l17 68l-17 181q3 65 19 129q-7 7 -14 15l38 116l96 19l-58 57l77 58l192 77l220 -13l154 -115q54 -72 76 -173q-2 -103 -38 -211l-33 -44l-37 -46l216 -111q47 -75 77 -173l19 -153l-38 -58q-45 -92 -115 -173q-86 -53 -192 -95l-173 -20l-69 25 l9 183l41 -16q87 61 192 96l57 115l-38 58q-31 73 -96 134l-130 19l-11 169l24 76l67 71l19 96l-19 39q-62 63 -154 96q-14 -43 -66 -141l-13 2l7 -40l-17 -226l-106 -41l102 -3l-13 -341l-59 12l63 -106l43 -183l-22 -97l-275 35l-5 249l72 5zM174 214l35 -151l36 76z M287 1179l77 -57q-7 67 -38 134zM615 1115q8 -37 38 -57zM627 90q6 -24 39 -38q-4 26 -39 38zM720 968l38 -38l38 19zM761 204l19 -38v38h-19zM769 533q32 -94 107 -194q-4 108 -107 194zM817 583q6 -25 38 -38q-6 19 -38 38zM881 490l19 -39v39h-19zM896 588l19 -38v38h-19 z" />
<glyph unicode="&#xe0;" d="M-45 10l18 38q23 131 58 180l58 204l132 320q47 104 79 237q34 147 79 223t146 107l216 -42l107 -14l28 -178l115 -269q36 -141 115 -307l77 -326q46 -60 46 -162v-13l-101 -5q-109 0 -208 1l-29 123l-50 97l-179 2l-324 -5q-24 -120 -46 -185q3 -55 -67 -55 q-36 0 -90 14l-142 -3zM108 125h77l38 96l-58 19zM204 490l38 19l-38 19v-38zM223 336q14 -40 58 -57zM242 375l115 57q17 -27 58 -38l-8 81l8 72l-58 20l-19 -116q-12 41 -57 58zM328 1763l51 19l41 5l28 -10l105 25l160 -333l-22 -43q-17 -1 -34 -1q-59 0 -116 11l-70 140 l-93 98q-25 53 -50 89zM357 1027q14 -36 58 -38zM441 482l117 45l58 -62l46 20l67 -1l70 7l-27 113l-69 193q-10 89 -43 144l-27 67l-39 23l-71 -274l-69 -6zM473 931h38v58h-19zM492 375q39 -41 96 -58q-39 42 -96 58zM722 989q6 -25 39 -38q-4 25 -39 38zM741 855 q34 -64 116 -116q-37 64 -116 116zM741 1200h39v39h-19zM780 1104l19 -38v38h-19zM833 577q70 -66 116 -173l38 77q-69 59 -154 96zM895 413l19 -38v38h-19zM914 759q8 -38 39 -58q-8 38 -39 58zM933 267q96 -4 196 -73q-53 119 -147 219z" />
<glyph unicode="&#xe1;" d="M-48 10l18 38q23 131 58 180l58 204l132 320q47 104 79 237q34 147 79 223t146 107l216 -42l107 -14l28 -178l115 -269q36 -141 115 -307l77 -326q46 -60 46 -162v-13l-101 -5q-109 0 -208 1l-29 123l-50 97l-179 2l-324 -5q-24 -120 -46 -185q3 -55 -67 -55 q-36 0 -90 14l-142 -3zM105 125h77l38 96l-58 19zM201 490l38 19l-38 19v-38zM220 336q14 -40 58 -57zM239 375l115 57q17 -27 58 -38l-8 81l8 72l-58 20l-19 -116q-12 41 -57 58zM354 1027q14 -36 58 -38zM438 482l117 45l58 -62l46 20l67 -1l70 7l-27 113l-69 193 q-10 89 -43 144l-27 67l-39 23l-71 -274l-69 -6zM470 931h38v58h-19zM489 375q39 -41 96 -58q-39 42 -96 58zM539 1469l160 333l105 -25l28 10l41 -5l51 -19q-25 -36 -50 -89l-93 -98l-70 -140q-57 -11 -116 -11q-17 0 -34 1zM719 989q6 -25 39 -38q-4 25 -39 38zM738 855 q34 -64 116 -116q-37 64 -116 116zM738 1200h39v39h-19zM777 1104l19 -38v38h-19zM830 577q70 -66 116 -173l38 77q-69 59 -154 96zM892 413l19 -38v38h-19zM911 759q8 -38 39 -58q-8 38 -39 58zM930 267q96 -4 196 -73q-53 119 -147 219z" />
<glyph unicode="&#xe2;" d="M-48 10l18 38q23 131 58 180l58 204l132 320q47 104 79 237q34 147 79 223t146 107l216 -42l107 -14l28 -178l115 -269q36 -141 115 -307l77 -326q46 -60 46 -162v-13l-101 -5q-109 0 -208 1l-29 123l-50 97l-179 2l-324 -5q-24 -120 -46 -185q3 -55 -67 -55 q-36 0 -90 14l-142 -3zM105 125h77l38 96l-58 19zM201 490l38 19l-38 19v-38zM220 336q14 -40 58 -57zM239 375l115 57q17 -27 58 -38l-8 81l8 72l-58 20l-19 -116q-12 41 -57 58zM354 1027q14 -36 58 -38zM416 1438l33 78l16 58l65 114l50 88l9 16l99 -6l64 -120l27 -51 l69 -180l-112 -30l-24 59l-79 95l-55 -98l-40 -50zM438 482l117 45l58 -62l46 20l67 -1l70 7l-27 113l-69 193q-10 89 -43 144l-27 67l-39 23l-71 -274l-69 -6zM470 931h38v58h-19zM489 375q39 -41 96 -58q-39 42 -96 58zM719 989q6 -25 39 -38q-4 25 -39 38zM738 855 q34 -64 116 -116q-37 64 -116 116zM738 1200h39v39h-19zM777 1104l19 -38v38h-19zM830 577q70 -66 116 -173l38 77q-69 59 -154 96zM892 413l19 -38v38h-19zM911 759q8 -38 39 -58q-8 38 -39 58zM930 267q96 -4 196 -73q-53 119 -147 219z" />
<glyph unicode="&#xe3;" d="M-48 10l18 38q23 131 58 180l58 204l132 320q47 104 79 237q34 147 79 223t146 107l216 -42l107 -14l28 -178l115 -269q36 -141 115 -307l77 -326q46 -60 46 -162v-13l-101 -5q-109 0 -208 1l-29 123l-50 97l-179 2l-324 -5q-24 -120 -46 -185q3 -55 -67 -55 q-36 0 -90 14l-142 -3zM105 125h77l38 96l-58 19zM201 490l38 19l-38 19v-38zM220 336q14 -40 58 -57zM235 1460l17 111l14 23l83 70l17 18l87 32q57 3 100 -4q47 -21 84 -53l52 -67q50 -16 104 -12l10 36l73 3l-52 38l27 65l78 -19l29 -55l1 -51l-41 -81q-37 -40 -82 -71 l-17 -18l-66 -22l-105 13l-76 66l10 36q-32 11 -66 10l-52 36l-80 -48l-20 -10l9 -64l-119 -16zM239 375l115 57q17 -27 58 -38l-8 81l8 72l-58 20l-19 -116q-12 41 -57 58zM354 1027q14 -36 58 -38zM438 482l117 45l58 -62l46 20l67 -1l70 7l-27 113l-69 193 q-10 89 -43 144l-27 67l-39 23l-71 -274l-69 -6zM470 931h38v58h-19zM489 375q39 -41 96 -58q-39 42 -96 58zM719 989q6 -25 39 -38q-4 25 -39 38zM738 855q34 -64 116 -116q-37 64 -116 116zM738 1200h39v39h-19zM777 1104l19 -38v38h-19zM830 577q70 -66 116 -173l38 77 q-69 59 -154 96zM892 413l19 -38v38h-19zM911 759q8 -38 39 -58q-8 38 -39 58zM930 267q96 -4 196 -73q-53 119 -147 219z" />
<glyph unicode="&#xe4;" d="M-48 10l18 38q23 131 58 180l58 204l132 320q47 104 79 237q34 147 79 223t146 107l216 -42l107 -14l28 -178l115 -269q36 -141 115 -307l77 -326q46 -60 46 -162v-13l-101 -5q-109 0 -208 1l-29 123l-50 97l-179 2l-324 -5q-24 -120 -46 -185q3 -55 -67 -55 q-36 0 -90 14l-142 -3zM105 125h77l38 96l-58 19zM201 490l38 19l-38 19v-38zM220 336q14 -40 58 -57zM239 375l115 57q17 -27 58 -38l-8 81l8 72l-58 20l-19 -116q-12 41 -57 58zM261 1612q70 86 200 92q36 -14 76 -46q7 -51 31 -107l-31 -31q-45 -45 -107 -92l-92 31z M354 1027q14 -36 58 -38zM430 1520q20 5 31 31q-21 -3 -31 -31zM438 482l117 45l58 -62l46 20l67 -1l70 7l-27 113l-69 193q-10 89 -43 144l-27 67l-39 23l-71 -274l-69 -6zM470 931h38v58h-19zM489 375q39 -41 96 -58q-39 42 -96 58zM647 1534q13 81 93 154l76 30l108 -107 q-21 -106 -108 -184q-95 19 -169 107zM719 989q6 -25 39 -38q-4 25 -39 38zM738 855q34 -64 116 -116q-37 64 -116 116zM738 1200h39v39h-19zM777 1104l19 -38v38h-19zM830 577q70 -66 116 -173l38 77q-69 59 -154 96zM892 413l19 -38v38h-19zM911 759q8 -38 39 -58 q-8 38 -39 58zM930 267q96 -4 196 -73q-53 119 -147 219z" />
<glyph unicode="&#xe5;" horiz-adv-x="1139" />
<glyph unicode="&#xe6;" horiz-adv-x="1821" />
<glyph unicode="&#xe7;" horiz-adv-x="1049" d="M16 678l58 192q32 91 96 172l134 135l115 57q22 -7 39 -38q64 53 153 96l211 -19q76 -27 154 -77l38 -173q-8 -77 -57 -153l-135 115l-96 19l-38 -19h-38q-84 -26 -173 -77l-115 -134l-58 -39l38 -96l39 -173l115 -153q89 -41 192 -58l-7 -77q39 7 57 39q120 57 180 96 q35 45 96 77l-19 -77l19 -154l-19 -57q-39 -61 -115 -114l-192 -20q-88 17 -192 57l-77 -57l-19 76l19 19q-84 12 -173 58l-134 134l-38 115l96 20l57 38q-9 44 -38 96l-19 -77l-77 -57l-58 38zM93 716l57 -38q-16 28 -57 38zM189 793q8 -38 38 -58q-7 39 -38 58zM246 486 l77 19l-38 19zM285 332q42 27 57 77zM342 274l20 -38v38h-20zM381 198l19 -39v39h-19zM383 -287l120 40l45 -62l31 59l34 13q38 43 -3 106l-100 10l-27 61q25 34 20 80l73 9l44 -37q4 -28 20 -52l34 13l77 -54l28 -82l-11 -56l-16 -16q-23 -41 -58 -76q-68 -56 -143 -56 q-20 0 -41 5q-84 19 -127 95zM400 332q17 -27 58 -38zM496 1177q5 -36 38 -58zM515 140q6 -25 39 -38q-5 25 -39 38zM592 25l19 -37v37h-19zM611 121q15 -46 58 -77zM611 1215l58 -38q-16 28 -58 38z" />
<glyph unicode="&#xe8;" horiz-adv-x="886" d="M36 112l14 156l5 189l2 141l-2 90l19 192l-32 371q20 5 39 38l211 -19h58v19q65 -13 153 -19l154 -19l38 19l151 -2l-4 -158l-19 -58q18 -26 -13 -57l-275 19l-149 -21l-4 -113q13 -76 20 -118q143 -8 229 22l192 -17l15 -71l4 -162l-111 -42l-61 23l-116 -4l-108 15 l-84 -11q-40 -18 -22 -55l-17 -34q-37 -58 8 -35q23 -24 31 -87l135 -39l57 19l116 -19l38 19h58l57 20l39 -20l-39 -306l-134 38l-58 -19l-134 19l-39 -19h-307q-63 12 -96 57v58h-19zM113 246h19v38h-19v-38zM113 361q7 -19 38 -38q-5 25 -38 38zM113 496q7 -47 38 -96 q-6 47 -38 96zM113 764q2 -38 38 -57zM151 1187l19 -58v58h-19zM170 380q35 -43 96 -57zM190 265h19v39h-19v-39zM190 457q32 8 57 39l77 38l-77 58zM190 822l76 38q-7 39 -38 58zM200 1763l51 19l41 5l28 -10l105 25l160 -333l-22 -43q-17 -1 -34 -1q-59 0 -116 11l-70 140 l-93 98q-25 53 -50 89zM209 188l57 39q-4 25 -38 38zM234 1212q11 -33 52 -44q-10 34 -52 44zM286 246l57 19q-5 26 -38 39zM305 995l41 23l36 34h-58zM324 572l38 -19l20 58h-39zM407 1212q37 -57 109 -83q-43 48 -109 83zM439 1110l19 -77l20 39zM497 92q50 22 57 77z M497 726l19 -38v38h-19zM746 649q6 -25 39 -38q-7 19 -39 38z" />
<glyph unicode="&#xe9;" horiz-adv-x="886" d="M36 112l14 156l5 189l2 141l-2 90l19 192l-32 371q20 5 39 38l211 -19h58v19q65 -13 153 -19l154 -19l38 19l151 -2l-4 -158l-19 -58q18 -26 -13 -57l-275 19l-149 -21l-4 -113q13 -76 20 -118q143 -8 229 22l192 -17l15 -71l4 -162l-111 -42l-61 23l-116 -4l-108 15 l-84 -11q-40 -18 -22 -55l-17 -34q-37 -58 8 -35q23 -24 31 -87l135 -39l57 19l116 -19l38 19h58l57 20l39 -20l-39 -306l-134 38l-58 -19l-134 19l-39 -19h-307q-63 12 -96 57v58h-19zM113 246h19v38h-19v-38zM113 361q7 -19 38 -38q-5 25 -38 38zM113 496q7 -47 38 -96 q-6 47 -38 96zM113 764q2 -38 38 -57zM151 1187l19 -58v58h-19zM170 380q35 -43 96 -57zM190 265h19v39h-19v-39zM190 457q32 8 57 39l77 38l-77 58zM190 822l76 38q-7 39 -38 58zM209 188l57 39q-4 25 -38 38zM234 1212q11 -33 52 -44q-10 34 -52 44zM286 246l57 19 q-5 26 -38 39zM305 995l41 23l36 34h-58zM324 572l38 -19l20 58h-39zM369 1469l160 333l105 -25l28 10l41 -5l51 -19q-25 -36 -50 -89l-93 -98l-70 -140q-57 -11 -116 -11q-17 0 -34 1zM407 1212q37 -57 109 -83q-43 48 -109 83zM439 1110l19 -77l20 39zM497 92q50 22 57 77 zM497 726l19 -38v38h-19zM746 649q6 -25 39 -38q-7 19 -39 38z" />
<glyph unicode="&#xea;" horiz-adv-x="886" d="M36 112l14 156l5 189l2 141l-2 90l19 192l-32 371q20 5 39 38l211 -19h58v19q65 -13 153 -19l154 -19l38 19l151 -2l-4 -158l-19 -58q18 -26 -13 -57l-275 19l-149 -21l-4 -113q13 -76 20 -118q143 -8 229 22l192 -17l15 -71l4 -162l-111 -42l-61 23l-116 -4l-108 15 l-84 -11q-40 -18 -22 -55l-17 -34q-37 -58 8 -35q23 -24 31 -87l135 -39l57 19l116 -19l38 19h58l57 20l39 -20l-39 -306l-134 38l-58 -19l-134 19l-39 -19h-307q-63 12 -96 57v58h-19zM113 246h19v38h-19v-38zM113 361q7 -19 38 -38q-5 25 -38 38zM113 496q7 -47 38 -96 q-6 47 -38 96zM113 764q2 -38 38 -57zM151 1187l19 -58v58h-19zM170 380q35 -43 96 -57zM190 265h19v39h-19v-39zM190 457q32 8 57 39l77 38l-77 58zM190 822l76 38q-7 39 -38 58zM209 188l57 39q-4 25 -38 38zM234 1212q11 -33 52 -44q-10 34 -52 44zM253 1438l33 78l16 58 l65 114l50 88l9 16l99 -6l64 -120l27 -51l69 -180l-112 -30l-24 59l-79 95l-55 -98l-40 -50zM286 246l57 19q-5 26 -38 39zM305 995l41 23l36 34h-58zM324 572l38 -19l20 58h-39zM407 1212q37 -57 109 -83q-43 48 -109 83zM439 1110l19 -77l20 39zM497 92q50 22 57 77z M497 726l19 -38v38h-19zM746 649q6 -25 39 -38q-7 19 -39 38z" />
<glyph unicode="&#xeb;" horiz-adv-x="886" d="M36 112l14 156l5 189l2 141l-2 90l19 192l-32 371q20 5 39 38l211 -19h58v19q65 -13 153 -19l154 -19l38 19l151 -2l-4 -158l-19 -58q18 -26 -13 -57l-275 19l-149 -21l-4 -113q13 -76 20 -118q143 -8 229 22l192 -17l15 -71l4 -162l-111 -42l-61 23l-116 -4l-108 15 l-84 -11q-40 -18 -22 -55l-17 -34q-37 -58 8 -35q23 -24 31 -87l135 -39l57 19l116 -19l38 19h58l57 20l39 -20l-39 -306l-134 38l-58 -19l-134 19l-39 -19h-307q-63 12 -96 57v58h-19zM113 246h19v38h-19v-38zM113 361q7 -19 38 -38q-5 25 -38 38zM113 496q7 -47 38 -96 q-6 47 -38 96zM113 764q2 -38 38 -57zM118 1612q70 86 200 92q36 -14 76 -46q7 -51 31 -107l-31 -31q-45 -45 -107 -92l-92 31zM151 1187l19 -58v58h-19zM170 380q35 -43 96 -57zM190 265h19v39h-19v-39zM190 457q32 8 57 39l77 38l-77 58zM190 822l76 38q-7 39 -38 58z M209 188l57 39q-4 25 -38 38zM234 1212q11 -33 52 -44q-10 34 -52 44zM286 246l57 19q-5 26 -38 39zM287 1520q20 5 31 31q-21 -3 -31 -31zM305 995l41 23l36 34h-58zM324 572l38 -19l20 58h-39zM407 1212q37 -57 109 -83q-43 48 -109 83zM439 1110l19 -77l20 39zM497 92 q50 22 57 77zM497 726l19 -38v38h-19zM504 1534q13 81 93 154l76 30l108 -107q-21 -106 -108 -184q-95 19 -169 107zM746 649q6 -25 39 -38q-7 19 -39 38z" />
<glyph unicode="&#xec;" horiz-adv-x="533" d="M-2 1763l51 19l41 5l28 -10l105 25l160 -333l-22 -43q-17 -1 -34 -1q-59 0 -116 11l-70 140l-93 98q-25 53 -50 89zM97 141v11l19 153l-19 39v365q18 56 58 115l-58 57l10 354l14 50l168 -20l129 22q28 -2 28 -111q0 -36 -3 -83v-154l-29 4q-27 -36 29 -81l-39 -57 q29 -76 39 -173v-96q-54 34 -116 38l116 -134l-20 -154l20 -57l1 -168l-21 -62l-72 -12l-120 12l-112 -3q-22 21 -22 145zM155 382l19 -38l77 77l-58 19zM155 958l38 -19l38 58l-57 38zM174 555q13 -41 57 -58zM193 862q12 -61 58 -115q-7 66 -58 115zM231 94q7 -25 39 -38 q-4 25 -39 38zM251 344q4 -57 57 -96q-11 55 -57 96zM270 593l96 39q-15 28 -58 38z" />
<glyph unicode="&#xed;" horiz-adv-x="533" d="M97 141v11l19 153l-19 39v365q18 56 58 115l-58 57l10 354l14 50l168 -20l129 22q28 -2 28 -111q0 -36 -3 -83v-154l-29 4q-27 -36 29 -81l-39 -57q29 -76 39 -173v-96q-54 34 -116 38l116 -134l-20 -154l20 -57l1 -168l-21 -62l-72 -12l-120 12l-112 -3q-22 21 -22 145z M155 382l19 -38l77 77l-58 19zM155 958l38 -19l38 58l-57 38zM169 1469l160 333l105 -25l28 10l41 -5l51 -19q-25 -36 -50 -89l-93 -98l-70 -140q-57 -11 -116 -11q-17 0 -34 1zM174 555q13 -41 57 -58zM193 862q12 -61 58 -115q-7 66 -58 115zM231 94q7 -25 39 -38 q-4 25 -39 38zM251 344q4 -57 57 -96q-11 55 -57 96zM270 593l96 39q-15 28 -58 38z" />
<glyph unicode="&#xee;" horiz-adv-x="533" d="M96 1438l26 78l13 58l52 114l40 88l7 16l79 -6l51 -120l22 -51l55 -180l-89 -30l-20 59l-63 95l-44 -98l-32 -50zM97 141v11l19 153l-19 39v365q18 56 58 115l-58 57l10 354l14 50l168 -20l129 22q28 -2 28 -111q0 -36 -3 -83v-154l-29 4q-27 -36 29 -81l-39 -57 q29 -76 39 -173v-96q-54 34 -116 38l116 -134l-20 -154l20 -57l1 -168l-21 -62l-72 -12l-120 12l-112 -3q-22 21 -22 145zM155 382l19 -38l77 77l-58 19zM155 958l38 -19l38 58l-57 38zM174 555q13 -41 57 -58zM193 862q12 -61 58 -115q-7 66 -58 115zM231 94q7 -25 39 -38 q-4 25 -39 38zM251 344q4 -57 57 -96q-11 55 -57 96zM270 593l96 39q-15 28 -58 38z" />
<glyph unicode="&#xef;" horiz-adv-x="533" d="M-54 1612q70 86 200 92q36 -14 76 -46q7 -51 31 -107l-31 -31q-45 -45 -107 -92l-92 31zM98 141v11l19 153l-19 39v365q18 56 58 115l-58 57l10 354l14 50l168 -20l129 22q28 -2 28 -111q0 -36 -3 -83v-154l-29 4q-27 -36 29 -81l-39 -57q29 -76 39 -173v-96 q-54 34 -116 38l116 -134l-20 -154l20 -57l1 -168l-21 -62l-72 -12l-120 12l-112 -3q-22 21 -22 145zM115 1520q20 5 31 31q-21 -3 -31 -31zM156 382l19 -38l77 77l-58 19zM156 958l38 -19l38 58l-57 38zM175 555q13 -41 57 -58zM194 862q12 -61 58 -115q-7 66 -58 115z M232 94q7 -25 39 -38q-4 25 -39 38zM252 344q4 -57 57 -96q-11 55 -57 96zM271 593l96 39q-15 28 -58 38zM332 1534q13 81 93 154l76 30l108 -107q-21 -106 -108 -184q-95 19 -169 107z" />
<glyph unicode="&#xf0;" horiz-adv-x="1139" />
<glyph unicode="&#xf1;" horiz-adv-x="1349" d="M28 34l38 288l-19 288l19 38l-19 211l19 77l-38 288l38 58l346 -11q-4 -125 29 -142l67 -20l230 -365q103 -113 173 -269l116 -116q-14 91 -5 122q-5 43 -34 129l-19 76l19 212l-24 380q55 8 133 8q55 0 121 -4l58 -39l38 19l-38 -134l19 -38l-19 -154l19 -38l-19 -442 l19 -77l-19 -77l19 -192l19 -38q-132 -73 -307 -96q-73 94 -138 143q-74 139 -169 241l-83 97l-93 153q-27 211 -143 227l12 -247l-1 -306l29 -292l-316 4zM105 782l19 -57l19 38zM105 859q8 -37 38 -57zM143 187q35 23 39 58zM143 648q33 2 39 38zM143 1013q55 -38 135 -58 q-4 80 -58 154zM162 514h39l19 38l-38 19zM201 110h38v58h-19zM220 706l38 -96q33 48 -38 96zM239 360q21 -46 77 -58zM278 418q5 -25 38 -39q-4 26 -38 39zM315 1460l17 111l14 23l83 70l17 18l87 32q57 3 100 -4q47 -21 84 -53l52 -67q50 -16 104 -12l10 36l73 3l-52 38 l27 65l78 -19l29 -55l1 -51l-41 -81q-37 -40 -82 -71l-17 -18l-66 -22l-105 13l-76 66l10 36q-32 11 -66 10l-52 36l-80 -48l-20 -10l9 -64l-119 -16zM431 1032l19 -38l58 19zM623 571l39 -57q-8 38 -39 57zM777 590h38v58h-19zM911 264q8 -44 39 -77q-2 42 -39 77z M988 1032l19 -38v38h-19zM1026 840q33 33 39 77zM1046 629q14 -41 57 -58zM1066.5 313q0.5 -44 94.5 -68q-7 49 -58 77q-37 35 -36.5 -9zM1142 168q23 -50 76 -58zM1142 878q54 44 57 116q-45 -43 -57 -116zM1161 610l38 19l-19 38zM1199 667l39 -19l19 38l-39 39z" />
<glyph unicode="&#xf2;" horiz-adv-x="1391" d="M19 540l19 192l19 58q32 122 135 230q70 103 192 192l288 77q148 -26 307 -77q110 -61 230 -153l135 -231l38 -192l-38 -57q-10 -140 -58 -288q-73 -97 -173 -192l-249 -134q-139 12 -162 -8l-88 8q-137 37 -269 114q-105 72 -192 173l-115 211zM115 636q6 -25 38 -38 l20 19zM192 310q65 43 77 115zM192 790q40 25 77 77l19 -77l38 57q-6 58 -57 96zM230 655q-25 -4 86 -22l-28 -35q96 -49 77 -115l147 -173q53 -67 104 -65l103 -8l38 19l119 44q89 55 141 144l20 192q0 75 -39 154l-57 173l-112 40q-77 39 -152 7l-107 -38 q-97 -64 -148 -144q-41 -74 -57 -173l-77 20zM269 233q36 32 38 77zM269 502l76 -58q-25 43 -76 58zM307 214q8 -38 38 -58zM365 1097q8 -38 38 -58zM417 1763l51 19l41 5l28 -10l105 25l160 -333l-22 -43q-17 -1 -34 -1q-59 0 -116 11l-70 140l-93 98q-25 53 -50 89z M518 1135l39 20l-39 19v-39zM576 1078l19 -39v39h-19zM633 1193q24 -54 77 -96q-18 62 -77 96zM710 79l58 -19l38 96h-57zM710 1251q7 -20 39 -39q-5 26 -39 39zM768 1231l19 -38v38h-19zM979 1039q34 -42 96 -76l38 57zM1037 406l19 -96q49 5 96 38zM1075 521q6 -25 38 -38 q-6 19 -38 38zM1094 636q9 -48 58 -77q-15 47 -58 77zM1094 905q28 -52 96 -77q-33 49 -96 77zM1152 540l19 -38l77 38l-58 39q-7 -22 -38 -39z" />
<glyph unicode="&#xf3;" horiz-adv-x="1391" d="M19 540l19 192l19 58q32 122 135 230q70 103 192 192l288 77q148 -26 307 -77q110 -61 230 -153l135 -231l38 -192l-38 -57q-10 -140 -58 -288q-73 -97 -173 -192l-249 -134q-139 12 -162 -8l-88 8q-137 37 -269 114q-105 72 -192 173l-115 211zM115 636q6 -25 38 -38 l20 19zM192 310q65 43 77 115zM192 790q40 25 77 77l19 -77l38 57q-6 58 -57 96zM230 655q-25 -4 86 -22l-28 -35q96 -49 77 -115l147 -173q53 -67 104 -65l103 -8l38 19l119 44q89 55 141 144l20 192q0 75 -39 154l-57 173l-112 40q-77 39 -152 7l-107 -38 q-97 -64 -148 -144q-41 -74 -57 -173l-77 20zM269 233q36 32 38 77zM269 502l76 -58q-25 43 -76 58zM307 214q8 -38 38 -58zM365 1097q8 -38 38 -58zM518 1135l39 20l-39 19v-39zM576 1078l19 -39v39h-19zM585 1469l160 333l105 -25l28 10l41 -5l51 -19q-25 -36 -50 -89 l-93 -98l-70 -140q-57 -11 -116 -11q-17 0 -34 1zM633 1193q24 -54 77 -96q-18 62 -77 96zM710 79l58 -19l38 96h-57zM710 1251q7 -20 39 -39q-5 26 -39 39zM768 1231l19 -38v38h-19zM979 1039q34 -42 96 -76l38 57zM1037 406l19 -96q49 5 96 38zM1075 521q6 -25 38 -38 q-6 19 -38 38zM1094 636q9 -48 58 -77q-15 47 -58 77zM1094 905q28 -52 96 -77q-33 49 -96 77zM1152 540l19 -38l77 38l-58 39q-7 -22 -38 -39z" />
<glyph unicode="&#xf4;" horiz-adv-x="1391" d="M19 540l19 192l19 58q32 122 135 230q70 103 192 192l288 77q148 -26 307 -77q110 -61 230 -153l135 -231l38 -192l-38 -57q-10 -140 -58 -288q-73 -97 -173 -192l-249 -134q-139 12 -162 -8l-88 8q-137 37 -269 114q-105 72 -192 173l-115 211zM115 636q6 -25 38 -38 l20 19zM192 310q65 43 77 115zM192 790q40 25 77 77l19 -77l38 57q-6 58 -57 96zM230 655q-25 -4 86 -22l-28 -35q96 -49 77 -115l147 -173q53 -67 104 -65l103 -8l38 19l119 44q89 55 141 144l20 192q0 75 -39 154l-57 173l-112 40q-77 39 -152 7l-107 -38 q-97 -64 -148 -144q-41 -74 -57 -173l-77 20zM269 233q36 32 38 77zM269 502l76 -58q-25 43 -76 58zM307 214q8 -38 38 -58zM365 1097q8 -38 38 -58zM491 1438l33 78l16 58l65 114l50 88l9 16l99 -6l64 -120l27 -51l69 -180l-112 -30l-24 59l-79 95l-55 -98l-40 -50z M518 1135l39 20l-39 19v-39zM576 1078l19 -39v39h-19zM633 1193q24 -54 77 -96q-18 62 -77 96zM710 79l58 -19l38 96h-57zM710 1251q7 -20 39 -39q-5 26 -39 39zM768 1231l19 -38v38h-19zM979 1039q34 -42 96 -76l38 57zM1037 406l19 -96q49 5 96 38zM1075 521q6 -25 38 -38 q-6 19 -38 38zM1094 636q9 -48 58 -77q-15 47 -58 77zM1094 905q28 -52 96 -77q-33 49 -96 77zM1152 540l19 -38l77 38l-58 39q-7 -22 -38 -39z" />
<glyph unicode="&#xf5;" horiz-adv-x="1391" d="M19 540l19 192l19 58q32 122 135 230q70 103 192 192l288 77q148 -26 307 -77q110 -61 230 -153l135 -231l38 -192l-38 -57q-10 -140 -58 -288q-73 -97 -173 -192l-249 -134q-139 12 -162 -8l-88 8q-137 37 -269 114q-105 72 -192 173l-115 211zM115 636q6 -25 38 -38 l20 19zM192 310q65 43 77 115zM192 790q40 25 77 77l19 -77l38 57q-6 58 -57 96zM230 655q-25 -4 86 -22l-28 -35q96 -49 77 -115l147 -173q53 -67 104 -65l103 -8l38 19l119 44q89 55 141 144l20 192q0 75 -39 154l-57 173l-112 40q-77 39 -152 7l-107 -38 q-97 -64 -148 -144q-41 -74 -57 -173l-77 20zM269 233q36 32 38 77zM269 502l76 -58q-25 43 -76 58zM307 214q8 -38 38 -58zM344 1460l17 111l14 23l83 70l17 18l87 32q57 3 100 -4q47 -21 84 -53l52 -67q50 -16 104 -12l10 36l73 3l-52 38l27 65l78 -19l29 -55l1 -51 l-41 -81q-37 -40 -82 -71l-17 -18l-66 -22l-105 13l-76 66l10 36q-32 11 -66 10l-52 36l-80 -48l-20 -10l9 -64l-119 -16zM365 1097q8 -38 38 -58zM518 1135l39 20l-39 19v-39zM576 1078l19 -39v39h-19zM633 1193q24 -54 77 -96q-18 62 -77 96zM710 79l58 -19l38 96h-57z M710 1251q7 -20 39 -39q-5 26 -39 39zM768 1231l19 -38v38h-19zM979 1039q34 -42 96 -76l38 57zM1037 406l19 -96q49 5 96 38zM1075 521q6 -25 38 -38q-6 19 -38 38zM1094 636q9 -48 58 -77q-15 47 -58 77zM1094 905q28 -52 96 -77q-33 49 -96 77zM1152 540l19 -38l77 38 l-58 39q-7 -22 -38 -39z" />
<glyph unicode="&#xf6;" horiz-adv-x="1391" d="M19 540l19 192l19 58q32 122 135 230q70 103 192 192l288 77q148 -26 307 -77q110 -61 230 -153l135 -231l38 -192l-38 -57q-10 -140 -58 -288q-73 -97 -173 -192l-249 -134q-139 12 -162 -8l-88 8q-137 37 -269 114q-105 72 -192 173l-115 211zM115 636q6 -25 38 -38 l20 19zM192 310q65 43 77 115zM192 790q40 25 77 77l19 -77l38 57q-6 58 -57 96zM230 655q-25 -4 86 -22l-28 -35q96 -49 77 -115l147 -173q53 -67 104 -65l103 -8l38 19l119 44q89 55 141 144l20 192q0 75 -39 154l-57 173l-112 40q-77 39 -152 7l-107 -38 q-97 -64 -148 -144q-41 -74 -57 -173l-77 20zM269 233q36 32 38 77zM269 502l76 -58q-25 43 -76 58zM307 214q8 -38 38 -58zM365 1097q8 -38 38 -58zM365 1612q70 86 200 92q36 -14 76 -46q7 -51 31 -107l-31 -31q-45 -45 -107 -92l-92 31zM518 1135l39 20l-39 19v-39z M534 1520q20 5 31 31q-21 -3 -31 -31zM576 1078l19 -39v39h-19zM633 1193q24 -54 77 -96q-18 62 -77 96zM710 79l58 -19l38 96h-57zM710 1251q7 -20 39 -39q-5 26 -39 39zM751 1534q13 81 93 154l76 30l108 -107q-21 -106 -108 -184q-95 19 -169 107zM768 1231l19 -38v38 h-19zM979 1039q34 -42 96 -76l38 57zM1037 406l19 -96q49 5 96 38zM1075 521q6 -25 38 -38q-6 19 -38 38zM1094 636q9 -48 58 -77q-15 47 -58 77zM1094 905q28 -52 96 -77q-33 49 -96 77zM1152 540l19 -38l77 38l-58 39q-7 -22 -38 -39z" />
<glyph unicode="&#xf7;" horiz-adv-x="1124" />
<glyph unicode="&#xf8;" horiz-adv-x="1251" />
<glyph unicode="&#xf9;" horiz-adv-x="1203" d="M29 1296q111 -19 250 -19q83 -11 115 -116v-268l-19 -135l19 -38l-19 -192l19 -77l-77 -192l58 -19l-20 -39l20 -19l57 39q-2 26 -38 38l19 77l-19 38l96 -96l57 -38l173 38q71 42 115 135q8 75 39 153l-39 39l39 192l-39 115l39 38l-19 192l-39 135l96 19l19 -19l154 19 l58 -19l38 -250q-9 -98 -58 -211l58 -154q-2 -126 -38 -269l-39 -230l-173 -134l-403 -58l-57 20q-109 26 -231 76l-134 173q-58 249 -48 319.5t9 198.5zM106 758l38 -57l77 57h-115zM125 854q35 43 38 96zM183 1046q14 -41 57 -57q-15 40 -57 57zM202 893l77 -20l-20 96z M240 201q8 -37 39 -57zM298 893l57 -58q-16 38 -57 58zM317 1104h38v57h-19zM336 1763l51 19l41 5l28 -10l105 25l160 -333l-22 -43q-17 -1 -34 -1q-59 0 -116 11l-70 140l-93 98q-25 53 -50 89zM432 144q8 -44 39 -77l19 58zM567 182q7 -19 38 -38l19 19zM701 201h58 q-8 39 -39 58zM778 86l19 -38v38h-19zM855 48h38v57h-19zM855 317q28 -68 115 -116q-32 72 -115 116zM874 374h38v39h-19zM893 585q8 -37 38 -57zM970 393q5 -19 38 -38l19 115q-6 19 -38 39zM970 681l38 -57q-7 38 -38 57zM1008 1142l58 58l-58 19v-77zM1027 931h96l20 58 h-58zM1066 605l38 19v38h-19z" />
<glyph unicode="&#xfa;" horiz-adv-x="1203" d="M29 1296q111 -19 250 -19q83 -11 115 -116v-268l-19 -135l19 -38l-19 -192l19 -77l-77 -192l58 -19l-20 -39l20 -19l57 39q-2 26 -38 38l19 77l-19 38l96 -96l57 -38l173 38q71 42 115 135q8 75 39 153l-39 39l39 192l-39 115l39 38l-19 192l-39 135l96 19l19 -19l154 19 l58 -19l38 -250q-9 -98 -58 -211l58 -154q-2 -126 -38 -269l-39 -230l-173 -134l-403 -58l-57 20q-109 26 -231 76l-134 173q-58 249 -48 319.5t9 198.5zM106 758l38 -57l77 57h-115zM125 854q35 43 38 96zM183 1046q14 -41 57 -57q-15 40 -57 57zM202 893l77 -20l-20 96z M240 201q8 -37 39 -57zM298 893l57 -58q-16 38 -57 58zM317 1104h38v57h-19zM432 144q8 -44 39 -77l19 58zM500 1469l160 333l105 -25l28 10l41 -5l51 -19q-25 -36 -50 -89l-93 -98l-70 -140q-57 -11 -116 -11q-17 0 -34 1zM567 182q7 -19 38 -38l19 19zM701 201h58 q-8 39 -39 58zM778 86l19 -38v38h-19zM855 48h38v57h-19zM855 317q28 -68 115 -116q-32 72 -115 116zM874 374h38v39h-19zM893 585q8 -37 38 -57zM970 393q5 -19 38 -38l19 115q-6 19 -38 39zM970 681l38 -57q-7 38 -38 57zM1008 1142l58 58l-58 19v-77zM1027 931h96l20 58 h-58zM1066 605l38 19v38h-19z" />
<glyph unicode="&#xfb;" horiz-adv-x="1203" d="M29 1296q111 -19 250 -19q83 -11 115 -116v-268l-19 -135l19 -38l-19 -192l19 -77l-77 -192l58 -19l-20 -39l20 -19l57 39q-2 26 -38 38l19 77l-19 38l96 -96l57 -38l173 38q71 42 115 135q8 75 39 153l-39 39l39 192l-39 115l39 38l-19 192l-39 135l96 19l19 -19l154 19 l58 -19l38 -250q-9 -98 -58 -211l58 -154q-2 -126 -38 -269l-39 -230l-173 -134l-403 -58l-57 20q-109 26 -231 76l-134 173q-58 249 -48 319.5t9 198.5zM106 758l38 -57l77 57h-115zM125 854q35 43 38 96zM183 1046q14 -41 57 -57q-15 40 -57 57zM202 893l77 -20l-20 96z M240 201q8 -37 39 -57zM298 893l57 -58q-16 38 -57 58zM317 1104h38v57h-19zM386 1438l33 78l16 58l65 114l50 88l9 16l99 -6l64 -120l27 -51l69 -180l-112 -30l-24 59l-79 95l-55 -98l-40 -50zM432 144q8 -44 39 -77l19 58zM567 182q7 -19 38 -38l19 19zM701 201h58 q-8 39 -39 58zM778 86l19 -38v38h-19zM855 48h38v57h-19zM855 317q28 -68 115 -116q-32 72 -115 116zM874 374h38v39h-19zM893 585q8 -37 38 -57zM970 393q5 -19 38 -38l19 115q-6 19 -38 39zM970 681l38 -57q-7 38 -38 57zM1008 1142l58 58l-58 19v-77zM1027 931h96l20 58 h-58zM1066 605l38 19v38h-19z" />
<glyph unicode="&#xfc;" horiz-adv-x="1203" d="M29 1296q111 -19 250 -19q83 -11 115 -116v-268l-19 -135l19 -38l-19 -192l19 -77l-77 -192l58 -19l-20 -39l20 -19l57 39q-2 26 -38 38l19 77l-19 38l96 -96l57 -38l173 38q71 42 115 135q8 75 39 153l-39 39l39 192l-39 115l39 38l-19 192l-39 135l96 19l19 -19l154 19 l58 -19l38 -250q-9 -98 -58 -211l58 -154q-2 -126 -38 -269l-39 -230l-173 -134l-403 -58l-57 20q-109 26 -231 76l-134 173q-58 249 -48 319.5t9 198.5zM106 758l38 -57l77 57h-115zM125 854q35 43 38 96zM183 1046q14 -41 57 -57q-15 40 -57 57zM202 893l77 -20l-20 96z M240 201q8 -37 39 -57zM254 1612q70 86 200 92q36 -14 76 -46q7 -51 31 -107l-31 -31q-45 -45 -107 -92l-92 31zM298 893l57 -58q-16 38 -57 58zM317 1104h38v57h-19zM423 1520q20 5 31 31q-21 -3 -31 -31zM432 144q8 -44 39 -77l19 58zM567 182q7 -19 38 -38l19 19z M640 1534q13 81 93 154l76 30l108 -107q-21 -106 -108 -184q-95 19 -169 107zM701 201h58q-8 39 -39 58zM778 86l19 -38v38h-19zM855 48h38v57h-19zM855 317q28 -68 115 -116q-32 72 -115 116zM874 374h38v39h-19zM893 585q8 -37 38 -57zM970 393q5 -19 38 -38l19 115 q-6 19 -38 39zM970 681l38 -57q-7 38 -38 57zM1008 1142l58 58l-58 19v-77zM1027 931h96l20 58h-58zM1066 605l38 19v38h-19z" />
<glyph unicode="&#xfd;" horiz-adv-x="1024" />
<glyph unicode="&#xfe;" horiz-adv-x="1139" />
<glyph unicode="&#xff;" horiz-adv-x="960" d="M-61 1293l55 -10l38 4l201 8l125 -277q51 -90 77 -192l96 96q46 143 154 269l19 96l193 12l137 -15q-12 -101 -81 -209l-192 -268l-134 -269l19 -58l-19 -173q-41 41 -96 58q62 -96 115 -230l-38 -154q-103 9 -211 38l-116 -19l39 135l-19 115l38 230q-44 146 -154 288 q-72 113 -134 288q-46 21 -112 237zM143 1612q70 86 200 92q36 -14 76 -46q7 -51 31 -107l-31 -31q-45 -45 -107 -92l-92 31zM205 883q16 -27 57 -38zM243 1095l38 -20v58h-19zM312 1520q20 5 31 31q-21 -3 -31 -31zM320 711l77 19q0 49 -39 77zM358 615q35 -44 96 -58z M397 365q16 -27 57 -38q-16 28 -57 38zM397 672q43 -49 96 -77q-32 50 -96 77zM397 711l57 -20l39 116zM512 192l38 -19l19 58h-38zM529 1534q13 81 93 154l76 30l108 -107q-21 -106 -108 -184q-95 19 -169 107zM569 845l20 -38v38h-20zM627 903l38 -20l58 39l-58 19z M665 1095q16 -56 58 -96q-7 54 -58 96zM819 1114q10 -43 58 -77q-15 46 -58 77z" />
<glyph unicode="&#x152;" horiz-adv-x="2048" />
<glyph unicode="&#x153;" horiz-adv-x="1933" />
<glyph unicode="&#x178;" horiz-adv-x="960" d="M-61 1293l55 -10l38 4l201 8l125 -277q51 -90 77 -192l96 96q46 143 154 269l19 96l193 12l137 -15q-12 -101 -81 -209l-192 -268l-134 -269l19 -58l-19 -173q-41 41 -96 58q62 -96 115 -230l-38 -154q-103 9 -211 38l-116 -19l39 135l-19 115l38 230q-44 146 -154 288 q-72 113 -134 288q-46 21 -112 237zM143 1612q70 86 200 92q35 -14 76 -46q7 -51 31 -108l-31 -30q-45 -45 -107 -92l-92 30zM205 883q16 -27 57 -38zM243 1095l38 -20v58h-19zM312 1520q20 4 31 30q-21 -3 -31 -30zM320 711l77 19q0 49 -39 77zM358 615q35 -44 96 -58z M397 365q16 -27 57 -38q-16 28 -57 38zM397 672q43 -49 96 -77q-32 50 -96 77zM397 711l57 -20l39 116zM512 192l38 -19l19 58h-38zM529 1534q12 81 92 153l77 31l108 -108q-21 -105 -108 -184q-95 19 -169 108zM569 845l20 -38v38h-20zM627 903l38 -20l58 39l-58 19z M665 1095q16 -56 58 -96q-7 54 -58 96zM819 1114q10 -43 58 -77q-15 46 -58 77z" />
<glyph unicode="&#x2c6;" horiz-adv-x="609" d="M72 1438l33 78l16 58l65 114l50 88l9 16l99 -6l64 -120l27 -51l69 -180l-112 -30l-24 59l-79 95l-55 -98l-40 -50z" />
<glyph unicode="&#x2dc;" horiz-adv-x="804" d="M42 1460l17 111l14 23l83 70l17 18l87 32q57 3 100 -4q47 -21 84 -53l52 -67q50 -16 104 -12l10 36l73 3l-52 38l27 65l78 -19l29 -55l1 -51l-41 -81q-37 -40 -82 -71l-17 -18l-66 -22l-105 13l-76 66l10 36q-32 11 -66 10l-52 36l-80 -48l-20 -10l9 -64l-119 -16z" />
<glyph unicode="&#x2000;" horiz-adv-x="901" />
<glyph unicode="&#x2001;" horiz-adv-x="1803" />
<glyph unicode="&#x2002;" horiz-adv-x="901" />
<glyph unicode="&#x2003;" horiz-adv-x="1803" />
<glyph unicode="&#x2004;" horiz-adv-x="601" />
<glyph unicode="&#x2005;" horiz-adv-x="450" />
<glyph unicode="&#x2006;" horiz-adv-x="300" />
<glyph unicode="&#x2007;" horiz-adv-x="300" />
<glyph unicode="&#x2008;" horiz-adv-x="225" />
<glyph unicode="&#x2009;" horiz-adv-x="360" />
<glyph unicode="&#x200a;" horiz-adv-x="100" />
<glyph unicode="&#x2010;" horiz-adv-x="753" d="M64 607l19 19l-19 154l19 57l442 -38l96 38l57 -115l20 -96l-20 -38l20 -39h-20l-96 -19l-38 19h-96l-58 19q-61 -17 -153 -19l-154 -19z" />
<glyph unicode="&#x2011;" horiz-adv-x="753" d="M64 607l19 19l-19 154l19 57l442 -38l96 38l57 -115l20 -96l-20 -38l20 -39h-20l-96 -19l-38 19h-96l-58 19q-61 -17 -153 -19l-154 -19z" />
<glyph unicode="&#x2012;" horiz-adv-x="753" d="M64 607l19 19l-19 154l19 57l442 -38l96 38l57 -115l20 -96l-20 -38l20 -39h-20l-96 -19l-38 19h-96l-58 19q-61 -17 -153 -19l-154 -19z" />
<glyph unicode="&#x2013;" horiz-adv-x="1139" />
<glyph unicode="&#x2014;" horiz-adv-x="2048" />
<glyph unicode="&#x2018;" horiz-adv-x="393" d="M86 838l19 231l19 57l-38 154l19 57h192l-19 -230l38 -250l-57 -38zM182 1088l19 -39v39h-19z" />
<glyph unicode="&#x2019;" horiz-adv-x="393" d="M86 838l19 231l19 57l-38 154l19 57h192l-19 -230l38 -250l-57 -38zM182 1088l19 -39v39h-19z" />
<glyph unicode="&#x201a;" horiz-adv-x="455" />
<glyph unicode="&#x201c;" horiz-adv-x="717" d="M103 1289l19 57l192 -19l-19 -173l19 -249l-19 -58l-173 -19l19 154l-19 57zM410 866l39 116l-20 307l39 57l153 -19l-19 -230l39 -77l-39 -192z" />
<glyph unicode="&#x201d;" horiz-adv-x="717" d="M103 1289l19 57l192 -19l-19 -173l19 -249l-19 -58l-173 -19l19 154l-19 57zM410 866l39 116l-20 307l39 57l153 -19l-19 -230l39 -77l-39 -192z" />
<glyph unicode="&#x201e;" horiz-adv-x="682" />
<glyph unicode="&#x2022;" horiz-adv-x="717" />
<glyph unicode="&#x2026;" horiz-adv-x="2048" />
<glyph unicode="&#x202f;" horiz-adv-x="360" />
<glyph unicode="&#x2039;" horiz-adv-x="682" />
<glyph unicode="&#x203a;" horiz-adv-x="682" />
<glyph unicode="&#x205f;" horiz-adv-x="450" />
<glyph unicode="&#x20ac;" horiz-adv-x="1049" d="M16 678l58 192q32 91 96 172l134 135l115 57q22 -7 39 -38q64 53 153 96l211 -19q76 -27 154 -77l38 -173q-8 -77 -57 -153l-135 115l-96 19l-38 -19h-38q-84 -26 -173 -77l-115 -134l-16 -10l13 -1l95 11l414 11l95 -11l-32 -111l-286 11l-314 -8l11 -27l12 -53l5 -1 l509 11l95 -23l-32 -89l-381 12l-128 -23l-43 3l2 -10l115 -153q89 -41 192 -58l-7 -77q39 7 57 39q120 57 180 96q35 45 96 77l-19 -77l19 -154l-19 -57q-39 -61 -115 -114l-192 -20q-88 17 -192 57l-77 -57l-19 76l19 19q-84 12 -173 58l-134 134l-38 115l96 20l57 38 q-6 29 -20 61l-26 1l-11 -43l-77 -57l-58 38zM285 332q42 27 57 77zM342 274l20 -38v38h-20zM381 198l19 -39v39h-19zM400 332q17 -27 58 -38zM496 1177q5 -36 38 -58zM515 140q6 -25 39 -38q-5 25 -39 38zM592 25l19 -37v37h-19zM611 121q15 -46 58 -77zM611 1215l58 -38 q-16 28 -58 38z" />
<glyph unicode="&#x2122;" horiz-adv-x="2048" />
<glyph unicode="&#x25fc;" horiz-adv-x="1285" d="M0 0v1285h1285v-1285h-1285z" />
<glyph unicode="&#xfb01;" horiz-adv-x="1024" />
<glyph unicode="&#xfb02;" horiz-adv-x="1024" />
</font>
</defs>
</svg>
