<?xml version="1.0" encoding="utf-8"?>
<!-- Generator: Adobe Illustrator 16.0.3, SVG Export Plug-In . SVG Version: 6.00 Build 0)  -->
<!DOCTYPE svg PUBLIC "-//W3C//DTD SVG 1.1//EN" "http://www.w3.org/Graphics/SVG/1.1/DTD/svg11.dtd">
<svg version="1.1" id="Layer_1" xmlns="http://www.w3.org/2000/svg" xmlns:xlink="http://www.w3.org/1999/xlink" x="0px" y="0px"
	 width="32px" height="32px" viewBox="0 0 32 32" style="enable-background:new 0 0 32 32;" xml:space="preserve">
<style type="text/css">
<![CDATA[
	.st0{display:none;fill:#FF50AF;}
	.st1{fill:#FFFFFF;}
	.st2{fill:url(#triangle36_10_);}
	.st3{fill:url(#triangle36_11_);}
	.st4{fill:url(#triangle36_12_);}
	.st5{fill:url(#triangle36_13_);}
	.st6{fill:url(#triangle36_1_);}
	.st7{fill:url(#triangle36_2_);}
	.st8{fill:url(#triangle36_3_);}
	.st9{fill:url(#triangle36_4_);}
	.st10{fill:url(#triangle36_5_);}
	.st11{fill:url(#triangle36_6_);}
	.st12{fill:url(#triangle36_7_);}
	.st13{fill:url(#triangle36_8_);}
	.st14{fill:url(#triangle36_9_);}
]]>
</style>
<rect class="st0" width="32" height="32"/>
<g>
	
		<linearGradient id="triangle36_1_" gradientUnits="userSpaceOnUse" x1="-133.2896" y1="53.168" x2="-133.2484" y2="53.1268" gradientTransform="matrix(318 0 0 -274 42401.75 14569.25)">
		<stop  offset="0" style="stop-color:#DE3B25"/>
		<stop  offset="1" style="stop-color:#EB503A"/>
	</linearGradient>
	<polygon id="triangle36_213_" class="st6" points="15.9,0.8 23.8,12.1 29,8.4 	"/>
	
		<linearGradient id="triangle36_2_" gradientUnits="userSpaceOnUse" x1="-132.6919" y1="53.4639" x2="-132.6507" y2="53.4227" gradientTransform="matrix(427 0 0 -409 56663 21870)">
		<stop  offset="0" style="stop-color:#E13C26"/>
		<stop  offset="1" style="stop-color:#F06049"/>
	</linearGradient>
	<polygon id="triangle36_212_" class="st7" points="15.9,0.8 23.8,12.1 6.2,17.7 	"/>
	
		<linearGradient id="triangle36_3_" gradientUnits="userSpaceOnUse" x1="-132.686" y1="54.2578" x2="-132.6453" y2="54.2171" gradientTransform="matrix(427 0 0 -135 56663 7336.875)">
		<stop  offset="0" style="stop-color:#F46B54"/>
		<stop  offset="1" style="stop-color:#F46B56"/>
	</linearGradient>
	<polygon id="triangle36_211_" class="st8" points="6.2,17.7 23.8,12.1 23.8,12.1 	"/>
	
		<linearGradient id="triangle36_4_" gradientUnits="userSpaceOnUse" x1="-135.1689" y1="53.4395" x2="-135.1263" y2="53.3968" gradientTransform="matrix(127 0 0 -90 17190.125 4818)">
		<stop  offset="0" style="stop-color:#F26A53"/>
		<stop  offset="1" style="stop-color:#EE5F4A"/>
	</linearGradient>
	<polygon id="triangle36_210_" class="st9" points="23.8,12.1 29,8.4 23.8,12.1 	"/>
	
		<linearGradient id="triangle36_5_" gradientUnits="userSpaceOnUse" x1="-132.3262" y1="53.4717" x2="-132.285" y2="53.4305" gradientTransform="matrix(320 0 0 -409 42347.75 21870)">
		<stop  offset="0" style="stop-color:#EC5840"/>
		<stop  offset="1" style="stop-color:#DF4630"/>
	</linearGradient>
	<polygon id="triangle36_209_" class="st10" points="6.2,17.7 15.9,0.8 2.7,8.4 	"/>
	
		<linearGradient id="triangle36_6_" gradientUnits="userSpaceOnUse" x1="-130.4507" y1="53.8574" x2="-130.4095" y2="53.8163" gradientTransform="matrix(84 0 0 -369 10960 19884.25)">
		<stop  offset="0" style="stop-color:#E6543B"/>
		<stop  offset="1" style="stop-color:#EF654A"/>
	</linearGradient>
	<polygon id="triangle36_208_" class="st11" points="2.7,8.4 6.2,17.7 2.7,23.6 	"/>
	
		<linearGradient id="triangle36_7_" gradientUnits="userSpaceOnUse" x1="-132.3257" y1="54.499" x2="-132.2845" y2="54.4579" gradientTransform="matrix(318 0 0 -329 42081.75 17948.25)">
		<stop  offset="0" style="stop-color:#F46548"/>
		<stop  offset="1" style="stop-color:#F67253"/>
	</linearGradient>
	<polygon id="triangle36_207_" class="st12" points="2.7,23.6 6.2,17.7 15.8,31.2 	"/>
	
		<linearGradient id="triangle36_8_" gradientUnits="userSpaceOnUse" x1="-132.5928" y1="54.5029" x2="-132.5516" y2="54.4618" gradientTransform="matrix(332 0 0 -329 44027.75 17948.25)">
		<stop  offset="0" style="stop-color:#F66649"/>
		<stop  offset="1" style="stop-color:#FA7452"/>
	</linearGradient>
	<polygon id="triangle36_206_" class="st13" points="6.2,17.7 15.8,31.2 19.8,23.3 	"/>
	
		<linearGradient id="triangle36_9_" gradientUnits="userSpaceOnUse" x1="-132.6816" y1="54.1377" x2="-132.6405" y2="54.0965" gradientTransform="matrix(427 0 0 -272 56663 14736.25)">
		<stop  offset="0" style="stop-color:#F46047"/>
		<stop  offset="1" style="stop-color:#F6664D"/>
	</linearGradient>
	<polygon id="triangle36_205_" class="st14" points="6.2,17.7 23.8,12.1 19.8,23.3 	"/>
	
		<linearGradient id="triangle36_10_" gradientUnits="userSpaceOnUse" x1="-133.2803" y1="55.5527" x2="-133.2391" y2="55.5116" gradientTransform="matrix(320 0 0 -191 42665.75 10633.875)">
		<stop  offset="0" style="stop-color:#FA7A53"/>
		<stop  offset="1" style="stop-color:#F96946"/>
	</linearGradient>
	<polygon id="triangle36_204_" class="st2" points="15.8,31.2 29,23.6 19.8,23.3 	"/>
	
		<linearGradient id="triangle36_11_" gradientUnits="userSpaceOnUse" x1="-133.8359" y1="54.124" x2="-133.7948" y2="54.0829" gradientTransform="matrix(222 0 0 -277 29730.125 15006.25)">
		<stop  offset="0" style="stop-color:#F96349"/>
		<stop  offset="1" style="stop-color:#F66349"/>
	</linearGradient>
	<polygon id="triangle36_203_" class="st3" points="19.8,23.3 23.8,12.1 29,23.5 	"/>
	
		<linearGradient id="triangle36_12_" gradientUnits="userSpaceOnUse" x1="-133.8271" y1="96.3672" x2="-133.7861" y2="96.3261" gradientTransform="matrix(222 0 0 -7 29730.125 697.8984)">
		<stop  offset="0" style="stop-color:#FA7455"/>
		<stop  offset="1" style="stop-color:#F86A46"/>
	</linearGradient>
	<polygon id="triangle36_202_" class="st4" points="19.8,23.3 29,23.6 29,23.5 	"/>
	
		<linearGradient id="triangle36_13_" gradientUnits="userSpaceOnUse" x1="-135.1606" y1="53.8721" x2="-135.1195" y2="53.8309" gradientTransform="matrix(127 0 0 -367 17190.125 19776.25)">
		<stop  offset="0" style="stop-color:#F36049"/>
		<stop  offset="1" style="stop-color:#F05235"/>
	</linearGradient>
	<polygon id="triangle36_201_" class="st5" points="23.8,12.1 29,8.4 29,23.5 	"/>
</g>
<text transform="matrix(1 0 0 1 36.8291 24.3994)" class="st1" style="font-family:'Pe-icon-7-stroke'; font-size:19.2215;"></text>
<g>
	<path class="st1" d="M24.1,15.8c0,0.2,0,0.3-0.1,0.5c0,0.1-0.1,0.3-0.2,0.4c-0.1,0.1-0.2,0.2-0.3,0.3c-0.1,0.1-0.3,0.1-0.4,0.2
		c0,0,0.1,0.1,0.1,0.2c0,0.1,0.1,0.1,0.1,0.2c0,0.1,0,0.1,0.1,0.2c0,0.1,0,0.2,0,0.2c0,0.1,0,0.3-0.1,0.5c-0.1,0.2-0.1,0.3-0.2,0.4
		c-0.1,0.1-0.2,0.2-0.3,0.3c-0.1,0.1-0.3,0.2-0.4,0.2c0,0.1,0.1,0.1,0.1,0.2c0,0.1,0.1,0.1,0.1,0.2c0,0.1,0,0.1,0.1,0.2s0,0.2,0,0.2
		c0,0.2,0,0.3-0.1,0.5c-0.1,0.1-0.1,0.3-0.2,0.4c-0.1,0.1-0.2,0.2-0.3,0.3s-0.3,0.1-0.4,0.2c0.1,0.1,0.1,0.1,0.1,0.2
		c0,0.1,0.1,0.1,0.1,0.2c0,0.1,0,0.1,0.1,0.2c0,0.1,0,0.2,0,0.2c0,0.2,0,0.4-0.1,0.5c-0.1,0.2-0.2,0.3-0.3,0.5
		c-0.1,0.1-0.3,0.2-0.5,0.3s-0.4,0.1-0.6,0.1h-5c-0.2,0-0.4,0-0.6-0.1c-0.2,0-0.5-0.1-0.7-0.2c-0.3-0.1-0.5-0.2-0.8-0.3
		c-0.3-0.1-0.5-0.2-0.8-0.3c-0.2-0.1-0.3-0.1-0.5-0.2c-0.2-0.1-0.3-0.1-0.4-0.2c-0.1,0-0.3-0.1-0.4-0.1c-0.1,0-0.2-0.1-0.3-0.1H7.7
		v-7.3L8,15c0.4,0,0.8,0,1.1,0c0.3,0,0.6,0,0.9,0s0.6,0,0.9,0c0.2,0,0.4,0,0.6-0.1c0.2,0,0.4-0.1,0.6-0.3c0.2-0.1,0.5-0.3,0.8-0.5
		c0.3-0.2,0.6-0.5,1-0.8c0.4-0.3,0.7-0.7,0.9-1.2c0.2-0.5,0.4-0.9,0.5-1.3c0.1-0.4,0.2-0.8,0.2-1.1c0-0.3,0-0.5,0-0.6
		c0-0.1,0-0.3,0.1-0.4c0.1-0.1,0.2-0.2,0.3-0.3c0.1-0.1,0.3-0.1,0.4-0.2c0.1,0,0.3-0.1,0.4-0.1c0.2,0,0.4,0,0.6,0.1
		c0.2,0.1,0.4,0.2,0.6,0.3C18,8.8,18.2,9,18.3,9.3c0.1,0.3,0.2,0.7,0.2,1.1c0,0.4,0,0.8-0.1,1.2c-0.1,0.4-0.1,0.8-0.2,1.1
		c-0.1,0.4-0.2,0.7-0.3,1c-0.1,0.3-0.2,0.5-0.3,0.7h5.1c0.2,0,0.4,0,0.6,0.1s0.3,0.2,0.5,0.3c0.1,0.1,0.2,0.3,0.3,0.4
		C24,15.4,24.1,15.6,24.1,15.8z M22.6,16.6c0.1,0,0.2,0,0.3-0.1c0.1,0,0.2-0.1,0.2-0.2c0.1-0.1,0.1-0.2,0.2-0.2
		c0-0.1,0.1-0.2,0.1-0.3c0-0.1,0-0.2-0.1-0.3c0-0.1-0.1-0.2-0.2-0.2s-0.1-0.1-0.2-0.2S22.8,15,22.6,15h-2.3v0v0h-3.9l0.2-0.5
		c0.2-0.5,0.4-0.9,0.5-1.3c0.1-0.4,0.3-0.8,0.4-1.3c0.1-0.5,0.2-1,0.2-1.5c0-0.4,0-0.7-0.1-0.9c-0.1-0.2-0.2-0.4-0.3-0.5
		c-0.1-0.1-0.2-0.2-0.4-0.2c-0.1,0-0.2,0-0.3,0c0,0-0.1,0-0.2,0c-0.1,0-0.1,0.1-0.2,0.1S16.2,9,16.2,9c0,0.1-0.1,0.1-0.1,0.1
		c0,0.2,0,0.4,0,0.8c0,0.4-0.1,0.8-0.2,1.2c-0.1,0.5-0.3,0.9-0.5,1.4c-0.2,0.5-0.6,0.9-1,1.2c-0.4,0.4-0.8,0.6-1.1,0.9
		c-0.3,0.2-0.6,0.4-0.8,0.6c-0.2,0.1-0.5,0.3-0.8,0.3s-0.5,0.1-0.8,0.1c-0.2,0-0.4,0-0.7,0s-0.5,0-0.7,0c-0.2,0-0.5,0-0.7,0
		c-0.2,0-0.4,0-0.5,0v6.1h2.8c0.1,0,0.2,0,0.3,0c0.1,0,0.2,0.1,0.4,0.1c0.1,0.1,0.3,0.1,0.5,0.2c0.2,0.1,0.4,0.2,0.6,0.2
		c0.2,0.1,0.4,0.2,0.7,0.3c0.2,0.1,0.5,0.2,0.7,0.3s0.5,0.1,0.7,0.2s0.4,0.1,0.5,0.1h4.2h0.8c0.1,0,0.2,0,0.3-0.1
		c0.1,0,0.2-0.1,0.3-0.2c0.1-0.1,0.1-0.1,0.2-0.2c0-0.1,0.1-0.2,0.1-0.3c0-0.1,0-0.2-0.1-0.3c0-0.1-0.1-0.2-0.2-0.2
		s-0.2-0.1-0.3-0.2c-0.1,0-0.2-0.1-0.3-0.1h-0.1v-0.6h0.9c0.1,0,0.2,0,0.3-0.1c0.1,0,0.2-0.1,0.2-0.2c0.1-0.1,0.1-0.2,0.2-0.3
		c0.1-0.1,0.1-0.2,0.1-0.3c0-0.1,0-0.2-0.1-0.3c0-0.1-0.1-0.2-0.2-0.2c-0.1-0.1-0.1-0.1-0.2-0.2c-0.1,0-0.2-0.1-0.3-0.1h-0.3v-0.6
		h0.9c0.1,0,0.2,0,0.3-0.1c0.1,0,0.2-0.1,0.3-0.2s0.1-0.2,0.2-0.3c0-0.1,0.1-0.2,0.1-0.3c0-0.1,0-0.2-0.1-0.3
		c-0.1-0.1-0.1-0.2-0.2-0.2s-0.2-0.1-0.3-0.2c-0.1,0-0.2-0.1-0.3-0.1h-0.3v-0.6H22.6z"/>
</g>
</svg>
